<?xml version="1.0" standalone="no"?><!DOCTYPE svg PUBLIC "-//W3C//DTD SVG 1.1//EN" "http://www.w3.org/Graphics/SVG/1.1/DTD/svg11.dtd"><svg t="1521289629259" class="icon" style="" viewBox="0 0 1024 1024" version="1.1" xmlns="http://www.w3.org/2000/svg" p-id="1926" xmlns:xlink="http://www.w3.org/1999/xlink" width="200" height="200"><defs><style type="text/css"></style></defs><path d="M511.794827 957.242574c-60.334133 0-118.873388-11.821233-173.992753-35.134195-53.229319-22.51376-101.029998-54.739718-142.073786-95.78453-41.043788-41.042765-73.27077-88.843444-95.785553-142.072763-23.312962-55.118342-35.134195-113.658619-35.134195-173.99173 0-60.334133 11.821233-118.874411 35.135218-173.992753 22.51376-53.229319 54.739718-101.029998 95.78453-142.073786 41.043788-41.043788 88.844467-73.27077 142.073786-95.78453C392.921439 75.095325 451.460694 63.274092 511.794827 63.274092c60.334133 0 118.873388 11.821233 173.99173 35.134195 53.229319 22.51376 101.028974 54.740742 142.072763 95.785553 41.043788 41.043788 73.27077 88.844467 95.78453 142.072763 23.312962 55.119365 35.134195 113.658619 35.134195 173.992753 0 60.33311-11.821233 118.873388-35.134195 173.99173-22.51376 53.229319-54.739718 101.029998-95.78453 142.072763-41.043788 41.043788-88.843444 73.27077-142.072763 95.78453C630.668215 945.42134 572.128961 957.242574 511.794827 957.242574zM511.794827 102.314247c-55.080479 0-108.503203 10.783601-158.785399 32.04995-48.575322 20.545942-92.203982 49.962925-129.676431 87.433328-37.471426 37.471426-66.88841 81.101109-87.433328 129.676431-21.267373 50.281173-32.050973 103.703897-32.050973 158.784376 0 55.080479 10.783601 108.503203 32.050973 158.784376 20.544919 48.575322 49.961902 92.203982 87.433328 129.675408 37.471426 37.471426 81.101109 66.887386 129.676431 87.433328 50.282197 21.266349 103.70492 32.04995 158.785399 32.04995s108.503203-10.783601 158.783353-32.04995c48.576345-20.544919 92.203982-49.961902 129.676431-87.433328 37.470403-37.470403 66.887386-81.100086 87.433328-129.675408 21.266349-50.281173 32.04995-103.703897 32.04995-158.784376s-10.783601-108.504226-32.04995-158.784376c-20.545942-48.575322-49.962925-92.205005-87.433328-129.676431-37.471426-37.471426-81.100086-66.88841-129.676431-87.434352C620.29803 113.097848 566.875307 102.314247 511.794827 102.314247z" p-id="1927"></path><path d="M491.32768 530.72548 140.352073 530.72548 140.352073 489.792209 491.326657 489.792209 491.326657 138.817626 532.258904 138.817626 532.259928 489.792209 883.234511 489.792209 883.234511 530.72548 532.258904 530.72548 532.259928 881.69904 491.32768 881.69904Z" p-id="1928"></path></svg>