<?xml version="1.0" standalone="no"?><!DOCTYPE svg PUBLIC "-//W3C//DTD SVG 1.1//EN" "http://www.w3.org/Graphics/SVG/1.1/DTD/svg11.dtd"><svg t="1523710530951" class="icon" style="" viewBox="0 0 1024 1024" version="1.1" xmlns="http://www.w3.org/2000/svg" p-id="2053" xmlns:xlink="http://www.w3.org/1999/xlink" width="200" height="200"><defs><style type="text/css"></style></defs><path d="M512.1 959.2c-43.8 0-83.5-24-101.3-61.2l-202-409c-15.3-31-22.5-66.8-22.5-112.6 0-172 146.1-312 325.8-312 179.6 0 325.8 140 325.8 312 0 45.9-7.1 81.7-22.5 112.6L613.7 898.5c-18.4 36.9-58.3 60.7-101.6 60.7z m0-851.1C356.5 108.1 230 228.5 230 376.4c0 38.9 5.7 68.5 18 93.2l202.2 409.3 0.1 0.1c10.5 22.1 34.8 36.4 61.9 36.4 26.8 0 51.4-14.3 62.5-36.5l201.6-409.3c12.3-24.8 18-54.4 18-93.3-0.1-147.8-126.7-268.2-282.2-268.2z" p-id="2054"></path><path d="M512.1 553c-101.4 0-184-79.2-184-176.6 0-97.4 82.5-176.6 184-176.6s184 79.2 184 176.6c0 97.4-82.6 176.6-184 176.6z m0-309.5c-77.3 0-140.3 59.6-140.3 132.9 0 73.3 62.9 132.9 140.3 132.9s140.3-59.6 140.3-132.9c0-73.3-63-132.9-140.3-132.9z" p-id="2055"></path></svg>