<?xml version="1.0" standalone="no"?><!DOCTYPE svg PUBLIC "-//W3C//DTD SVG 1.1//EN" "http://www.w3.org/Graphics/SVG/1.1/DTD/svg11.dtd"><svg t="1520097706307" class="icon" style="" viewBox="0 0 1024 1024" version="1.1" xmlns="http://www.w3.org/2000/svg" p-id="54950" xmlns:xlink="http://www.w3.org/1999/xlink" width="200" height="200"><defs><style type="text/css"></style></defs><path d="M130.194286 160l763.428571 0 0 710.765714-763.428571 0 0-710.765714Z" fill="#FFFFFF" p-id="54951"></path><path d="M893.805714 654.08V822.857143c0 26.88-51.2 48.457143-114.285714 48.457143H244.48c-63.085714 0-114.285714-21.577143-114.285714-48.457143v-168.228572" fill="#EAEAEA" p-id="54952"></path><path d="M779.52 898.194286H244.48a141.714286 141.714286 0 0 1-141.714286-141.531429V274.285714a141.714286 141.714286 0 0 1 141.714286-141.531428h535.04A141.714286 141.714286 0 0 1 921.234286 274.285714v482.377143a141.714286 141.714286 0 0 1-141.714286 141.531429zM244.48 187.428571A86.857143 86.857143 0 0 0 157.622857 274.285714v482.377143a86.857143 86.857143 0 0 0 86.857143 86.674286h535.04a86.857143 86.857143 0 0 0 86.857143-86.674286V274.285714a86.857143 86.857143 0 0 0-86.857143-86.674285z" fill="#808080" p-id="54953"></path><path d="M359.862857 390.034286h-76.982857a27.428571 27.428571 0 1 1 0-54.857143h76.982857a27.428571 27.428571 0 0 1 0 54.857143zM545.097143 390.034286h-77.165714a27.428571 27.428571 0 0 1 0-54.857143h77.165714a27.428571 27.428571 0 1 1 0 54.857143zM730.148571 390.034286h-76.982857a27.428571 27.428571 0 0 1 0-54.857143h76.982857a27.428571 27.428571 0 0 1 0 54.857143zM359.862857 536.32h-76.982857a27.428571 27.428571 0 1 1 0-54.857143h76.982857a27.428571 27.428571 0 0 1 0 54.857143zM545.097143 536.32h-77.165714a27.428571 27.428571 0 0 1 0-54.857143h77.165714a27.428571 27.428571 0 1 1 0 54.857143zM730.148571 536.32h-76.982857a27.428571 27.428571 0 0 1 0-54.857143h76.982857a27.428571 27.428571 0 0 1 0 54.857143zM730.148571 682.605714H282.88a27.428571 27.428571 0 1 1 0-54.857143h447.268571a27.428571 27.428571 0 0 1 0 54.857143z" fill="#808080" p-id="54954"></path></svg>