<?xml version="1.0" standalone="no"?><!DOCTYPE svg PUBLIC "-//W3C//DTD SVG 1.1//EN" "http://www.w3.org/Graphics/SVG/1.1/DTD/svg11.dtd"><svg t="1521014819171" class="icon" style="" viewBox="0 0 1024 1024" version="1.1" xmlns="http://www.w3.org/2000/svg" p-id="1481" xmlns:xlink="http://www.w3.org/1999/xlink" width="200" height="200"><defs><style type="text/css"></style></defs><path d="M945.152 103.4496s-142.72 25.856-226.9696 0C582.8864 61.9008 511.8464 0 511.8464 0v1024s397.2096-175.8464 428.16-408.5504 5.1456-512 5.1456-512z" fill="#B3DD33" p-id="1482"></path><path d="M305.6384 103.4496c-84.1984 25.856-226.7904 0-226.7904 0s-25.7792 279.2704 5.1456 512S511.8464 1024 511.8464 1024V0s-71.0144 61.9264-206.208 103.4496z" fill="#BAED3E" p-id="1483"></path><path d="M341.76 174.9504c-69.4528 21.3248-187.136 0-187.136 0s-21.2736 230.4 4.2496 422.4C184.3968 789.1712 511.232 934.1184 511.8464 934.4V89.6256c-0.1536 0.128-58.7008 51.0976-170.0864 85.3248z" fill="#8CC152" p-id="1484"></path><path d="M869.3504 174.9504s-117.7344 21.3248-187.2384 0c-111.616-34.2528-170.24-85.3248-170.24-85.3248l-0.0256 0.0256V934.4h0.0256s327.7056-145.0752 353.2288-337.0752c25.5232-191.9744 4.2496-422.3744 4.2496-422.3744z" fill="#82B244" p-id="1485"></path><path d="M511.488 452.9664l-80.128-146.5344a76.2624 76.2624 0 0 0-16.3328-16.5888 42.368 42.368 0 0 0-22.656-8.704c-14.4128 1.7408-24.2432 5.7088-29.5168 11.8528-5.2736 6.144-8.7808 14.1312-10.5472 23.9872-0.3584 7.7312 1.0496 14.848 4.224 21.3504s6.5024 11.8528 10.0096 16.0768l70.6304 124.3904h-75.904c-9.4976 0.6912-16.7936 3.8656-21.8624 9.4976-5.0944 5.632-8.1664 12.8256-9.216 21.6064 1.0496 9.1392 4.1216 16.6912 9.216 22.656 5.0944 5.9648 12.3904 9.3184 21.8624 10.0096l101.7344 0.5376v33.2032h-101.7344c-9.4976 0.6912-16.7936 3.8656-21.8624 9.4976-5.0944 5.632-8.1664 12.8256-9.216 21.6064 1.0496 8.7808 4.1216 16.768 9.216 23.9872 5.0944 7.2192 12.3904 11.1616 21.8624 11.8528h101.7344v54.8096c0.6912 15.104 5.3504 26.368 13.952 33.7408 8.3712 7.168 20.096 10.7008 34.8928 10.9056V452.352l-0.3584 0.6144z" fill="#BAED3E" p-id="1486"></path><path d="M663.2704 576.3072h-101.1968v-32.1536l100.6848-0.5376c9.1392-0.6912 16.4352-4.224 21.8624-10.5472a39.168 39.168 0 0 0 9.216-23.1936c-0.6912-8.7808-3.6864-16-8.96-21.6064-5.2736-5.632-12.4672-8.7808-21.6064-9.4976h-77.4912l81.6896-132.8384c7.0144-9.1136 10.5472-18.7904 10.5472-28.9792a59.4688 59.4688 0 0 0-5.0176-17.92 28.416 28.416 0 0 0-8.448-10.5472 31.6416 31.6416 0 0 0-11.5968-5.2736 85.5808 85.5808 0 0 0-14.4896-2.1248c-8.448 1.0496-16 3.8656-22.656 8.448a62.976 62.976 0 0 0-16.3328 15.8208l-87.6544 146.9696v290.3552c0.4608 0 0.7424 0.1536 1.2032 0.1536 31.2832 0 47.616-14.9248 49.024-44.8v-55.8592l101.1968 0.5376c9.1392-0.6912 16.3328-4.1216 21.6064-10.2656 5.2736-6.144 8.2432-13.7984 8.96-22.9376a39.2704 39.2704 0 0 0-8.96-22.656c-5.2224-6.3232-12.4416-9.8304-21.5808-10.5472z" fill="#B3DD33" p-id="1487"></path></svg>