<?xml version="1.0" standalone="no"?><!DOCTYPE svg PUBLIC "-//W3C//DTD SVG 1.1//EN" "http://www.w3.org/Graphics/SVG/1.1/DTD/svg11.dtd"><svg t="1520248298426" class="icon" style="" viewBox="0 0 1167 1024" version="1.1" xmlns="http://www.w3.org/2000/svg" p-id="2374" xmlns:xlink="http://www.w3.org/1999/xlink" width="227.9296875" height="200"><defs><style type="text/css"></style></defs><path d="M578.782609 382.886957c97.947826 0 178.086957 80.13913 178.086957 178.086957s-80.13913 178.086957-178.086957 178.086957-178.086957-80.13913-178.086957-178.086957S480.834783 382.886957 578.782609 382.886957" p-id="2375" fill="#ffffff"></path><path d="M578.782609 845.913043c-160.278261 0-293.843478-124.66087-293.843478-284.93913s133.565217-284.93913 293.843478-284.93913 293.843478 124.66087 293.843478 284.93913S747.965217 845.913043 578.782609 845.913043L578.782609 845.913043zM409.6 0 302.747826 115.756522 115.756522 115.756522C53.426087 115.756522 0 169.182609 0 231.513043l0 676.730435c0 62.330435 53.426087 115.756522 115.756522 115.756522l934.956522 0c62.330435 0 115.756522-53.426087 115.756522-115.756522L1166.469565 231.513043c0-62.330435-53.426087-115.756522-115.756522-115.756522L863.721739 115.756522 756.869565 0 409.6 0z" p-id="2376" fill="#ffffff"></path></svg>