<?xml version="1.0" standalone="no"?><!DOCTYPE svg PUBLIC "-//W3C//DTD SVG 1.1//EN" "http://www.w3.org/Graphics/SVG/1.1/DTD/svg11.dtd"><svg t="1520754382985" class="icon" style="" viewBox="0 0 1024 1024" version="1.1" xmlns="http://www.w3.org/2000/svg" p-id="1912" xmlns:xlink="http://www.w3.org/1999/xlink" width="200" height="200"><defs><style type="text/css"></style></defs><path d="M512 45.373397c-257.710456 0-466.626603 208.916147-466.626603 466.626603s208.915124 466.626603 466.626603 466.626603 466.626603-208.915124 466.626603-466.626603S769.710456 45.373397 512 45.373397zM754.945171 664.329361c22.561855 22.561855 22.561855 59.482743 0 82.044598l-20.511149 20.511149c-22.561855 22.561855-59.482743 22.561855-82.044598 0L506.030032 620.524692 359.670639 766.884085c-22.561855 22.561855-59.482743 22.561855-82.044598 0l-20.511149-20.511149c-22.561855-22.561855-22.561855-59.482743 0-82.044598l146.359392-146.359392L245.175979 359.670639c-22.561855-22.561855-22.561855-59.482743 0-82.044598l20.511149-20.511149c22.561855-22.561855 59.482743-22.561855 82.044598 0L506.030032 415.414221l158.298306-158.298306c22.561855-22.561855 59.482743-22.561855 82.044598 0l20.511149 20.511149c22.561855 22.561855 22.561855 59.482743 0 82.044598L608.585779 517.968945 754.945171 664.329361z" p-id="1913"></path></svg>
