<?xml version="1.0" standalone="no"?><!DOCTYPE svg PUBLIC "-//W3C//DTD SVG 1.1//EN" "http://www.w3.org/Graphics/SVG/1.1/DTD/svg11.dtd"><svg t="1521561086375" class="icon" style="" viewBox="0 0 1024 1024" version="1.1" xmlns="http://www.w3.org/2000/svg" p-id="23411" xmlns:xlink="http://www.w3.org/1999/xlink" width="200" height="200"><defs><style type="text/css"></style></defs><path d="M216.064 976.384h-25.6c-13.824 0-25.6-11.776-25.6-25.6v-141.824h77.312v141.824c-0.512 13.824-12.288 25.6-26.112 25.6zM829.44 976.384h-25.6c-13.824 0-25.6-11.776-25.6-25.6v-141.824h76.8v141.824c0 13.824-11.776 25.6-25.6 25.6z" fill="#FFD05B" p-id="23412"></path><path d="M769.024 908.8h-519.68c-47.104 0-86.016-38.912-86.016-86.016v-67.584c0-60.416 48.64-108.544 108.544-108.544h474.624c60.416 0 108.544 48.64 108.544 108.544v67.584c0 47.104-38.4 86.016-86.016 86.016z" fill="#FFD05B" p-id="23413"></path><path d="M762.88 336.384c-43.008 0-84.992-16.384-117.248-48.64-31.232-31.232-48.64-73.216-48.64-117.248 0-45.056 18.432-88.064 50.688-120.32 65.536-65.536 172.032-66.56 238.08-2.048 14.848 14.848 27.136 32.256 35.328 51.712 2.048 5.632 1.024 10.752-1.024 14.848-2.048 4.096-7.68 7.68-12.8 7.68l-131.072 1.024c-13.824 0-24.576 10.752-24.576 24.576v39.936c0 6.656 2.048 11.776 6.656 17.408 4.096 4.096 10.752 7.68 17.408 6.656l130.048-1.024c5.632 0 10.752 3.072 13.824 7.68 3.072 4.096 3.072 10.752 1.024 14.848-8.704 19.456-20.48 36.352-35.328 51.712-35.328 34.816-79.36 51.2-122.368 51.2z m4.096-302.592c-35.328 0-71.168 13.824-97.792 40.96-25.6 25.6-40.96 60.416-40.96 96.768 0 35.328 13.824 69.12 38.912 93.696 52.736 52.736 138.752 51.712 192.512-2.048 5.632-5.632 10.752-11.776 16.384-19.456l-103.424 1.024c-14.848 0-29.184-5.632-39.936-16.384-10.752-10.752-16.384-24.576-16.384-39.936V148.992c0-31.232 25.6-55.808 56.832-55.808l104.448-1.024c-4.096-7.68-9.728-13.824-16.384-19.456-25.088-26.112-59.904-38.912-94.208-38.912zM210.432 275.968c-25.6 0-49.664-9.728-67.584-27.136-19.456-19.456-30.208-45.056-30.208-74.24 0-58.368 41.984-103.424 97.792-104.448 1.024 0 65.536 1.024 131.072 2.048 61.44 1.024 122.88-6.656 123.904-6.656h4.096c27.136 0 51.712 9.728 71.168 29.184 19.456 19.456 30.208 45.056 30.208 72.192 0 56.832-45.056 103.424-102.4 104.448-1.024 0-64.512-1.024-128 0-62.464 1.024-126.976 4.096-128 4.096-1.024 0.512-2.048 0.512-2.048 0.512z m0-173.568c-37.888 1.024-66.56 31.232-65.536 72.192 0 20.48 7.68 38.912 20.48 51.712 11.776 11.776 27.136 17.408 44.032 17.408h1.024s65.536-3.072 128-4.096c63.488-1.024 128 0 128 0 38.912-1.024 71.168-33.28 70.144-72.192 0-18.432-7.68-36.352-20.48-49.664-12.8-12.8-30.208-19.456-48.64-19.456h-1.024c-8.704 1.024-66.56 7.68-126.976 7.68-64.512-3.584-129.024-3.584-129.024-3.584z" fill="#42200A" p-id="23414"></path><path d="M260.096 146.944c-14.848-13.824-38.912-13.824-52.736 0-13.824 13.824-14.848 38.912 0 52.736 14.848 13.824 38.912 13.824 52.736 0 13.824-15.36 13.824-38.912 0-52.736z" fill="#FFFFFF" p-id="23415"></path><path d="M231.936 226.304c-13.824 0-27.136-5.632-37.888-14.848-9.728-9.728-14.848-23.552-14.848-37.888 0-13.824 5.632-28.16 16.384-38.912 21.504-20.48 54.784-21.504 76.288 0 9.728 9.728 14.848 23.552 14.848 37.888 0 13.824-5.632 28.16-16.384 38.912-10.24 9.728-24.064 14.848-38.4 14.848z m1.024-74.24c-5.632 0-10.752 2.048-14.848 6.656s-6.656 9.728-6.656 14.848c0 5.632 2.048 10.752 6.656 14.848 8.704 8.704 21.504 7.68 30.208 0 4.096-4.096 6.656-9.728 6.656-14.848 0-5.632-2.048-10.752-6.656-14.848-4.608-4.608-9.728-6.656-15.36-6.656zM836.096 1024h-49.664c-16.384-1.024-47.104-12.8-47.104-46.08v-13.824H281.6V987.648c-2.048 11.776-13.824 35.328-45.056 35.328H156.16c-11.776-2.048-35.328-13.824-35.328-43.008v-77.312c-6.656-12.8-25.6-55.808-24.576-93.696 1.024-34.304 5.632-84.992 19.456-125.952 4.096-12.8 7.68-22.528 9.728-28.16-10.752-9.728-25.6-27.136-29.184-44.032-3.072-13.824-4.096-31.232 5.632-45.056 7.68-9.728 19.456-14.848 36.352-14.848 13.824 0 22.528-1.024 29.184-1.024 7.68-23.552 29.184-83.968 44.032-112.128 20.48-36.352 47.104-73.216 105.472-86.016 53.76-12.8 192.512-10.752 199.168-10.752l154.112 5.632h2.048c3.072 1.024 87.04 13.824 120.32 53.76 27.136 32.256 56.832 120.32 66.56 151.552l39.936 2.048c2.048 0 3.072 0 4.096 1.024 2.048 1.024 19.456 7.68 25.6 24.576 3.072 7.68 4.096 19.456-3.072 33.28-9.728 18.432-21.504 33.28-29.184 41.984 4.096 14.848 13.824 47.104 19.456 71.168 7.68 31.232 9.728 102.4 2.048 132.608-5.632 21.504-13.824 38.912-18.432 46.08v81.92c0 1.024 0 3.072-1.024 4.096-3.072 11.776-14.848 32.256-36.352 33.28h-26.112z m-47.616-32.256c7.68 0 59.392 1.024 73.216 0 2.048 0 4.096-4.096 6.656-8.704v-83.968c0-3.072 1.024-6.656 2.048-8.704 0 0 10.752-18.432 17.408-41.984 5.632-22.528 4.096-87.04-3.072-117.248-7.68-30.208-21.504-77.312-21.504-77.312-1.024-5.632 0-10.752 3.072-14.848 0 0 18.432-20.48 30.208-43.008 1.024-2.048 2.048-5.632 2.048-6.656-1.024-2.048-3.072-3.072-5.632-4.096l-48.64-2.048c-6.656 0-12.8-5.632-14.848-11.776-9.728-32.256-40.96-123.904-64.512-151.552-21.504-25.6-78.336-39.936-100.352-43.008l-153.088-5.632c-1.024 0-139.776-1.024-190.464 10.752-48.64 11.776-67.584 40.96-83.968 71.168-17.408 32.256-44.032 115.2-45.056 116.224-2.048 5.632-6.656 9.728-11.776 10.752-2.048 0-11.776 2.048-43.008 3.072-7.68 0-10.752 2.048-11.776 3.072-1.024 1.024-2.048 4.096 0 18.432 2.048 9.728 17.408 25.6 27.136 34.304 6.656 5.632 7.68 12.8 4.096 20.48-1.024 1.024-3.072 8.704-12.8 35.328-12.8 37.888-17.408 84.992-18.432 117.248-1.024 29.184 16.384 69.12 22.528 80.896 1.024 2.048 2.048 5.632 2.048 7.68v81.92c0 7.68 4.096 9.728 7.68 10.752h76.288c8.704 0 11.776-4.096 12.8-7.68V947.712c0-8.704 7.68-16.384 16.384-16.384h488.448c4.096 0 8.704 2.048 11.776 5.632 3.072 3.072 4.096 7.68 4.096 11.776v29.184c2.56 10.752 17.92 12.8 20.992 13.824z" fill="#42200A" p-id="23416"></path><path d="M781.824 804.352c29.184 0 52.736-23.552 52.736-52.736 0-29.184-23.552-52.736-52.736-52.736-29.184 0-53.76 23.552-53.76 52.736 1.024 29.184 25.088 52.736 53.76 52.736z" fill="#FFFFFF" p-id="23417"></path><path d="M781.824 820.736c-38.912 0-70.144-31.232-70.144-69.12s31.232-69.12 70.144-69.12 70.144 31.232 70.144 69.12-31.232 69.12-70.144 69.12z m0-105.472c-20.48 0-37.888 16.384-37.888 36.352 0 20.48 16.384 36.352 37.888 36.352s37.888-16.384 37.888-36.352c0-20.48-17.408-36.352-37.888-36.352z" fill="#42200A" p-id="23418"></path><path d="M362.496 759.296c0 9.728 8.704 18.432 18.432 18.432h263.68c9.728 0 18.432-8.704 18.432-18.432v-7.68c0-9.728-8.704-18.432-18.432-18.432h-263.68c-9.728 0-18.432 8.704-18.432 18.432v7.68z" fill="#FFFFFF" p-id="23419"></path><path d="M644.096 793.6h-263.68c-19.456 0-34.304-14.848-34.304-34.304v-7.68c0-19.456 14.848-34.304 34.304-34.304h263.68c19.456 0 34.304 14.848 34.304 34.304v7.68c0.512 19.456-14.848 34.304-34.304 34.304z m-263.68-43.008c-1.024 0-2.048 1.024-2.048 2.048v7.68c0 1.024 1.024 2.048 2.048 2.048h263.68c1.024 0 2.048-1.024 2.048-2.048v-7.68c0-1.024-1.024-2.048-2.048-2.048h-263.68z" fill="#42200A" p-id="23420"></path><path d="M816.64 614.912h-599.552c-5.632 0-9.728-2.048-12.8-6.656-3.072-4.096-4.096-9.728-2.048-14.848 4.096-11.776 43.008-121.856 69.12-147.456 43.008-44.032 120.32-52.736 232.448-52.736 134.656 0 211.968 16.384 248.832 52.736 33.28 33.28 75.264 135.68 79.872 147.456 2.048 5.632 1.024 10.752-2.048 14.848-3.072 3.584-8.704 6.656-13.824 6.656z m-577.024-32.256h551.936c-16.384-36.352-43.008-94.72-63.488-114.176-30.208-29.184-102.4-43.008-225.792-43.008-100.352 0-174.592 7.68-209.92 43.008-11.776 12.8-36.352 70.144-52.736 114.176z" fill="#42200A" p-id="23421"></path><path d="M237.568 804.352c29.184 0 53.76-23.552 53.76-52.736 0-29.184-23.552-52.736-53.76-52.736-29.184 0-53.76 23.552-53.76 52.736 1.024 29.184 24.576 52.736 53.76 52.736z" fill="#FFFFFF" p-id="23422"></path><path d="M237.568 820.736c-38.912 0-70.144-31.232-70.144-69.12s31.232-69.12 70.144-69.12 70.144 31.232 70.144 69.12c-0.512 37.888-31.744 69.12-70.144 69.12z m0-105.472c-20.48 0-37.888 16.384-37.888 36.352 0 20.48 16.384 36.352 37.888 36.352 20.48 0 37.888-16.384 37.888-36.352-0.512-20.48-17.408-36.352-37.888-36.352z" fill="#42200A" p-id="23423"></path><path d="M727.04 560.128h-436.736c0-56.832 46.08-103.424 103.424-103.424h230.4c57.856 1.024 102.912 47.616 102.912 103.424z" fill="#FFD05B" p-id="23424"></path></svg>