<?xml version="1.0" standalone="no"?><!DOCTYPE svg PUBLIC "-//W3C//DTD SVG 1.1//EN" "http://www.w3.org/Graphics/SVG/1.1/DTD/svg11.dtd"><svg t="1522472242733" class="icon" style="" viewBox="0 0 1024 1024" version="1.1" xmlns="http://www.w3.org/2000/svg" p-id="1829" xmlns:xlink="http://www.w3.org/1999/xlink" width="200" height="200"><defs><style type="text/css"></style></defs><path d="M950.857143 292.571429h-73.142857v658.285714a73.142857 73.142857 0 0 1-73.142857 73.142857H219.428571a73.142857 73.142857 0 0 1-73.142857-73.142857V292.571429H73.142857a73.142857 73.142857 0 0 1 0-146.285715h292.571429V73.142857a73.142857 73.142857 0 0 1 73.142857-73.142857h146.285714a73.142857 73.142857 0 0 1 73.142857 73.142857v73.142857h292.571429a73.142857 73.142857 0 0 1 0 146.285715z m-219.428572 0H292.571429v585.142857h438.857142V292.571429z" fill="#0078D7" p-id="1830"></path></svg>