<?xml version="1.0" standalone="no"?><!DOCTYPE svg PUBLIC "-//W3C//DTD SVG 1.1//EN" "http://www.w3.org/Graphics/SVG/1.1/DTD/svg11.dtd"><svg t="1520097392402" class="icon" style="" viewBox="0 0 1024 1024" version="1.1" xmlns="http://www.w3.org/2000/svg" p-id="53091" xmlns:xlink="http://www.w3.org/1999/xlink" width="200" height="200"><defs><style type="text/css"></style></defs><path d="M385 228V124c0-19.3 15.7-35 35-35h184c19.3 0 35 15.7 35 35v104H385z" fill="#8F8D94" p-id="53092"></path><path d="M604 114c5.5 0 10 4.5 10 10v79H410v-79c0-5.5 4.5-10 10-10h184m0-50H420c-33.1 0-60 26.9-60 60v129h304V124c0-33.1-26.9-60-60-60z" fill="#504D59" p-id="53093"></path><path d="M410 139h203.5v21H410z" fill="#6F6D75" p-id="53094"></path><path d="M262 935c-35.8 0-65-29.2-65-65V250c0-35.8 29.2-65 65-65h500c35.8 0 65 29.2 65 65v620c0 35.8-29.2 65-65 65H262z" fill="#8BEF99" p-id="53095"></path><path d="M762 210c10.6 0 20.6 4.2 28.2 11.8 7.6 7.6 11.8 17.6 11.8 28.2v620c0 10.6-4.2 20.6-11.8 28.2-7.6 7.6-17.6 11.8-28.2 11.8H262c-10.6 0-20.6-4.2-28.2-11.8-7.6-7.6-11.8-17.6-11.8-28.2V250c0-10.6 4.2-20.6 11.8-28.2S251.4 210 262 210h500m0-50H262c-49.5 0-90 40.5-90 90v620c0 49.5 40.5 90 90 90h500c49.5 0 90-40.5 90-90V250c0-49.5-40.5-90-90-90z" fill="#504D59" p-id="53096"></path><path d="M762 210h-26.4v460.6c0 77.2-62.8 140-140 140H541l151.4-239.5-166-43L470 351.7l-140.9 272 137 65.5 21.2 121.5H222V870c0 22.1 17.9 40 40 40h500c22.1 0 40-17.9 40-40V250c0-22.1-17.9-40-40-40z" fill="#6DC674" p-id="53097"></path><path d="M517.3 656.4l-156-54.1 108.8-227.6 35.7 165.4 154 41.1-144.1 226.1z" fill="#FFCE00" p-id="53098"></path><path d="M464.7 420.8l24.5 113.5 3.9 17.9 17.7 4.7 125.4 33.4-105 164.7 0.9-87.6 0.2-21.6-20.4-7.1-130-45.1 82.8-172.8m10.8-92.2L340.5 611l161.7 56.1-2.1 192.5L683.5 572l-165-44-43-199.4z" fill="#504D59" p-id="53099"></path><path d="M197 269v-19c0-35.8 29.2-65 65-65h500c35.8 0 65 29.2 65 65v19H197z" fill="#A9B7AA" p-id="53100"></path><path d="M762 210c10.6 0 20.6 4.2 28.2 11.8 6.1 6.1 10.1 13.9 11.3 22.2h-579c1.3-8.3 5.2-16.1 11.3-22.2 7.6-7.6 17.6-11.8 28.2-11.8h500m0-50H262c-49.5 0-90 40.5-90 90v44h680v-44c0-49.5-40.5-90-90-90z" fill="#504D59" p-id="53101"></path></svg>