<?xml version="1.0" standalone="no"?><!DOCTYPE svg PUBLIC "-//W3C//DTD SVG 1.1//EN" "http://www.w3.org/Graphics/SVG/1.1/DTD/svg11.dtd"><svg t="1524103599490" class="icon" style="" viewBox="0 0 1024 1024" version="1.1" xmlns="http://www.w3.org/2000/svg" p-id="4501" xmlns:xlink="http://www.w3.org/1999/xlink" width="200" height="200"><defs><style type="text/css"></style></defs><path d="M972.69 286.413l-443.212 471.078c-1.327 1.327-3.096 1.769-3.981 1.769s-2.654 0-3.981-1.327l-471.521-443.212c-11.943-11.5-30.963-10.616-42.021 1.327s-10.616 30.963 1.327 42.021l471.078 443.212c12.827 11.943 29.194 18.135 46.887 17.693 17.251-0.442 33.617-7.962 45.56-20.347l443.212-471.521c5.308-5.75 7.962-13.27 7.961-20.347 0-7.962-3.096-15.924-9.289-21.674-11.943-11.5-30.963-10.616-42.021 1.327z" p-id="4502"></path></svg>