<?xml version="1.0" standalone="no"?><!DOCTYPE svg PUBLIC "-//W3C//DTD SVG 1.1//EN" "http://www.w3.org/Graphics/SVG/1.1/DTD/svg11.dtd"><svg t="1521563010027" class="icon" style="" viewBox="0 0 1024 1024" version="1.1" xmlns="http://www.w3.org/2000/svg" p-id="45004" xmlns:xlink="http://www.w3.org/1999/xlink" width="200" height="200"><defs><style type="text/css"></style></defs><path d="M264.543588 481.181552c50.994576-350.683421 49.319186-436.492934 123.756463-472.715271 84.398466-41.057087 392.553592 75.401675 497.463283 174.448412A2681.975245 2681.975245 0 0 1 362.573058 548.703971c-68.038344 36.348129-110.240312 16.447629-98.02947-67.522419" fill="#99B56D" p-id="45005"></path><path d="M445.653453 1012.45709l-228.489317-110.138221c-57.785467-27.845387-82.126936-97.509899-54.270612-155.297188l270.57461-561.304948c27.858148-57.772705 97.511722-82.114175 155.295366-54.270611l228.489317 110.150982c57.770882 27.845387 82.128759 97.509899 54.270611 155.282604L600.93788 958.188302c-27.845387 57.785467-97.511722 82.115998-155.284427 54.268788m126.436359-846.42209c-38.69805-18.657175-85.377448-2.348099-104.034623 36.36089L197.467818 763.699014c-18.655352 38.708989-2.335337 85.39021 36.375474 104.034623l228.476557 110.150983c38.723573 18.655352 85.377448 2.348099 104.047384-36.373652L836.941843 380.20602c18.655352-38.69805 2.36086-85.364687-36.362713-104.021861l-228.489318-110.149159z" fill="" p-id="45006"></path><path d="M409.722805 872.314982c-8.057916 16.715618-28.149837 23.745329-44.863632 15.674652-16.728379-8.057916-23.747152-28.137076-15.687414-44.863632 8.0725-16.702857 28.149837-23.734391 44.878217-15.661891 16.715618 8.045155 23.732568 28.149837 15.672829 44.850871M602.764584 252.502637a5.671533 5.671533 0 0 1-7.58939 2.639787 5.658772 5.658772 0 0 1-2.652549-7.58939 5.677002 5.677002 0 0 1 7.58939-2.639788 5.680648 5.680648 0 0 1 2.652549 7.589391M689.19576 297.812918l-64.652926-31.170644a2.636142 2.636142 0 0 1-1.230564-3.516679l0.570617-1.16858a2.630673 2.630673 0 0 1 3.514856-1.230564l64.652926 31.157883c1.307133 0.647186 1.864988 2.220485 1.217803 3.516678l-0.559679 1.179519a2.632496 2.632496 0 0 1-3.513033 1.232387M677.65945 248.036145a3.888583 3.888583 0 0 1-5.179308 1.815765 3.843006 3.843006 0 0 1-1.801181-5.164723 3.868529 3.868529 0 0 1 5.164723-1.815765 3.870352 3.870352 0 0 1 1.815766 5.164723" fill="" p-id="45007"></path></svg>