<?xml version="1.0" standalone="no"?><!DOCTYPE svg PUBLIC "-//W3C//DTD SVG 1.1//EN" "http://www.w3.org/Graphics/SVG/1.1/DTD/svg11.dtd"><svg t="1520090043309" class="icon" style="" viewBox="0 0 1024 1024" version="1.1" xmlns="http://www.w3.org/2000/svg" p-id="36315" xmlns:xlink="http://www.w3.org/1999/xlink" width="200" height="200"><defs><style type="text/css"></style></defs><path d="M510.740671 513.628224m-508.819876 0a508.819876 508.819876 0 1 0 1017.639752 0 508.819876 508.819876 0 1 0-1017.639752 0Z" fill="#2283F6" p-id="36316"></path><path d="M510.740671 513.628224m-355.442485 0a355.442484 355.442484 0 1 0 710.884969 0 355.442484 355.442484 0 1 0-710.884969 0Z" fill="#FE3D50" p-id="36317"></path><path d="M659.869416 894.505342H361.611925a44.521739 44.521739 0 0 1-44.521739-44.52174V177.279205a44.521739 44.521739 0 0 1 44.521739-44.521739h298.257491a44.521739 44.521739 0 0 1 44.521739 44.521739V849.983602a44.521739 44.521739 0 0 1-44.521739 44.52174z" fill="#FFFFFF" p-id="36318"></path><path d="M658.540124 884.532472H362.941217c-24.366112 0-44.127404-26.293267-44.127403-50.881988v12.720497c0 24.58872 19.761292 44.521739 44.127403 44.521739h295.611628c24.366112 0 44.121043-19.933019 44.121043-44.521739v-12.720497c0 24.58872-19.754932 50.881988-44.121043 50.881988z" fill="#2283F6" p-id="36319"></path><path d="M336.749714 219.040596h347.981913v589.168895H336.749714z" fill="#534741" p-id="36320"></path><path d="M510.740671 850.002683m-25.180224 0a25.180224 25.180224 0 1 0 50.360447 0 25.180224 25.180224 0 1 0-50.360447 0Z" fill="#FE3D50" p-id="36321"></path><path d="M510.740671 850.002683m-20.002982 0a20.002981 20.002981 0 1 0 40.005963 0 20.002981 20.002981 0 1 0-40.005963 0Z" fill="#FFFFFF" p-id="36322"></path><path d="M539.412671 183.03523h-57.35036a5.215404 5.215404 0 0 1-5.215404-5.215404v-0.063602a5.215404 5.215404 0 0 1 5.215404-5.215404h57.35672a5.215404 5.215404 0 0 1 5.215404 5.215404v0.063602a5.215404 5.215404 0 0 1-5.215404 5.215404z" fill="#FE3D50" p-id="36323"></path><path d="M456.500472 177.788025m-6.684621 0a6.684621 6.684621 0 1 0 13.369242 0 6.684621 6.684621 0 1 0-13.369242 0Z" fill="#FE3D50" p-id="36324"></path><path d="M510.740671 153.61272m-4.573019 0a4.573019 4.573019 0 1 0 9.146037 0 4.573019 4.573019 0 1 0-9.146037 0Z" fill="#FE3D50" p-id="36325"></path></svg>