<?xml version="1.0" standalone="no"?><!DOCTYPE svg PUBLIC "-//W3C//DTD SVG 1.1//EN" "http://www.w3.org/Graphics/SVG/1.1/DTD/svg11.dtd"><svg t="1521175822684" class="icon" style="" viewBox="0 0 1024 1024" version="1.1" xmlns="http://www.w3.org/2000/svg" p-id="2751" xmlns:xlink="http://www.w3.org/1999/xlink" width="200" height="200"><defs><style type="text/css"></style></defs><path d="M511.841388 958.930005c60.444651 0 119.101585-11.844769 174.327374-35.20378 53.331649-22.554692 101.228519-54.845119 142.343939-95.965655 41.12156-41.120536 73.411987-89.014336 95.970772-142.344962 23.361057-55.229882 35.20378-113.882724 35.20378-174.331467 0-60.448744-11.842723-119.096469-35.20378-174.326351-22.558785-53.335742-54.848189-101.228519-95.970772-142.350079-41.11542-41.120536-89.013313-73.405847-142.343939-95.965655C630.942973 75.082022 572.286038 63.237253 511.841388 63.237253c-60.448744 0-119.100562 11.844769-174.331467 35.20378-53.331649 22.559808-101.223403 54.850236-142.343939 95.965655-41.12156 41.12156-73.411987 89.014336-95.966679 142.350079-23.360034 55.229882-35.202757 113.877607-35.202757 174.326351 0 60.448744 11.842723 119.101585 35.202757 174.331467 22.554692 53.331649 54.845119 101.224426 95.966679 142.344962 41.120536 41.120536 89.01229 73.40994 142.343939 95.965655C392.740826 947.085236 451.392644 958.930005 511.841388 958.930005zM510.826268 435.900811 345.281931 601.450265c-4.901637 4.89652-11.419074 7.596002-18.35709 7.596002-6.930853 0-13.449313-2.699482-18.35095-7.596002-4.901637-4.901637-7.596002-11.419074-7.596002-18.351973 0-6.938016 2.694365-13.45443 7.596002-18.356067l183.891194-183.891194c10.119475-10.120498 26.586518-10.120498 36.70804 0l183.89017 183.891194c4.89652 4.901637 7.596002 11.418051 7.596002 18.356067 0 6.932899-2.699482 13.455453-7.601118 18.351973-4.89652 4.901637-11.412934 7.596002-18.35095 7.596002-6.932899 0-13.455453-2.694365-18.351973-7.596002L510.826268 435.900811z" p-id="2752"></path></svg>