<?xml version="1.0" standalone="no"?><!DOCTYPE svg PUBLIC "-//W3C//DTD SVG 1.1//EN" "http://www.w3.org/Graphics/SVG/1.1/DTD/svg11.dtd"><svg t="1521258342174" class="icon" style="" viewBox="0 0 1024 1024" version="1.1" xmlns="http://www.w3.org/2000/svg" p-id="3732" xmlns:xlink="http://www.w3.org/1999/xlink" width="200" height="200"><defs><style type="text/css"></style></defs><path d="M512 65.983C266.08 65.983 65.983 266.08 65.983 512c0 245.952 200.065 446.017 446.017 446.017S958.017 757.952 958.017 512c0-245.92-200.065-446.017-446.017-446.017z m215.231 372.45L471.008 697.438c-0.064 0.064-0.193 0.096-0.257 0.193-0.096 0.063-0.096 0.192-0.192 0.256-2.05 1.984-4.576 3.2-6.945 4.545-1.183 0.672-2.143 1.696-3.392 2.176-3.84 1.536-7.904 2.336-11.967 2.336-4.096 0-8.225-0.8-12.097-2.4-1.28-0.543-2.303-1.632-3.52-2.303-2.368-1.344-4.831-2.529-6.88-4.545-0.064-0.063-0.097-0.192-0.16-0.256-0.064-0.096-0.193-0.096-0.256-0.193L299.325 567.745c-12.32-12.673-12.033-32.928 0.64-45.248 12.673-12.288 32.895-12.064 45.248 0.64l103.263 106.112 233.28-235.84c12.417-12.576 32.705-12.703 45.248-0.256 12.516 12.448 12.644 32.703 0.227 45.28z" p-id="3733"></path></svg>