<?xml version="1.0" standalone="no"?><!DOCTYPE svg PUBLIC "-//W3C//DTD SVG 1.1//EN" "http://www.w3.org/Graphics/SVG/1.1/DTD/svg11.dtd"><svg t="1520589320001" class="icon" style="" viewBox="0 0 1024 1024" version="1.1" xmlns="http://www.w3.org/2000/svg" p-id="1895" xmlns:xlink="http://www.w3.org/1999/xlink" width="200" height="200"><defs><style type="text/css"></style></defs><path d="M230.4 537.6h314.88l-102.4 84.48c-10.24 10.24-10.24 25.6 0 35.84 10.24 10.24 25.6 10.24 35.84 0l153.6-125.44c5.12-5.12 7.68-12.8 7.68-20.48 0-7.68-2.56-15.36-7.68-20.48l-153.6-125.44c-10.24-10.24-25.6-10.24-35.84 0-10.24 10.24-10.24 25.6 0 35.84l102.4 84.48H230.4c-15.36 0-25.6 10.24-25.6 25.6s10.24 25.6 25.6 25.6zM819.2 128H204.8C148.48 128 102.4 174.08 102.4 230.4v563.2c0 56.32 46.08 102.4 102.4 102.4h614.4c56.32 0 102.4-46.08 102.4-102.4V230.4c0-56.32-46.08-102.4-102.4-102.4z m-102.4 716.8H204.8c-28.16 0-51.2-23.04-51.2-51.2V230.4c0-28.16 23.04-51.2 51.2-51.2h512v665.6z m153.6-51.2c0 28.16-23.04 51.2-51.2 51.2h-51.2V179.2h51.2c28.16 0 51.2 23.04 51.2 51.2v563.2z" p-id="1896"></path></svg>