<?xml version="1.0" standalone="no"?><!DOCTYPE svg PUBLIC "-//W3C//DTD SVG 1.1//EN" "http://www.w3.org/Graphics/SVG/1.1/DTD/svg11.dtd"><svg t="1520599215823" class="icon" style="" viewBox="0 0 1024 1024" version="1.1" xmlns="http://www.w3.org/2000/svg" p-id="1444" xmlns:xlink="http://www.w3.org/1999/xlink" width="200" height="200"><defs><style type="text/css"></style></defs><path d="M220.665 723.879q10.759 0 18.622-7.863t7.863-18.622-7.863-18.622-18.622-7.863-18.622 7.863-7.863 18.622 7.863 18.622 18.622 7.863zM536.83 776.848q78.213 0 78.213-69.11 0-10.759-2.069-23.173 12.415-6.622 19.657-21.726t7.242-30.415-7.448-28.554q21.932-20.692 21.932-49.246 0-10.345-4.138-22.968t-10.345-19.658h136.976q21.519 0 37.245-15.726t15.726-37.245q0-21.104-16.139-37.038t-36.83-15.932h-238.366q0-8.276 6.207-20.071t13.656-22.761 13.656-28.14 6.207-34.969q0-27.727-18.415-40.348t-47.797-12.623q-9.932 0-37.245 57.523-9.932 18.209-15.312 26.9-16.553 26.484-46.348 60.005-29.381 33.519-41.797 43.866-28.554 23.588-57.936 23.588h-13.243v264.848h13.243q29.796 0 69.11 13.242t80.076 26.484 74.282 13.242zM538.9 829.819q-55.038 0-133.252-28.554-67.867-24.416-92.284-24.416h-119.181q-21.932 0-37.451-15.518t-15.518-37.451v-264.848q0-21.932 15.518-37.451t37.451-15.518h119.181q4.138 0 8.897-1.863t9.726-5.794 9.31-7.448 9.932-9.311 8.483-8.898 7.863-8.897 5.793-7.035q26.9-30.622 41.383-53.384 5.38-8.691 13.656-25.657t15.312-29.796 16.761-26.071 22.761-20.484 28.761-7.242q51.728 0 85.455 27.727t33.728 78.213q0 28.14-9.104 52.97h154.772q43.039 0 74.487 31.45t31.45 74.074q0 43.45-31.244 74.903t-74.695 31.45h-69.937q-1.655 25.657-15.312 49.246 1.242 8.691 1.242 17.794 0 41.797-24.83 73.661 0.414 57.522-35.175 90.836t-93.939 33.313z" p-id="1445"></path></svg>