<?xml version="1.0" standalone="no"?><!DOCTYPE svg PUBLIC "-//W3C//DTD SVG 1.1//EN" "http://www.w3.org/Graphics/SVG/1.1/DTD/svg11.dtd"><svg t="1520575776856" class="icon" style="" viewBox="0 0 1024 1024" version="1.1" xmlns="http://www.w3.org/2000/svg" p-id="6954" xmlns:xlink="http://www.w3.org/1999/xlink" width="200" height="200"><defs><style type="text/css"></style></defs><path d="M798.709965 499.949771C767.040217 605.381509 664.278099 694.832092 548.570149 694.832092L548.570149 950.823132 658.280594 950.823132C705.419516 950.823132 767.99104 976.861079 767.99104 1023.96343L554.677363 1023.96343 469.322637 1023.96343 256.00896 1023.96343C256.00896 1023.96343 282.010336 950.823132 329.149257 950.823132L475.429851 950.823132 475.429851 694.832092C359.685331 694.832092 256.959783 605.381509 225.290035 499.949771 126.404353 446.374503 0.017919 359.227838 0.017919 255.990309 0.017919 172.61037 30.992835 145.804451 73.158216 146.279863 114.080213 146.791845 219.438811 146.279863 219.438811 146.279863L219.438811-0.000731 804.561189-0.000731 804.561189 146.279863C804.561189 146.279863 906.591903 146.279863 950.841784 146.279863 992.495183 146.279863 1023.982081 171.001284 1023.982081 255.990309 1023.982081 364.45737 897.595647 446.374503 798.709965 499.949771ZM213.331596 290.914801C213.331596 290.914801 198.301265 217.408802 128.01344 213.349516 104.133132 211.92328 85.116655 225.637086 85.336076 255.990309 86.030909 340.394212 213.331596 383.985829 213.331596 383.985829L213.331596 290.914801ZM731.420891 73.139566 292.579109 73.139566 292.579109 365.737325C291.226013 535.934796 394.170981 621.691795 512 621.691795 629.829019 621.691795 731.420891 531.253817 731.420891 365.737325L731.420891 73.139566ZM895.98656 213.349516C825.662165 216.421408 810.668404 333.592164 810.668404 333.592164L810.668404 383.985829C810.668404 383.985829 936.798846 339.370248 938.663924 255.990309 939.358756 224.17428 927.83916 211.92328 895.98656 213.349516Z" p-id="6955"></path></svg>