<?xml version="1.0" standalone="no"?><!DOCTYPE svg PUBLIC "-//W3C//DTD SVG 1.1//EN" "http://www.w3.org/Graphics/SVG/1.1/DTD/svg11.dtd"><svg t="1521106059981" class="icon" style="" viewBox="0 0 1024 1024" version="1.1" xmlns="http://www.w3.org/2000/svg" p-id="1477" xmlns:xlink="http://www.w3.org/1999/xlink" width="200" height="200"><defs><style type="text/css"></style></defs><path d="M513.559007 60.225663c-248.299109 0-449.587532 201.299679-449.587532 449.625394 0 248.296039 201.288422 449.594695 449.587532 449.594695 248.27762 0 449.63358-201.299679 449.63358-449.594695C963.192587 261.525342 761.836627 60.225663 513.559007 60.225663zM513.678734 917.673369c-225.174436 0-407.703609-182.53736-407.703609-407.706679S288.505321 102.254895 513.678734 102.254895c225.165226 0 407.695423 182.541453 407.695423 407.710772S738.844983 917.673369 513.678734 917.673369z" p-id="1478"></path><path d="M486.287897 644.807748c12.999059 12.790304 12.777001 34.097586-0.497327 47.590901l0 0c-13.275351 13.491269-34.577516 14.063297-47.576575 1.277086L282.51591 540.491914c-12.999059-12.791327-12.775978-34.097586 0.49835-47.590901l0 0c13.281491-13.494339 34.58468-14.06739 47.576575-1.276063L486.287897 644.807748z" p-id="1479"></path><path d="M717.467093 359.167173c12.797467-12.999059 34.100656-12.771885 47.591925 0.502443l0 0c13.496385 13.274328 14.07046 34.573423 1.279133 47.576575L484.90541 693.291996c-12.791327 13.003152-34.093493 12.774955-47.583738-0.49835l0 0c-13.497409-13.278421-14.07046-34.577516-1.280156-47.576575L717.467093 359.167173z" p-id="1480"></path></svg>