<?xml version="1.0" standalone="no"?><!DOCTYPE svg PUBLIC "-//W3C//DTD SVG 1.1//EN" "http://www.w3.org/Graphics/SVG/1.1/DTD/svg11.dtd"><svg t="1519918099496" class="icon" style="" viewBox="0 0 1024 1024" version="1.1" xmlns="http://www.w3.org/2000/svg" p-id="2325" xmlns:xlink="http://www.w3.org/1999/xlink" width="200" height="200"><defs><style type="text/css"></style></defs><path d="M525.595134 592.638575c-3.965312 3.309372-8.762571 4.9088-13.606903 4.9088s-9.625218-1.599428-13.59053-4.9088c-7.355525-5.963829-180.0057-148.95552-180.0057-295.52776 0-106.727767 86.836741-193.564507 193.597253-193.564507s193.597253 86.836741 193.597253 193.564507C705.585485 443.683055 532.934287 586.674747 525.595134 592.638575L525.595134 592.638575zM511.988232 146.525168c-83.032088 0-150.618393 67.569932-150.618393 150.585647 0 104.521518 111.188358 214.654848 150.618393 250.374374 39.397289-35.767622 150.618393-146.028864 150.618393-250.374374C662.606625 214.0951 595.03567 146.525168 511.988232 146.525168L511.988232 146.525168zM908.439566 789.321096l-257.873162 128.936581c-3.069919 1.503237-6.347568 2.222621-9.641591 2.222621-3.501754 0-7.03523-0.799202-10.153244-2.526543L361.626689 772.996293 135.443273 896.384507c-6.635117 3.66139-14.693654 3.485381-21.265326-0.367367-6.507204-3.869121-10.472516-10.872628-10.472516-18.515702l0-429.788603c0-7.179516 3.549849-13.894452 9.530051-17.844413l107.495246-64.500013c9.832949-6.5553 23.168676-3.901867 29.803793 5.995551 6.53995 9.8176 3.901867 23.168676-6.011924 29.803793l-97.837282 58.089 0 382.060579 204.581422-111.604844c6.379291-3.437286 14.134929-3.437286 20.482497-0.031722l269.529643 145.133472L877.324918 756.783029 877.324918 380.430452l-74.078159 42.179658c-9.897418 6.5553-23.232121 3.901867-29.78742-5.915733-6.5553-9.897418-3.917216-23.248494 5.995551-29.803793l107.399055-64.500013c6.635117-4.365424 15.110139-4.797259 22.097274-1.055029 6.987135 3.773953 11.352559 11.032264 11.352559 18.97926l0 429.788603C920.303778 778.240737 915.6989 785.659707 908.439566 789.321096L908.439566 789.321096z" p-id="2326"></path></svg>