<?xml version="1.0" standalone="no"?><!DOCTYPE svg PUBLIC "-//W3C//DTD SVG 1.1//EN" "http://www.w3.org/Graphics/SVG/1.1/DTD/svg11.dtd"><svg t="1521561194539" class="icon" style="" viewBox="0 0 1024 1024" version="1.1" xmlns="http://www.w3.org/2000/svg" p-id="27592" xmlns:xlink="http://www.w3.org/1999/xlink" width="200" height="200"><defs><style type="text/css"></style></defs><path d="M538.232152 477.683185c0 13.417101-2.580212 25.974131-7.740635 37.67109-5.160423 11.868974-12.213002 22.18982-20.985722 30.96254s-19.093566 15.825298-30.962539 20.985722-24.426004 7.740635-37.843105 7.740635H181.646901c-13.417101 0-25.974131-2.580212-37.843105-7.740635s-22.18982-12.213002-30.962539-20.985722-15.825298-19.093566-20.985722-30.96254-7.740635-24.426004-7.740635-37.67109V217.425836c0-13.417101 2.580212-26.146145 7.740635-38.187133 5.160423-12.213002 12.213002-22.533848 20.985722-31.306568s19.093566-15.825298 30.962539-20.985721 24.426004-7.740635 37.843105-7.740635h259.225264c13.417101 0 25.974131 2.580212 37.843105 7.740635s22.18982 12.213002 30.96254 20.985721 15.825298 19.26558 20.985721 31.306568c5.160423 12.213002 7.740635 24.942046 7.740635 38.187133v260.257349h-0.172014z" fill="#15c9d7" p-id="27593"></path><path d="M872.11154 292.07996c17.545439 0 32.682681 6.364522 45.411726 19.093566 12.729044 12.729044 19.093566 27.866286 19.093566 45.411725v151.88846c0 18.233496-6.364522 33.714766-19.093566 46.44381-12.729044 12.729044-27.866286 19.093566-45.411726 19.093566h-153.780614c-17.545439 0-32.854695-6.364522-45.927768-19.093566-13.073072-12.729044-19.609609-28.210314-19.609609-46.44381v-151.88846c0-17.545439 6.536536-32.682681 19.609609-45.411725 13.073072-12.729044 28.382328-19.093566 45.927768-19.093566H872.11154z" fill="#fa733a" p-id="27594"></path><path d="M872.11154 633.183941c17.545439 0 32.682681 6.364522 45.411726 19.093566 12.729044 12.729044 19.093566 27.866286 19.093566 45.411725v152.920545c0 17.545439-6.364522 32.682681-19.093566 45.411725-12.729044 12.729044-27.866286 19.093566-45.411726 19.093566h-153.780614c-17.545439 0-32.854695-6.364522-45.927768-19.093566-13.073072-12.729044-19.609609-27.866286-19.609609-45.411725v-152.920545c0-17.545439 6.536536-32.682681 19.609609-45.411725 13.073072-12.729044 28.382328-19.093566 45.927768-19.093566H872.11154z" fill="#707070" p-id="27595"></path><path d="M473.72686 633.183941c17.545439 0 32.854695 6.364522 45.927768 19.093566s19.609609 27.866286 19.609609 45.411725v152.920545c0 17.545439-6.536536 32.682681-19.609609 45.411725-13.073072 12.729044-28.382328 19.093566-45.927768 19.093566H319.946246c-17.545439 0-32.682681-6.364522-45.411726-19.093566-12.729044-12.729044-19.093566-27.866286-19.093566-45.411725v-152.920545c0-17.545439 6.364522-32.682681 19.093566-45.411725 12.729044-12.729044 27.866286-19.093566 45.411726-19.093566h153.780614z" fill="#bfbfbf" p-id="27596"></path></svg>