<?xml version="1.0" standalone="no"?><!DOCTYPE svg PUBLIC "-//W3C//DTD SVG 1.1//EN" "http://www.w3.org/Graphics/SVG/1.1/DTD/svg11.dtd"><svg t="1520097921144" class="icon" style="" viewBox="0 0 1024 1024" version="1.1" xmlns="http://www.w3.org/2000/svg" p-id="56697" xmlns:xlink="http://www.w3.org/1999/xlink" width="200" height="200"><defs><style type="text/css"></style></defs><path d="M951.599 521.023c36.068 40.163 49.59 98.315 30.253 152.786-19.335 54.467-66.497 91.032-119.787 99.37 5.828 53.706-17.165 108.816-64.649 141.681-47.481 32.865-107.091 34.928-155.189 10.488-26.626 46.979-77.453 78.236-135.167 77.11-57.723-1.142-107.276-34.371-132.045-82.347-49.026 22.526-108.497 18.137-154.663-16.585-46.167-34.694-66.98-90.668-59.053-144.097-52.939-10.414-98.631-48.792-115.816-103.99-17.186-55.184-1.396-112.783 36.214-151.483-36.858-39.448-51.514-97.324-33.239-152.172 18.261-54.834 64.692-92.305 117.813-101.711-6.882-53.56 15.029-109.095 61.869-142.897 46.826-33.801 106.391-37.034 154.956-13.559 25.705-47.476 75.895-79.727 133.639-79.727 62.022 0 115.311 37.238 138.904 90.579 51.411-27.468 116.285-23.928 165.15 14.334 45.478 35.6 65.194 91.969 56.229 145.223 52.706 11.451 97.63 50.738 113.741 106.259 16.118 55.49-0.804 112.767-39.161 150.736M961.318 378.726c-15.103-52.143-57.249-89.030-106.663-99.793 8.403-50.022-10.083-102.983-52.748-136.432-45.831-35.908-106.668-39.257-154.883-13.442-22.129-50.108-72.107-85.079-130.268-85.079-54.146 0-101.228 30.276-125.331 74.885-45.539-22.056-101.41-19.028-145.325 12.725-43.937 31.739-64.478 83.91-58.029 134.239-49.823 8.833-93.351 44.009-110.493 95.538-17.135 51.513-3.386 105.892 31.175 142.926-35.271 36.36-50.086 90.462-33.955 142.284 16.111 51.849 58.965 87.901 108.614 97.701-7.437 50.181 12.081 102.732 55.382 135.349 43.293 32.601 99.063 36.74 145.061 15.564 23.227 45.076 69.686 76.29 123.825 77.341 54.124 1.068 101.79-28.287 126.771-72.412 45.107 22.947 101 21.016 145.537-9.859 44.546-30.861 66.096-82.637 60.633-133.082 49.984-7.841 94.199-42.169 112.341-93.33 18.129-51.161 5.457-105.804-28.38-143.526 35.988-35.658 51.849-89.453 36.735-141.595z" p-id="56698"></path><path d="M386.321 260.918c-62.727 0-114.301 51.575-114.301 114.301s51.575 114.3 114.301 114.3h114.302v-114.3c-1.395-62.727-51.576-114.301-114.302-114.301v0 0zM464.381 453.278h-79.453c-43.212 0-79.453-34.848-79.453-79.453 0-43.213 34.848-79.454 79.453-79.454 43.213 0 79.453 34.848 79.453 79.454v79.453zM762.681 375.219c0-62.727-51.575-114.301-114.302-114.301-62.726 0-114.301 51.575-114.301 114.301v114.3h114.301c64.119-1.393 114.302-51.574 114.302-114.3v0 0zM570.319 375.219c0-43.212 34.847-79.454 79.454-79.454 43.21 0 79.453 34.847 79.453 79.454 0 43.211-34.848 79.454-79.453 79.454h-79.454v-79.454zM272.020 637.274c0 62.729 51.575 114.303 114.301 114.303s114.302-51.574 114.302-114.303v-114.299h-114.302c-64.121 1.394-114.301 51.574-114.301 114.299v0 0zM464.381 637.274c0 43.214-34.848 79.455-79.453 79.455-43.212 0-79.453-34.848-79.453-79.455 0-43.211 34.848-79.452 79.453-79.452h79.453v79.452zM648.378 524.369h-114.301v114.302c0 62.724 51.575 114.3 114.301 114.3 62.727 0 114.302-51.576 114.302-114.3 0-62.73-50.183-114.302-114.302-114.302v0 0zM648.378 716.729c-43.212 0-79.453-34.848-79.453-79.455v-79.452h79.453c43.213 0 79.454 34.846 79.454 79.452 0 44.607-34.85 79.455-79.454 79.455v0 0zM648.378 716.729v0z" p-id="56699"></path></svg>