<?xml version="1.0" standalone="no"?><!DOCTYPE svg PUBLIC "-//W3C//DTD SVG 1.1//EN" "http://www.w3.org/Graphics/SVG/1.1/DTD/svg11.dtd"><svg t="1520097602636" class="icon" style="" viewBox="0 0 1024 1024" version="1.1" xmlns="http://www.w3.org/2000/svg" p-id="54035" xmlns:xlink="http://www.w3.org/1999/xlink" width="200" height="200"><defs><style type="text/css"></style></defs><path d="M514.708995 382.871252c-59.597884 0-108.359788 48.761905-108.359789 108.359789s48.761905 108.359788 108.359789 108.359788 108.359788-48.761905 108.359788-108.359788-48.761905-108.359788-108.359788-108.359789zM469.559083 484.007055c-21.671958 0-39.731922-18.059965-39.731923-39.731923 0-21.671958 18.059965-39.731922 39.731923-39.731922s39.731922 18.059965 39.731922 39.731922c0 23.477954-18.059965 39.731922-39.731922 39.731923zM437.051146 700.726631h144.479718v90.299824h-144.479718z" fill="#C0EAFF" p-id="54036"></path><path d="M511.097002 731.428571c-144.479718 0-261.869489-117.389771-261.869489-261.869488 0-41.537919 9.029982-81.269841 27.089947-117.389771 3.611993-9.029982 14.447972-12.641975 23.477954-7.223986s12.641975 14.447972 7.223986 23.477954c-16.253968 30.70194-23.477954 65.015873-23.477954 101.135803 0 124.613757 101.135802 225.749559 225.749559 225.749559S736.846561 594.17284 736.846561 469.559083s-101.135802-225.749559-225.749559-225.749559c-52.373898 0-102.941799 18.059965-142.673722 50.567901-7.223986 7.223986-19.865961 5.417989-25.28395-1.805996-7.223986-7.223986-5.417989-19.865961 1.805996-25.283951 46.955908-37.925926 106.553792-59.597884 166.151676-59.597884 144.479718 0 261.869489 117.389771 261.869488 261.869489s-117.389771 261.869489-261.869488 261.869488z" fill="#1F87DD" p-id="54037"></path><path d="M511.097002 617.650794c-72.239859 0-131.837743-59.597884-131.837743-131.837743s59.597884-131.837743 131.837743-131.837742 131.837743 59.597884 131.837742 131.837742-59.597884 131.837743-131.837742 131.837743z m0-225.749559c-52.373898 0-95.717813 43.343915-95.717813 95.717813s43.343915 95.717813 95.717813 95.717813 95.717813-43.343915 95.717813-95.717813-43.343915-95.717813-95.717813-95.717813z" fill="#1F87DD" p-id="54038"></path><path d="M511.097002 297.989418m-23.477954 0a23.477954 23.477954 0 1 0 46.955908 0 23.477954 23.477954 0 1 0-46.955908 0Z" fill="#1F87DD" p-id="54039"></path><path d="M583.336861 816.310406h-144.479718c-10.835979 0-18.059965-7.223986-18.059965-18.059965v-43.343915c0-10.835979 7.223986-18.059965 18.059965-18.059965s18.059965 7.223986 18.059965 18.059965v25.28395h108.359788v-74.045855c0-10.835979 7.223986-18.059965 18.059965-18.059965s18.059965 7.223986 18.059964 18.059965v92.10582c0 9.029982-7.223986 18.059965-18.059964 18.059965z" fill="#1F87DD" p-id="54040"></path><path d="M680.86067 816.310406H343.13933c-10.835979 0-18.059965-7.223986-18.059965-18.059965s7.223986-18.059965 18.059965-18.059965h337.72134c10.835979 0 18.059965 7.223986 18.059965 18.059965s-9.029982 18.059965-18.059965 18.059965z" fill="#1F87DD" p-id="54041"></path></svg>