<?xml version="1.0" standalone="no"?><!DOCTYPE svg PUBLIC "-//W3C//DTD SVG 1.1//EN" "http://www.w3.org/Graphics/SVG/1.1/DTD/svg11.dtd"><svg t="1520097677780" class="icon" style="" viewBox="0 0 1024 1024" version="1.1" xmlns="http://www.w3.org/2000/svg" p-id="54792" xmlns:xlink="http://www.w3.org/1999/xlink" width="200" height="200"><defs><style type="text/css"></style></defs><path d="M512 0C229.229714 0 0 229.229714 0 512s229.229714 512 512 512 512-229.229714 512-512S794.770286 0 512 0z m-24.956343 702.902857c0 14.431086-16.457143 22.674286-28.0064 14.0288l-120.32-89.965714-3.613257-2.581943a17.503086 17.503086 0 0 0-10.174171-3.262171H244.297143a17.5104 17.5104 0 0 1-17.554286-17.517715V420.395886a17.554286 17.554286 0 0 1 17.517714-17.554286h80.669258a17.495771 17.495771 0 0 0 10.174171-3.254857l3.613257-2.581943 120.32-89.965714c11.549257-8.638171 28.0064-0.402286 28.0064 14.0288z m91.428572-96.694857a14.628571 14.628571 0 1 1-17.393372-23.522743 81.027657 81.027657 0 0 0-2.816-132.388571 14.628571 14.628571 0 0 1 16.376686-24.246857 110.248229 110.248229 0 0 1 3.832686 180.150857z m58.792228 52.231314a14.628571 14.628571 0 1 1-19.3536-21.942857 158.676114 158.676114 0 0 0-3.766857-241.247086 14.628571 14.628571 0 1 1 18.666057-22.520685 187.918629 187.918629 0 0 1 4.4544 285.703314z m137.406172-35.364571a256.841143 256.841143 0 0 1-61.045029 84.509257 14.628571 14.628571 0 1 1-19.748571-21.569829 228.4032 228.4032 0 0 0-2.794058-339.536457 14.628571 14.628571 0 0 1 19.419429-21.884343 258.026057 258.026057 0 0 1 64.226743 298.496z" fill="#3D3D3D" p-id="54793"></path><path d="M459.037257 307.053714l-120.32 89.965715-3.613257 2.581942a17.495771 17.495771 0 0 1-10.174171 3.254858H244.297143a17.554286 17.554286 0 0 0-17.517714 17.554285v183.1936A17.5104 17.5104 0 0 0 244.297143 621.114514h80.632686a17.503086 17.503086 0 0 1 10.174171 3.262172l3.613257 2.581943 120.32 89.965714c11.549257 8.638171 28.0064 0.402286 28.0064-14.0288V321.097143c0-14.445714-16.457143-22.674286-28.0064-14.043429z" fill="#EA966C" p-id="54794"></path><path d="M574.676114 426.071771a14.628571 14.628571 0 0 0-16.376685 24.246858 81.027657 81.027657 0 0 1 2.816 132.388571 14.628571 14.628571 0 1 0 17.393371 23.522743 110.2848 110.2848 0 0 0-3.832686-180.150857z" fill="#F4AE92" p-id="54795"></path><path d="M632.846629 372.750629a14.628571 14.628571 0 1 0-18.666058 22.520685 158.676114 158.676114 0 0 1 3.766858 241.247086 14.628571 14.628571 0 0 0 19.3536 21.942857 187.918629 187.918629 0 0 0-4.4544-285.703314z" fill="#F7D1C4" p-id="54796"></path><path d="M710.480457 324.593371a14.628571 14.628571 0 0 0-19.419428 21.884343 228.395886 228.395886 0 0 1 2.794057 339.536457 14.628571 14.628571 0 0 0 19.748571 21.569829 257.660343 257.660343 0 0 0-3.145143-382.990629z" fill="#FFFFFF" p-id="54797"></path></svg>