<?xml version="1.0" standalone="no"?><!DOCTYPE svg PUBLIC "-//W3C//DTD SVG 1.1//EN" "http://www.w3.org/Graphics/SVG/1.1/DTD/svg11.dtd"><svg t="1521562533224" class="icon" style="" viewBox="0 0 1024 1024" version="1.1" xmlns="http://www.w3.org/2000/svg" p-id="38815" xmlns:xlink="http://www.w3.org/1999/xlink" width="200" height="200"><defs><style type="text/css"></style></defs><path d="M652.8 499.2v185.6H364.8V499.2h288m96-96H268.8v377.6h473.6V403.2h6.4zM268.8 83.2h96v217.6H268.8zM460.8 83.2h96v217.6H460.8zM652.8 83.2h96v217.6h-96z" fill="#FE8431" p-id="38816"></path><path d="M915.2 217.6c-25.6 0-51.2 19.2-51.2 44.8V896H147.2V262.4c0-25.6-19.2-44.8-51.2-44.8s-44.8 19.2-44.8 44.8V896c0 51.2 44.8 96 96 96h723.2c51.2 0 96-44.8 96-96V262.4c0-25.6-19.2-44.8-51.2-44.8z" fill="#507AEC" p-id="38817"></path></svg>