<?xml version="1.0" standalone="no"?><!DOCTYPE svg PUBLIC "-//W3C//DTD SVG 1.1//EN" "http://www.w3.org/Graphics/SVG/1.1/DTD/svg11.dtd"><svg t="1520995981740" class="icon" style="" viewBox="0 0 1024 1024" version="1.1" xmlns="http://www.w3.org/2000/svg" p-id="1957" xmlns:xlink="http://www.w3.org/1999/xlink" width="200" height="200"><defs><style type="text/css"></style></defs><path d="M943.104 143.36H80.896C36.352 143.36 0 179.712 0 224.256v575.488c0 44.544 36.352 80.896 80.896 80.896h861.696c44.544 0 80.896-36.352 80.896-80.896V224.256c0.512-44.544-35.84-80.896-80.384-80.896z m-402.432 562.688c0 21.504-17.408 38.912-38.912 38.912H159.744c-21.504 0-38.912-17.408-38.912-38.912V332.8c0-21.504 17.408-38.912 38.912-38.912H501.76c21.504 0 38.912 17.408 38.912 38.912v373.248z" fill="#FFEDCC" p-id="1958"></path><path d="M943.104 143.36H80.896C36.352 143.36 0 179.712 0 224.256v575.488c0 44.544 36.352 80.896 80.896 80.896h861.696c44.544 0 80.896-36.352 80.896-80.896V224.256c0.512-44.544-35.84-80.896-80.384-80.896z m59.904 656.384c0 33.28-27.136 59.904-59.904 59.904H80.896c-33.28 0-59.904-27.136-59.904-59.904V224.256c0-33.28 26.624-59.904 59.904-59.904h861.696c33.28 0 59.904 27.136 59.904 59.904v575.488z" fill="#FF8900" p-id="1959"></path><path d="M501.76 293.888H159.744c-21.504 0-38.912 17.408-38.912 38.912v373.248c0 21.504 17.408 38.912 38.912 38.912H501.76c21.504 0 38.912-17.408 38.912-38.912V332.8c0-21.504-17.408-38.912-38.912-38.912z m17.408 412.16c0 7.168-4.096 12.8-10.24 15.872-14.336-60.416-98.816-83.968-119.808-89.088-1.024-8.192-0.512-22.528 0.512-32.256 12.288-15.36 16.384-40.448 17.408-50.688 4.096-3.584 8.192-11.776 12.288-25.6 4.096-12.8 3.584-23.04-0.512-30.208-1.024-1.536-2.048-3.072-3.072-3.584 8.704-31.744 6.656-57.344-6.144-76.8-15.872-24.064-43.008-30.72-57.856-32.256-32.256-4.096-59.904-24.064-60.416-24.576-2.048-1.536-5.12-2.048-7.168-0.512-2.56 1.024-4.096 3.584-4.096 6.144l-0.512 27.136c-22.528 10.752-52.224 36.864-35.328 101.376-1.024 1.024-2.048 2.048-3.072 3.584-4.096 7.168-4.096 16.896-0.512 30.208 4.096 13.824 7.68 22.016 12.288 25.6 1.024 10.24 5.632 35.328 17.408 50.688 1.024 9.216 1.536 23.552 0.512 32.256-20.992 5.12-105.472 28.672-119.808 89.088-5.632-3.072-10.24-8.704-10.24-15.872V332.8c0-9.728 7.68-17.408 17.408-17.408H501.76c9.728 0 17.408 7.68 17.408 17.408v373.248zM635.904 335.36h143.36V363.52h-143.36zM635.904 420.352h261.12v28.16h-261.12zM635.904 557.568h60.928v28.16h-60.928zM731.136 557.568h81.92v28.16h-81.92zM635.904 642.56h261.12v28.16h-261.12z" fill="#FF8900" p-id="1960"></path></svg>