<?xml version="1.0" standalone="no"?><!DOCTYPE svg PUBLIC "-//W3C//DTD SVG 1.1//EN" "http://www.w3.org/Graphics/SVG/1.1/DTD/svg11.dtd"><svg t="1520075788372" class="icon" style="" viewBox="0 0 1024 1024" version="1.1" xmlns="http://www.w3.org/2000/svg" p-id="2435" xmlns:xlink="http://www.w3.org/1999/xlink" width="200" height="200"><defs><style type="text/css"></style></defs><path d="M514.389 1005.609c-269.967 0-489.595-219.642-489.595-489.595s219.628-489.609 489.595-489.609 489.595 219.642 489.595 489.595-219.628 489.609-489.595 489.609zM514.389 67.365c-247.385 0-448.635 201.25-448.635 448.635s201.264 448.635 448.635 448.635 448.635-201.25 448.635-448.635-201.25-448.635-448.635-448.635z" p-id="2436" fill="#ffffff"></path><path d="M245.993 621.568c41.014-8.138 86.112-18.036 135.264-29.71-0.355 14.145-0.177 26.692 0.532 37.655-40.318 8.493-82.93 18.924-127.836 31.294l-7.959-39.239zM324.499 360.066l-12.206 145.872h53.575l13.79-178.763h-120.409v-36.073h160.727l-16.438 214.821h33.423c-2.471 74.615-4.779 135.973-6.895 184.061-1.065 53.754-24.399 80.623-70.014 80.623-19.101 0-41.547-0.532-67.365-1.598-1.775-13.079-4.068-27.047-6.895-41.902 25.463 3.181 48.087 4.779 67.898 4.779 24.753 0 37.834-15.033 39.253-45.084 2.116-38.898 3.891-87.163 5.311-144.807h-127.303l16.971-181.945h36.577zM633.747 261.407l-10.076 16.971c42.789 76.035 95.833 131.373 159.13 166.025-11.318 14.145-20.685 26.528-28.112 37.137-62.231-45.971-112.981-101.308-152.235-166.025-36.073 64.006-86.466 121.474-151.17 172.387-6.363-9.188-15.21-20.33-26.528-33.423 70.369-48.797 124.3-113.158 161.778-193.086h47.213zM441.194 718.111h191.488c25.463-62.942 48.087-128.723 67.898-197.318l40.318 12.725c-20.862 63.297-42.967 124.832-66.301 184.593h93.361v36.605h-326.765v-36.605zM468.241 548.372l37.137-11.674c17.326 50.217 31.826 94.945 43.5 134.198l-39.253 13.258c-11.674-45.261-25.463-90.522-41.383-135.782zM495.302 456.608h218.535v36.605h-218.535v-36.605zM559.473 524.493l37.655-10.076c14.854 53.043 27.047 99.369 36.605 138.977l-38.721 11.141c-10.254-48.797-22.091-95.477-35.539-140.043z" p-id="2437" fill="#ffffff"></path></svg>