<?xml version="1.0" standalone="no"?><!DOCTYPE svg PUBLIC "-//W3C//DTD SVG 1.1//EN" "http://www.w3.org/Graphics/SVG/1.1/DTD/svg11.dtd"><svg t="1520612753853" class="icon" style="" viewBox="0 0 1024 1024" version="1.1" xmlns="http://www.w3.org/2000/svg" p-id="2458" xmlns:xlink="http://www.w3.org/1999/xlink" width="200" height="200"><defs><style type="text/css"></style></defs><path d="M512 512m-512 0a512 512 0 1 0 1024 0 512 512 0 1 0-1024 0Z" fill="#FF4848" p-id="2459"></path><path d="M888 948c0 35.2-28.8 64-64 64H203.2c-35.2 0-64-28.8-64-64V110.4c0-35.2 28.8-64 64-64H824c35.2 0 64 28.8 64 64v837.6z" fill="#FFFFFF" p-id="2460"></path><path d="M824 968H203.2c-35.2 0-64-28.8-64-64v48c0 35.2 28.8 64 64 64H824c35.2 0 64-28.8 64-64v-48c0 35.2-28.8 64-64 64z" fill="#EAEAEA" p-id="2461"></path><path d="M199.2 130.4h629.6v764H199.2z" fill="#FBD000" p-id="2462"></path><path d="M824 1024H208c-40 0-72-32-72-72V112c0-40 32-72 72-72h616c40 0 72 32 72 72v840c0 40-32 72-72 72zM208 56c-31.2 0-56 24.8-56 56v840c0 31.2 24.8 56 56 56h616c31.2 0 56-24.8 56-56V112c0-31.2-24.8-56-56-56H208z" fill="#663210" p-id="2463"></path><path d="M824 896H200c-4.8 0-8-3.2-8-8V128c0-4.8 3.2-8 8-8h624c4.8 0 8 3.2 8 8v760c0 4.8-3.2 8-8 8z m-616-16h608V136H208v744zM548.8 96h-64.8c-4.8 0-8-3.2-8-8s3.2-8 8-8h64.8c4.8 0 8 3.2 8 8s-4 8-8 8zM451.2 96h-23.2c-4.8 0-8-3.2-8-8s3.2-8 8-8h23.2c4.8 0 8 3.2 8 8s-4 8-8 8z" fill="#663210" p-id="2464"></path><path d="M488 956a28 28 0 1 0 56 0 28 28 0 1 0-56 0Z" fill="#D4D6D6" p-id="2465"></path><path d="M310.4 388c-2.4 0-4-0.8-5.6-2.4-3.2-3.2-3.2-8 0-11.2l124-124c3.2-3.2 8-3.2 11.2 0 3.2 3.2 3.2 8 0 11.2L316 385.6c-1.6 1.6-3.2 2.4-5.6 2.4zM301.6 554.4c-2.4 0-4-0.8-5.6-2.4-3.2-3.2-3.2-8 0-11.2l336-336c3.2-3.2 8-3.2 11.2 0 3.2 3.2 3.2 8 0 11.2l-336 336c-1.6 1.6-4 2.4-5.6 2.4zM632 389.6c-2.4 0-4-0.8-5.6-2.4-3.2-3.2-3.2-8 0-11.2l77.6-77.6c3.2-3.2 8-3.2 11.2 0 3.2 3.2 3.2 8 0 11.2l-77.6 77.6c-1.6 1.6-3.2 2.4-5.6 2.4zM330.4 690.4c-2.4 0-4-0.8-5.6-2.4-3.2-3.2-3.2-8 0-11.2l172-172c3.2-3.2 8-3.2 11.2 0 3.2 3.2 3.2 8 0 11.2L336 688c-1.6 1.6-3.2 2.4-5.6 2.4zM474.4 706.4c-2.4 0-4-0.8-5.6-2.4-3.2-3.2-3.2-8 0-11.2l193.6-193.6c3.2-3.2 8-3.2 11.2 0 3.2 3.2 3.2 8 0 11.2L480 704c-1.6 1.6-3.2 2.4-5.6 2.4zM541.6 786.4c-2.4 0-4-0.8-5.6-2.4-3.2-3.2-3.2-8 0-11.2l136-136c3.2-3.2 8-3.2 11.2 0 3.2 3.2 3.2 8 0 11.2l-136 136c-1.6 1.6-4 2.4-5.6 2.4zM645.6 446.4c0-3.2-3.2-6.4-8-7.2l-38.4-7.2c-4-0.8-8.8-4.8-9.6-9.6l-6.4-38.4c-0.8-4-4-8-7.2-8s-6.4 3.2-7.2 8l-6.4 38.4c-0.8 4-4.8 8.8-9.6 9.6l-38.4 6.4c-4 0.8-8 4-8 7.2s3.2 6.4 8 7.2l37.6 4.8c4 0.8 8.8 4.8 9.6 8.8l7.2 40c0.8 4 4 8 7.2 8s6.4-3.2 7.2-8l7.2-40.8c0.8-4 4.8-8 9.6-8.8l37.6-4.8c4 0.8 8-2.4 8-5.6zM320 264c-17.6 0-32-14.4-32-32s14.4-32 32-32 32 14.4 32 32-14.4 32-32 32z m0-48.8c-9.6 0-16.8 8-16.8 16.8 0 9.6 8 16.8 16.8 16.8 9.6 0 16.8-8 16.8-16.8 0-9.6-7.2-16.8-16.8-16.8zM712 784c-17.6 0-32-14.4-32-32s14.4-32 32-32 32 14.4 32 32-14.4 32-32 32z m0-48.8c-9.6 0-16.8 8-16.8 16.8 0 9.6 8 16.8 16.8 16.8 9.6 0 16.8-8 16.8-16.8 0-9.6-7.2-16.8-16.8-16.8zM344.8 784.8c0-3.2-3.2-6.4-8-7.2l-15.2-1.6c-4-0.8-8.8-4.8-8.8-8.8l-2.4-15.2c-0.8-4-4-8-7.2-8s-6.4 3.2-7.2 8l-2.4 15.2c-0.8 4-4.8 8.8-8.8 8.8l-15.2 2.4c-4 0.8-8 4-8 7.2s3.2 6.4 8 7.2l15.2 2.4c4 0.8 8.8 4.8 8.8 8.8l2.4 15.2c0.8 4 4 8 7.2 8s6.4-3.2 7.2-8l2.4-16.8c0.8-4 4.8-8 8.8-8.8l14.4-0.8c4.8-1.6 8.8-4.8 8.8-8z" fill="#FFFFFF" p-id="2466"></path><path d="M856 824c-4.8 0-8-3.2-8-8V637.6c0-4.8 3.2-8 8-8s8 3.2 8 8V816c0 4.8-3.2 8-8 8zM856 554.4c-4.8 0-8-3.2-8-8v-416c0-4.8 3.2-8 8-8s8 3.2 8 8v416c0 4.8-3.2 8-8 8z" fill="#0C508E" p-id="2467"></path></svg>