<?xml version="1.0" standalone="no"?><!DOCTYPE svg PUBLIC "-//W3C//DTD SVG 1.1//EN" "http://www.w3.org/Graphics/SVG/1.1/DTD/svg11.dtd"><svg t="1521561578889" class="icon" style="" viewBox="0 0 1024 1024" version="1.1" xmlns="http://www.w3.org/2000/svg" p-id="41669" xmlns:xlink="http://www.w3.org/1999/xlink" width="200" height="200"><defs><style type="text/css"></style></defs><path d="M544 608m-160 0a160 160 0 1 0 320 0 160 160 0 1 0-320 0Z" fill="#95EAFF" p-id="41670"></path><path d="M848 272H189.168a16 16 0 0 0 0 32H848a16 16 0 0 0 0-32zM512 352c-141.392 0-256 114.608-256 256s114.608 256 256 256 256-114.608 256-256-114.608-256-256-256z m0 480c-123.712 0-224-100.288-224-224s100.288-224 224-224 224 100.288 224 224-100.288 224-224 224z" fill="#49A3FE" p-id="41671"></path><path d="M736 192m-48 0a48 48 0 1 0 96 0 48 48 0 1 0-96 0Z" fill="#49A3FE" p-id="41672"></path><path d="M576 192m-16 0a16 16 0 1 0 32 0 16 16 0 1 0-32 0Z" fill="#49A3FE" p-id="41673"></path><path d="M336 608c0 97.2 78.8 176 176 176s176-78.8 176-176-78.8-176-176-176-176 78.8-176 176z m320 0a143.232 143.232 0 0 1-37.104 96.24A214.784 214.784 0 0 1 592 600c0-33.088 7.536-65.024 21.6-94.032A143.6 143.6 0 0 1 656 608z m-144-144a143.04 143.04 0 0 1 75.872 21.776A246.992 246.992 0 0 0 560 600c0 44.992 12.096 88.192 34.432 125.968A143.232 143.232 0 0 1 512 752c-79.536 0-144-64.464-144-144s64.464-144 144-144zM247.296 208h217.296a16 16 0 0 0 0-32H247.296a16 16 0 0 0 0 32z" fill="#0F13AE" p-id="41674"></path><path d="M528 192m-16 0a16 16 0 1 0 32 0 16 16 0 1 0-32 0Z" fill="#0F13AE" p-id="41675"></path><path d="M832.048 80H191.952C174.288 80 160 94.24 160 111.872v800.24c0 17.568 14.336 31.888 31.952 31.888h640.096C849.712 944 864 929.76 864 912.128V111.872A31.968 31.968 0 0 0 832.048 80zM832 912.128C832 912.064 191.952 912 191.952 912 192 912 192 111.872 192 111.872 192 111.936 832.048 112 832.048 112 832 112 832 912.128 832 912.128z" fill="#0F13AE" p-id="41676"></path></svg>