<?xml version="1.0" standalone="no"?><!DOCTYPE svg PUBLIC "-//W3C//DTD SVG 1.1//EN" "http://www.w3.org/Graphics/SVG/1.1/DTD/svg11.dtd"><svg t="1520473776987" class="icon" style="" viewBox="0 0 1024 1024" version="1.1" xmlns="http://www.w3.org/2000/svg" p-id="2855" xmlns:xlink="http://www.w3.org/1999/xlink" width="200" height="200"><defs><style type="text/css"></style></defs><path d="M844.8 0H198.4c-70.4 0-128 57.6-128 128v896H128l121.6-89.6c6.4-6.4 19.2-6.4 25.6 0L384 1011.2c6.4 6.4 19.2 6.4 25.6 0l108.8-76.8c6.4-6.4 19.2-6.4 25.6 0l108.8 76.8c6.4 6.4 19.2 6.4 25.6 0l108.8-76.8c6.4-6.4 19.2-6.4 25.6 0l121.6 89.6h57.6V128c-19.2-70.4-76.8-128-147.2-128z m-192 499.2l25.6 140.8c0 19.2-12.8 32-25.6 19.2l-121.6-64H512l-121.6 64c-12.8 6.4-32-6.4-25.6-19.2l25.6-128c0-6.4 0-12.8-6.4-19.2L281.6 396.8c-12.8-12.8-6.4-32 12.8-32l134.4-19.2c6.4 0 12.8-6.4 12.8-12.8l57.6-121.6c6.4-12.8 25.6-12.8 38.4 0l57.6 121.6c0 6.4 6.4 12.8 12.8 12.8l134.4 19.2c19.2 0 25.6 25.6 12.8 32l-102.4 102.4z" fill="#1296db" p-id="2856"></path></svg>