<?xml version="1.0" standalone="no"?><!DOCTYPE svg PUBLIC "-//W3C//DTD SVG 1.1//EN" "http://www.w3.org/Graphics/SVG/1.1/DTD/svg11.dtd"><svg t="1523590830494" class="icon" style="" viewBox="0 0 1024 1024" version="1.1" xmlns="http://www.w3.org/2000/svg" p-id="7129" xmlns:xlink="http://www.w3.org/1999/xlink" width="200" height="200"><defs><style type="text/css"></style></defs><path d="M512 599.9c-90.4 0-164-73.6-164-164s73.6-164 164-164 164 73.6 164 164-73.5 164-164 164z m0-252.3c-48.7 0-88.3 39.6-88.3 88.3s39.6 88.3 88.3 88.3 88.3-39.6 88.3-88.3-39.6-88.3-88.3-88.3z" fill="#29CCB6" p-id="7130"></path><path d="M512 991c-11.9 0-23.7-4.2-33.3-12.5-37.9-33.2-370.6-330.6-370.6-542.6 0-222.7 181.2-403.8 403.8-403.8s403.8 181.1 403.8 403.8c0 211.9-332.6 509.4-370.6 542.6-9.3 8.3-21.2 12.5-33.1 12.5z m0-858c-167 0-302.9 135.9-302.9 302.9 0 115.2 173.8 316.3 302.8 436.5 107.7-100.9 303-309.9 303-436.5 0-167-135.8-302.9-302.9-302.9z" fill="#4585F5" p-id="7131"></path></svg>