<?xml version="1.0" standalone="no"?><!DOCTYPE svg PUBLIC "-//W3C//DTD SVG 1.1//EN" "http://www.w3.org/Graphics/SVG/1.1/DTD/svg11.dtd"><svg t="1519967777651" class="icon" style="" viewBox="0 0 1024 1024" version="1.1" xmlns="http://www.w3.org/2000/svg" p-id="5964" xmlns:xlink="http://www.w3.org/1999/xlink" width="200" height="200"><defs><style type="text/css"></style></defs><path d="M169.002 406.318c-57.562 0-104.228 46.646-104.228 104.228 0 57.563 46.666 104.209 104.228 104.209s104.228-46.646 104.228-104.209c0-57.582-46.667-104.228-104.228-104.228zM501.431 406.318c-57.562 0-104.228 46.646-104.228 104.228 0 57.563 46.667 104.209 104.228 104.209s104.228-46.646 104.228-104.209c0-57.582-46.666-104.228-104.228-104.228zM854.638 406.318c-57.563 0-104.23 46.646-104.23 104.228 0 57.563 46.667 104.209 104.23 104.209s104.228-46.646 104.228-104.209c-0.001-57.582-46.666-104.228-104.228-104.228z" p-id="5965"></path></svg>