<?xml version="1.0" standalone="no"?><!DOCTYPE svg PUBLIC "-//W3C//DTD SVG 1.1//EN" "http://www.w3.org/Graphics/SVG/1.1/DTD/svg11.dtd"><svg t="1519972792892" class="icon" style="" viewBox="0 0 1024 1024" version="1.1" xmlns="http://www.w3.org/2000/svg" p-id="3613" xmlns:xlink="http://www.w3.org/1999/xlink" width="200" height="200"><defs><style type="text/css"></style></defs><path d="M535.395431 2.19957c-174.765866-3.999219-329.535638 146.771334-325.536419 319.537591 0 63.987502 44.991213 168.767038 111.778168 275.746143 67.986721 106.779145 117.776997 177.76528 173.766062 252.750635 9.998047 12.997461 22.995509 19.996095 39.992189 19.996094 15.996876 0 30.993946-7.998438 39.992189-19.996094 55.989065-74.985354 106.779145-145.771529 173.766061-252.750635 66.986917-106.779145 111.778168-211.758641 111.778168-275.746143 3.999219-172.766257-148.770943-323.536809-325.536418-319.537591z m200.760788 498.502637c-42.991603 80.984183-102.779926 171.766452-177.76528 274.746338-4.999024 6.998633-13.997266 10.997852-22.995508 10.997852-7.998438 0-17.996485-2.999414-21.995704-10.997852-149.770748-203.960164-243.552431-377.726225-243.552432-453.511423 0-71.98594 25.994923-133.773872 77.984769-184.763914s114.777583-76.984964 187.763328-76.984964c72.985745 0 135.773482 25.994923 187.763327 76.984964C776.148409 187.963288 802.143331 249.951181 802.143331 321.937122c0 38.792423-21.995704 97.780902-65.987112 178.765085z" fill="" p-id="3614"></path><path d="M933.917594 839.236087c-14.997071-14.997071-34.993165-26.994728-59.988283-35.99297s-53.989455-12.997461-84.983402-12.997462v0.999805h-1.199766c-11.997657-0.999805-20.995899 7.998438-21.995704 19.996094 0 11.997657 8.998243 21.995704 20.9959 21.995704l26.794766 0.799844c54.789299 4.399141 81.384105 26.194884 90.182387 35.193126 8.998243 8.998243 12.997461 16.99668 12.997461 24.995119 0 18.99629-31.993751 41.991798-100.780316 58.988478-70.986136 17.996485-172.766257 28.994337-282.544816 28.994337-114.777583 0-208.759227-10.198008-283.54462-29.194298-70.986136-18.99629-102.779926-41.991798-102.779926-58.988478 0-14.997071 5.998828-26.994728 17.996485-34.993166 15.796915-9.798086 41.391916-17.396602 75.785198-20.396016 1.599688 0.399922 3.399336 0.599883 5.198985 0.599883l31.993751-1.99961c11.997657-0.999805 20.995899-10.997852 19.996095-22.995508 0-10.997852-10.997852-19.996095-21.995704-19.996095v-0.199961c-61.987893 0.999805-106.779145 10.997852-134.773677 28.994337-25.195079 16.99668-37.192736 39.992189-37.192736 70.986136 0 23.995313 14.997071 45.991017 41.991798 62.987697 21.995704 14.997071 52.98965 26.994728 92.781879 36.992775 74.985354 19.996095 180.764694 29.994142 294.542472 29.994142 114.777583 0 218.557313-9.998047 292.542863-29.794181 39.992189-9.998047 70.986136-21.995704 92.781878-36.992775 26.994728-16.99668 40.991994-38.992384 40.991994-62.987697 0.199961-19.996095-8.798282-37.99258-25.794962-54.98926zM448.012498 334.3347c0-46.390939 37.592658-83.983597 83.983597-83.983597s83.983597 37.592658 83.983596 83.983597-37.592658 83.983597-83.983596 83.983597c-46.390939-0.199961-83.983597-37.592658-83.983597-83.983597" fill="" p-id="3615"></path></svg>