<?xml version="1.0" standalone="no"?><!DOCTYPE svg PUBLIC "-//W3C//DTD SVG 1.1//EN" "http://www.w3.org/Graphics/SVG/1.1/DTD/svg11.dtd"><svg t="1519972548512" class="icon" style="" viewBox="0 0 1024 1024" version="1.1" xmlns="http://www.w3.org/2000/svg" p-id="2620" xmlns:xlink="http://www.w3.org/1999/xlink" width="200" height="200"><defs><style type="text/css"></style></defs><path d="M685.734656 322.315862 537.679637 117.524311c-5.539244-7.798313-13.991514-12.0948-22.692614-12.400592-0.109925 0-0.228845 0-0.337771 0-0.286806 0-0.565617 0-0.819444 0-0.252829 0-0.510654 0-0.76648 0-0.141904 0-0.251829 0-0.362754 0.024983-8.734078 0.310789-17.211331 4.635857-22.715599 12.461551L341.67233 323.55702c-9.552523 13.592184-6.612916 32.523349 6.556555 42.382065 13.194454 9.834332 31.562001 6.812381 41.139907-6.779404l124.628702-173.174588 124.294528 171.958412c9.552523 13.476263 27.888092 16.472831 40.997204 6.638499C692.396139 354.78145 695.253202 335.849686 685.734656 322.315862L685.734656 322.315862zM774.878017 904.374826c0.196867-0.138906 0.420715-0.310789 0.620579-0.452693 0.109925-0.079946 0.196867-0.167886 0.307791-0.225847 6.838364-5.392344 11.163431-13.870596 11.020528-23.4509l-1.104251-253.783335c-0.251829-16.613736-13.785653-30.20652-30.201324-30.42837-16.44485-0.197866-29.559958 13.052151-29.302133 29.664887l0.937364 213.352747-201.631694-66.060011c-15.64839-5.311399-32.236544 3.077913-37.069867 18.70232-4.802744 15.652388 3.985298 32.635873 19.637686 37.978251l240.167566 78.660468c9.043868 3.079912 18.423509 1.551948 25.657604-3.306758 0.078946-0.059959 0.193869-0.112923 0.278811-0.198865C774.419328 904.685615 774.650171 904.543711 774.878017 904.374826L774.878017 904.374826zM935.134163 411.062492c-0.024983-0.112524-0.053963-0.199864-0.080945-0.307392-0.083943-0.255827-0.170884-0.537635-0.257825-0.794861-0.083943-0.251829-0.164888-0.479675-0.254827-0.732104-0.049966-0.111924-0.084942-0.227846-0.138906-0.36835-3.025948-8.195443-9.746392-14.916886-18.903184-17.714989l-241.691533-77.388331c-15.879234-4.892683-32.971645 3.758452-38.283844 19.294918-5.285416 15.596426 3.277778 32.126618 19.156012 37.013905l203.206626 65.043301-125.139755 171.320844c-9.885298 13.253014-7.034231 31.617563 6.330708 41.024186 13.39192 9.41062 32.265124 6.274746 42.1822-6.949288l149.016567-204.067043C936.069329 428.809059 937.51255 419.426421 935.134163 411.062492L935.134163 411.062492zM539.996866 791.635663c-4.835721-15.620409-21.478438-23.955758-37.102644-18.617377l-201.484394 66.537687 0.454692-213.350948c0.224248-16.614735-12.912645-29.833773-29.361093-29.579945-16.414871 0.25083-29.920114 13.901575-30.11858 30.514311l-0.480674 253.785334c-0.140904 9.576507 4.209546 18.024779 11.07649 23.420121 0.086941 0.08894 0.198465 0.140904 0.284807 0.227846 0.195467 0.170884 0.423113 0.311789 0.621579 0.479675 0.223449 0.170884 0.450694 0.311789 0.645562 0.452693 0.086341 0.057961 0.198465 0.140904 0.286206 0.197866 7.229099 4.833723 16.583756 6.32771 25.656605 3.221816l239.967702-79.228083C536.061534 824.276333 544.855572 807.263867 539.996866 791.635663L539.996866 791.635663zM391.851709 333.333392c-5.338381-15.537466-22.461171-24.154024-38.341804-19.212374L111.989655 392.076564c-9.155792 2.827083-15.851653 9.577506-18.848221 17.771951-0.054963 0.111924-0.083343 0.228445-0.140904 0.340769-0.082944 0.251829-0.165288 0.480075-0.252429 0.731904-0.087541 0.256226-0.170285 0.509654-0.253228 0.793862-0.028581 0.111924-0.056961 0.223848-0.086341 0.340369-2.346809 8.360332-0.873408 17.738973 4.862703 25.371198l149.497241 203.727273c9.94126 13.196053 28.847441 16.273966 42.208183 6.838364 13.368336-9.437601 16.162042-27.83113 6.244766-41.053965l-125.536087-171.039635 203.070318-65.521976C388.632491 365.48899 397.167105 348.904435 391.851709 333.333392L391.851709 333.333392z" p-id="2621"></path></svg>