<?xml version="1.0" standalone="no"?><!DOCTYPE svg PUBLIC "-//W3C//DTD SVG 1.1//EN" "http://www.w3.org/Graphics/SVG/1.1/DTD/svg11.dtd"><svg t="1522040558759" class="icon" style="" viewBox="0 0 1024 1024" version="1.1" xmlns="http://www.w3.org/2000/svg" p-id="4882" xmlns:xlink="http://www.w3.org/1999/xlink" width="200" height="200"><defs><style type="text/css"></style></defs><path d="M722.804364 301.521455c-82.618182-82.618182-181.015273 181.015273-181.015273 181.015273S805.422545 384.139636 722.804364 301.521455z" p-id="4883"></path><path d="M1024 512c0-282.763636-229.236364-512-512-512C229.236364 0 0 229.236364 0 512c0 282.763636 229.236364 512 512 512C794.763636 1024 1024 794.763636 1024 512zM740.538182 811.892364c0 0-110.126545-67.397818-124.276364-138.24C607.138909 628.130909 535.272727 558.545455 535.272727 558.545455l46.545455-23.272727c0 0 69.818182 58.088727 83.968 117.341091 14.149818 59.252364 113.989818 104.215273 113.989818 104.215273l-61.021091 0L740.538182 811.892364zM512 535.272727c-12.846545 0-23.272727-10.426182-23.272727-23.272727s10.426182-23.272727 23.272727-23.272727c12.846545 0 23.272727 10.426182 23.272727 23.272727S524.846545 535.272727 512 535.272727zM930.909091 488.727273l0 46.545455-256 0 69.818182-46.545455L930.909091 488.727273zM755.432727 268.334545c135.028364 135.028364-131.397818 230.632727-131.397818 230.632727l-82.292364-16.477091-16.430545-82.292364C525.312 400.244364 620.404364 133.306182 755.432727 268.334545zM488.727273 93.090909l46.545455 0 0 162.909091-23.272727 46.545455-23.272727-46.545455L488.727273 93.090909zM268.334545 268.567273c135.028364-135.028364 230.632727 131.397818 230.632727 131.397818l-16.477091 82.292364-82.292364 16.477091C400.244364 498.688 133.306182 403.595636 268.334545 268.567273zM93.090909 535.272727l0-46.545455 186.181818 0 69.818182 46.545455L93.090909 535.272727zM292.398545 811.892364l21.736727-55.109818L253.160727 756.782545c0 0 99.886545-44.962909 113.989818-104.215273C381.300364 593.361455 451.118545 535.272727 451.118545 535.272727l46.545455 23.272727c0 0-71.866182 69.585455-80.942545 115.106909C402.525091 744.494545 292.398545 811.892364 292.398545 811.892364zM488.727273 674.909091l23.272727-46.545455 23.272727 46.545455L535.272727 930.909091l-46.545455 0L488.727273 674.909091z" p-id="4884"></path><path d="M301.521455 301.195636c-82.618182 82.618182 181.015273 181.015273 181.015273 181.015273S384.139636 218.577455 301.521455 301.195636z" p-id="4885"></path></svg>