<?xml version="1.0" standalone="no"?><!DOCTYPE svg PUBLIC "-//W3C//DTD SVG 1.1//EN" "http://www.w3.org/Graphics/SVG/1.1/DTD/svg11.dtd"><svg t="1523889586956" class="icon" style="" viewBox="0 0 1024 1024" version="1.1" xmlns="http://www.w3.org/2000/svg" p-id="1989" xmlns:xlink="http://www.w3.org/1999/xlink" width="200" height="200"><defs><style type="text/css"></style></defs><path d="M512.007163 59.488883c-249.919003 0-452.519304 202.599278-452.519304 452.519304 0 249.89956 202.601324 452.501908 452.519304 452.501908 249.920026 0 452.503954-202.602348 452.503954-452.501908C964.511117 262.08816 761.928213 59.488883 512.007163 59.488883zM512.007163 926.801261c-229.093698 0-414.810471-185.718819-414.810471-414.793074 0-229.095745 185.716772-414.811494 414.810471-414.811494S926.802284 282.912441 926.802284 512.008186C926.802284 741.083465 741.100862 926.801261 512.007163 926.801261z" p-id="1990"></path><path d="M660.721183 267.479961c-37.047778-18.813484-87.082334-56.625672-116.633371 24.249287-29.579689 80.905658 1.2689 90.430592 39.429011 109.875456 26.729781 13.56597 1.908466 78.784344-27.14115 137.631614-29.090549 58.843176-65.666582 118.02302-92.37999 104.513332-38.20002-19.435655-64.188928-38.797631-110.286826 33.680077-46.091758 72.491011 13.644765 90.51962 50.675146 109.342314 42.705638 21.739117 151.84022-48.886407 230.246965-207.710692C713.028503 420.205341 703.387935 289.216008 660.721183 267.479961z" p-id="1991"></path></svg>