<?xml version="1.0" standalone="no"?><!DOCTYPE svg PUBLIC "-//W3C//DTD SVG 1.1//EN" "http://www.w3.org/Graphics/SVG/1.1/DTD/svg11.dtd"><svg t="1519975071703" class="icon" style="" viewBox="0 0 1029 1024" version="1.1" xmlns="http://www.w3.org/2000/svg" p-id="4303" xmlns:xlink="http://www.w3.org/1999/xlink" width="200.9765625" height="200"><defs><style type="text/css"></style></defs><path d="M517.696 1024c-282.304 0-512-229.76-512-512 0-282.304 229.696-512 512-512 282.368 0 512 229.696 512 512 0 282.24-229.632 512-512 512z m0-975.232C262.336 48.768 54.528 256.576 54.528 512c0 255.36 207.808 463.232 463.168 463.232 255.424 0 463.168-207.872 463.168-463.232 0-255.424-207.744-463.232-463.168-463.232z" fill="#4D4D4D" p-id="4304"></path><path d="M517.696 828.864a24.32 24.32 0 0 1-24.32-24.384v-24.384c0-13.504 10.944-24.256 24.32-24.256a24.32 24.32 0 0 1 24.384 24.256v24.384a24.32 24.32 0 0 1-24.384 24.384zM521.216 693.12a24.32 24.32 0 0 1-24.384-24.384c0-51.264 52.608-86.976 116.096-125.248 57.28-34.368 85.568-101.504 72.064-170.944-11.776-60.16-67.072-113.024-131.776-125.632a177.28 177.28 0 0 0-146.688 38.144c-37.824 31.04-59.456 74.88-59.456 120.064v33.664a24.32 24.32 0 1 1-48.768 0V405.12c0-59.84 28.032-117.312 77.184-157.696a225.728 225.728 0 0 1 187.136-48.32c84.608 16.384 154.624 83.968 170.176 164.096 17.408 89.728-19.776 176.96-94.72 222.144-44.8 26.88-92.48 57.728-92.48 83.392a24.448 24.448 0 0 1-24.384 24.384z" fill="#4D4D4D" p-id="4305"></path></svg>