<?xml version="1.0" standalone="no"?><!DOCTYPE svg PUBLIC "-//W3C//DTD SVG 1.1//EN" "http://www.w3.org/Graphics/SVG/1.1/DTD/svg11.dtd"><svg t="1519964834005" class="icon" style="" viewBox="0 0 1024 1024" version="1.1" xmlns="http://www.w3.org/2000/svg" p-id="1465" xmlns:xlink="http://www.w3.org/1999/xlink" width="200" height="200"><defs><style type="text/css"></style></defs><path d="M390.4 1024c-6.4 0-12.8 0-19.2-6.4-6.4-6.4-6.4-25.6 0-32L832 531.2C832 524.8 838.4 518.4 838.4 512s0-12.8-6.4-19.2L377.6 44.8c-6.4-6.4-6.4-25.6 0-32C384 0 403.2 0 409.6 6.4l454.4 454.4c12.8 12.8 19.2 32 19.2 51.2s-6.4 38.4-19.2 51.2l-454.4 454.4C403.2 1024 396.8 1024 390.4 1024z" p-id="1466"></path></svg>