<?xml version="1.0" standalone="no"?><!DOCTYPE svg PUBLIC "-//W3C//DTD SVG 1.1//EN" "http://www.w3.org/Graphics/SVG/1.1/DTD/svg11.dtd"><svg t="1520341010402" class="icon" style="" viewBox="0 0 1024 1024" version="1.1" xmlns="http://www.w3.org/2000/svg" p-id="2822" xmlns:xlink="http://www.w3.org/1999/xlink" width="200" height="200"><defs><style type="text/css"></style></defs><path d="M866.868263 146.579403c-49.545416-51.022047-114.953102-80.284511-179.454138-80.284511-51.860135 0-99.106182 19.243273-133.036969 54.185087L99.704816 588.708056c-6.420223 6.610558-10.1952 15.343453-10.614755 24.549116L75.133188 919.829476c-0.483001 10.601452 3.52529 20.915355 11.039427 28.409027 7.083326 7.064906 16.664541 11.005658 26.619264 11.005658 0.604774 0 1.212618-0.014326 1.819438-0.044002l297.698193-14.373359c9.549493-0.461511 18.567891-4.53427 25.228591-11.392468l454.673363-468.227054C970.528158 384.555399 959.158203 241.61999 866.868263 146.579403zM393.811204 870.231871l-241.473657 11.658528 11.422144-250.916726 52.277644-53.836139 231.191476 238.083443L393.811204 870.231871zM838.119499 412.679947 499.779677 761.105474 268.588201 523.021008l339.881944-350.014722c25.130354-25.879414 56.800657-31.312146 78.942957-31.312146 44.240597 0 89.933265 20.925588 125.362172 57.411571 31.78696 32.735565 51.491745 73.840752 55.482639 115.744117C871.994004 354.075201 861.290221 388.818493 838.119499 412.679947z" p-id="2823"></path></svg>