<?xml version="1.0" standalone="no"?><!DOCTYPE svg PUBLIC "-//W3C//DTD SVG 1.1//EN" "http://www.w3.org/Graphics/SVG/1.1/DTD/svg11.dtd"><svg t="1520671655430" class="icon" style="" viewBox="0 0 1024 1024" version="1.1" xmlns="http://www.w3.org/2000/svg" p-id="1122" xmlns:xlink="http://www.w3.org/1999/xlink" width="200" height="200"><defs><style type="text/css"></style></defs><path d="M790.152021 487.553215c-16.512069 0-32.338522 0-49.239448 0 0-3.479241 0-6.612605 0-9.745968 0-103.978143 0.005117-207.956286-0.00307-311.934428-0.002047-33.479509-22.918989-56.308447-56.541761-56.310493C529.886369 109.554138 375.403972 109.553115 220.921575 109.562325c-33.532721 0.002047-56.389288 22.904663-56.390311 56.476269-0.005117 175.007873-0.00307 350.015745-0.002047 525.022595 0 35.55989 22.335704 58.20054 58.08286 58.298777 60.765969 0.167822 121.532961 0.047072 182.299953 0.047072 3.207042 0 6.41306 0 10.204409 0 0 16.8559 0 33.177634 0 50.768267-2.977821 0-6.087649 0-9.197476 0-65.627696 0-131.255393 0.002047-196.884113-0.001023-54.679343-0.002047-95.595218-39.800471-95.691409-94.732571-0.320295-183.649694-0.308015-367.30041-0.008186-550.950104 0.090051-55.146994 41.251519-95.169523 96.310509-95.170546 161.504324-0.005117 323.007625-0.005117 484.511949 0 54.790884 0.002047 95.977935 39.506782 96.265484 94.344738 0.575098 109.647259 0.168846 219.298612 0.150426 328.948941C790.574646 483.942991 790.353612 485.270219 790.152021 487.553215zM803.619754 822.143643c36.4604 36.367279 72.942289 72.756047 108.915595 108.637256-9.4093 9.413394-18.301831 18.310018-27.745924 27.758204-35.500539-36.074613-71.773673-72.936149-108.25147-110.00337-44.63764 32.975019-92.303242 44.220131-144.502092 31.776727-41.250496-9.832949-74.078159-32.809243-98.679463-67.382667-47.191812-66.320475-38.60525-161.259754 19.593244-217.196741 62.5895-60.157101 156.934239-64.948221 223.958748-12.434194C839.947124 632.691803 870.00265 737.098711 803.619754 822.143643zM803.030329 716.033953c0-72.820516-58.32436-131.363863-130.898259-131.389446-72.572876-0.024559-131.5982 58.700937-131.636063 130.96682-0.037862 72.850192 58.314127 131.537825 130.815371 131.567501C745.039567 847.208505 803.030329 789.469476 803.030329 716.033953zM235.9652 298.657031c0-17.513886 0-34.414811 0-51.697429 143.653771 0 286.908452 0 430.54892 0 0 17.370623 0 34.279734 0 51.697429C523.05887 298.657031 379.833865 298.657031 235.9652 298.657031zM666.48342 371.353726c0 17.634636 0 34.789341 0 52.399417-143.611815 0-286.809191 0-430.460915 0 0-17.438161 0-34.609239 0-52.399417C379.200438 371.353726 522.386558 371.353726 666.48342 371.353726zM413.405471 499.333516c0 16.712637 0 32.785707 0 49.220005-59.300594 0-118.178563 0-177.447435 0 0-16.504906 0-32.574906 0-49.220005C294.989501 499.333516 353.865423 499.333516 413.405471 499.333516z" p-id="1123" fill="#515151"></path></svg>