<?xml version="1.0" standalone="no"?><!DOCTYPE svg PUBLIC "-//W3C//DTD SVG 1.1//EN" "http://www.w3.org/Graphics/SVG/1.1/DTD/svg11.dtd"><svg t="1520065648676" class="icon" style="" viewBox="0 0 1024 1024" version="1.1" xmlns="http://www.w3.org/2000/svg" p-id="1914" xmlns:xlink="http://www.w3.org/1999/xlink" width="200" height="200"><defs><style type="text/css"></style></defs><path d="M794.88 0l-565.76 0c-37.632 0-68.096 30.464-68.096 68.096l0 887.808c0 37.632 30.464 68.096 68.096 68.096l565.76 0c37.632 0 68.096-30.464 68.096-68.096L862.976 68.096C862.976 30.72 832.512 0 794.88 0zM229.12 29.44l565.76 0c21.248 0 38.656 17.408 38.656 38.656l0 709.12L190.464 777.216l0-709.12C190.464 46.848 207.616 29.44 229.12 29.44zM794.88 994.816l-565.76 0c-21.248 0-38.656-17.408-38.656-38.656L190.464 806.656l643.328 0 0 149.248C833.536 977.408 816.384 994.816 794.88 994.816z" p-id="1915" fill="#ffffff"></path><path d="M465.92 902.912a18 18 0 1 0 92.16 0 18 18 0 1 0-92.16 0Z" p-id="1916" fill="#ffffff"></path></svg>