<?xml version="1.0" standalone="no"?><!DOCTYPE svg PUBLIC "-//W3C//DTD SVG 1.1//EN" "http://www.w3.org/Graphics/SVG/1.1/DTD/svg11.dtd"><svg t="1520097557579" class="icon" style="" viewBox="0 0 1024 1024" version="1.1" xmlns="http://www.w3.org/2000/svg" p-id="53380" xmlns:xlink="http://www.w3.org/1999/xlink" width="200" height="200"><defs><style type="text/css"></style></defs><path d="M262.582857 143.725714l474.697143 0 0 732.342857-474.697143 0 0-732.342857Z" fill="#FFFFFF" p-id="53381"></path><path d="M737.28 644.022857V830.171429c0 25.417143-26.697143 45.897143-59.611429 45.897142H322.194286c-32.914286 0-59.611429-20.48-59.611429-45.897142V644.022857z" fill="#5b5509" p-id="53382" data-spm-anchor-id="a313x.7781069.0.i40" class="selected"></path><path d="M677.668571 903.497143H322.194286a87.04 87.04 0 0 1-87.04-87.04V203.154286a87.04 87.04 0 0 1 87.04-86.857143h355.474285a87.04 87.04 0 0 1 87.04 86.857143v613.302857a87.04 87.04 0 0 1-87.04 87.04z m-355.474285-731.428572a32.182857 32.182857 0 0 0-32.182857 32v612.388572a32.182857 32.182857 0 0 0 32.182857 32.182857h355.474285a32.182857 32.182857 0 0 0 32.182858-32.182857V203.154286a32.182857 32.182857 0 0 0-32.182858-32z" fill="#808080" p-id="53383"></path><path d="M724.662857 770.194286H294.765714a27.428571 27.428571 0 0 1 0-54.857143h429.897143a27.428571 27.428571 0 0 1 0 54.857143zM416.182857 466.468571a27.611429 27.611429 0 0 1-19.382857-8.045714 27.245714 27.245714 0 0 1 0-38.765714l158.171429-158.171429a27.428571 27.428571 0 0 1 38.765714 38.765715l-158.171429 158.171428a27.611429 27.611429 0 0 1-19.382857 8.045714zM416.182857 633.234286a26.88 26.88 0 0 1-19.382857-8.045715 27.245714 27.245714 0 0 1 0-38.765714l158.171429-157.988571a27.245714 27.245714 0 0 1 38.765714 0 27.611429 27.611429 0 0 1 0 38.765714l-158.171429 157.988571a26.88 26.88 0 0 1-19.382857 8.045715z" fill="#808080" p-id="53384"></path></svg>