<?xml version="1.0" standalone="no"?><!DOCTYPE svg PUBLIC "-//W3C//DTD SVG 1.1//EN" "http://www.w3.org/Graphics/SVG/1.1/DTD/svg11.dtd"><svg t="1520612420615" class="icon" style="" viewBox="0 0 1024 1024" version="1.1" xmlns="http://www.w3.org/2000/svg" p-id="1573" xmlns:xlink="http://www.w3.org/1999/xlink" width="200" height="200"><defs><style type="text/css"></style></defs><path d="M812.99456 428.68736c-7.53664-27.27936-18.57536-53.41184-32.52224-77.2096-4.05504-7.53664-13.33248-9.87136-20.91008-5.79584-6.9632 4.05504-9.85088 13.35296-5.2224 20.91008 7.65952 13.49632 14.0288 28.11904 19.70176 43.15136l-117.51424 144.26112c-2.72384-0.63488-5.5296-1.08544-8.41728-1.08544-1.45408 0-2.8672 0.26624-4.25984 0.43008l-101.7856-159.58016c3.50208-5.55008 5.61152-12.06272 5.61152-19.0464 0-19.72224-16.26112-35.98336-36.00384-35.98336s-35.98336 16.26112-35.98336 35.98336c0 7.04512 2.12992 13.6192 5.69344 19.18976l-89.68192 142.06976c-1.41312-0.18432-2.80576-0.43008-4.25984-0.43008-5.89824 0-11.40736 1.59744-16.32256 4.15744l-41.5744-31.82592c0.9216-3.21536 1.57696-6.5536 1.57696-10.07616 0-19.74272-15.6672-36.00384-35.40992-36.00384-20.31616 0-35.98336 16.26112-35.98336 36.00384 0 0.73728 0.16384 1.41312 0.2048 2.12992l-50.23744 22.1184c-0.1024-3.25632-0.49152-6.43072-0.49152-9.728 0-80.6912 32.50176-153.84576 85.34016-206.68416s125.97248-85.34016 206.68416-85.34016c28.44672 0 56.29952 4.05504 82.41152 11.61216 27.29984 8.13056 52.8384 20.31616 76.06272 35.40992 6.9632 4.64896 16.83456 2.33472 20.91008-4.64896 4.64896-6.9632 2.90816-16.83456-4.05504-21.48352-26.13248-16.24064-54.00576-29.61408-84.1728-38.31808-29.04064-8.704-59.8016-13.35296-91.136-13.35296-89.41568 0-170.10688 36.00384-228.16768 94.63808-58.63424 58.04032-94.63808 138.752-94.63808 228.16768 0 88.82176 36.00384 169.49248 94.63808 228.1472 58.04032 58.0608 138.73152 94.04416 228.16768 94.04416 88.82176 0 169.49248-35.98336 228.1472-94.04416 58.0608-58.63424 94.04416-139.32544 94.04416-228.1472C823.43936 483.26656 819.95776 455.39328 812.99456 428.68736zM707.33824 718.37696c-52.81792 52.81792-125.39904 85.34016-206.09024 85.34016-80.6912 0-153.84576-32.52224-206.68416-85.34016-43.45856-43.43808-72.8064-100.352-81.98144-164.0448l62.11584-27.3408c5.87776 4.23936 13.06624 6.77888 21.03296 6.77888 4.8128 0 9.37984-1.00352 13.55776-2.74432l43.008 32.91136c-0.53248 2.43712-0.83968 4.95616-0.83968 7.55712 0 19.74272 16.26112 36.00384 36.00384 36.00384 19.72224 0 35.98336-16.26112 35.98336-36.00384 0-7.0656-2.12992-13.6192-5.71392-19.21024l89.68192-142.04928c1.41312 0.18432 2.82624 0.43008 4.28032 0.43008 1.51552 0 2.99008-0.26624 4.46464-0.45056l101.62176 159.35488c-3.52256 5.55008-5.632 12.10368-5.632 19.31264 0 19.74272 16.24064 35.40992 35.98336 35.40992s36.00384-15.68768 36.00384-35.40992c0-5.69344-1.37216-10.93632-3.64544-15.6672l104.71424-128.57344c5.0176 21.54496 7.4752 44.31872 7.4752 67.60448C792.6784 592.97792 760.15616 665.55904 707.33824 718.37696z" p-id="1574" fill="#d4237a"></path></svg>