<?xml version="1.0" standalone="no"?><!DOCTYPE svg PUBLIC "-//W3C//DTD SVG 1.1//EN" "http://www.w3.org/Graphics/SVG/1.1/DTD/svg11.dtd"><svg t="1521606733882" class="icon" style="" viewBox="0 0 1024 1024" version="1.1" xmlns="http://www.w3.org/2000/svg" p-id="1930" xmlns:xlink="http://www.w3.org/1999/xlink" width="200" height="200"><defs><style type="text/css"></style></defs><path d="M512 458.382222l-96.597333-96.597333a37.831111 37.831111 0 0 0-53.560889 0l-0.028445 0.028444a37.888 37.888 0 0 0-0.028444 53.589334L458.382222 512l-96.597333 96.597333a37.774222 37.774222 0 0 0 0 53.532445l0.028444 0.056889a37.888 37.888 0 0 0 53.589334 0.028444L512 565.617778l96.597333 96.597333a37.774222 37.774222 0 0 0 53.532445 0l0.056889-0.028444a37.888 37.888 0 0 0 0.028444-53.589334L565.617778 512l96.597333-96.597333a37.831111 37.831111 0 0 0 0-53.560889l-0.028444-0.028445a37.888 37.888 0 0 0-53.589334-0.028444L512 458.382222zM512 967.111111C261.034667 967.111111 56.888889 762.965333 56.888889 512S261.034667 56.888889 512 56.888889s455.111111 204.145778 455.111111 455.111111-204.145778 455.111111-455.111111 455.111111z m0-834.360889C302.876444 132.750222 132.750222 302.876444 132.750222 512S302.904889 891.249778 512 891.249778 891.249778 721.123556 891.249778 512 721.123556 132.750222 512 132.750222z" fill="" p-id="1931"></path></svg>