<?xml version="1.0" standalone="no"?><!DOCTYPE svg PUBLIC "-//W3C//DTD SVG 1.1//EN" "http://www.w3.org/Graphics/SVG/1.1/DTD/svg11.dtd"><svg t="1519959281879" class="icon" style="" viewBox="0 0 1024 1024" version="1.1" xmlns="http://www.w3.org/2000/svg" p-id="5286" xmlns:xlink="http://www.w3.org/1999/xlink" width="200" height="200"><defs><style type="text/css"></style></defs><path d="M676.071799 532.838607l265.097704 0 0 57.935504L676.071799 590.774111 676.071799 532.838607 676.071799 532.838607zM676.071799 532.838607" p-id="5287"></path><path d="M676.071799 658.989749l265.097704 0 0 57.936527L676.071799 716.926276 676.071799 658.989749 676.071799 658.989749zM676.071799 658.989749" p-id="5288"></path><path d="M676.071799 774.86178l265.097704 0 0 57.936527L676.071799 832.798307 676.071799 774.86178 676.071799 774.86178zM676.071799 774.86178" p-id="5289"></path><path d="M840.811818 171.633009c-5.894244-11.488659-18.417465-18.805298-32.208563-18.805298L110.272499 152.827711c-13.917988 0-26.565029 7.467065-32.373315 19.139919-5.812379 11.659551-3.728928 25.369807 5.360078 35.100426l248.110821 265.956258L331.370083 772.947174c0 12.467963 7.652284 23.876804 19.769252 29.420053l194.616466 83.810824c4.995781 2.282996 10.43977 3.412726 15.841803 3.412726 6.342452 0 12.688997-1.564635 18.336624-4.674463 10.392698-5.752004 16.903995-15.992229 17.268292-27.180036l1.310855-384.692522L836.147588 206.501144C844.866157 196.694801 846.710155 183.116551 840.811818 171.633009zM525.618159 804.593941l-123.031081-52.014654L402.587078 493.697145l123.971499 0L525.618159 804.593941zM546.422997 428.024423l-6.559393 0L383.328455 428.024423 187.873901 218.495316l545.335223 0L546.422997 428.024423z" p-id="5290"></path></svg>