<?xml version="1.0" standalone="no"?><!DOCTYPE svg PUBLIC "-//W3C//DTD SVG 1.1//EN" "http://www.w3.org/Graphics/SVG/1.1/DTD/svg11.dtd"><svg t="1521650095648" class="icon" style="" viewBox="0 0 1024 1024" version="1.1" xmlns="http://www.w3.org/2000/svg" p-id="2647" xmlns:xlink="http://www.w3.org/1999/xlink" width="200" height="200"><defs><style type="text/css"></style></defs><path d="M834.836 905.027c-5.16 0-10.003-2.001-13.635-5.634l-73.652-73.65c-12.426-12.426-28.973-19.269-46.594-19.269-10.563 0-21.123 2.574-30.536 7.443-51.308 26.533-109.094 40.559-167.11 40.559-96.881 0-187.838-37.716-256.117-106.202-139.693-140.117-140.02-369.246-0.729-510.767 34.925-35.484 75.747-62.962 121.333-81.672 44.011-18.063 90.534-27.222 138.279-27.222 96.682 0 187.509 37.581 255.748 105.818 55.397 55.397 90.658 125.578 101.973 202.955a364.554 364.554 0 0 1-1.034 112.212c-6.211 37.658-18.222 73.886-35.698 107.677-13.311 25.735-8.557 56.727 11.83 77.118l73.655 73.651c7.54 7.542 7.489 19.869-0.115 27.477l-63.761 63.757c-3.707 3.708-8.619 5.748-13.835 5.748l-0.002 0.001z" fill="#FFFFFF" p-id="2648"></path><path d="M506.075 153.614c43.802 0 86.461 8.284 126.793 24.623 41.718 16.9 79.157 41.755 111.277 73.874 26.037 26.036 47.439 55.795 63.612 88.448 15.641 31.579 26.172 65.374 31.301 100.446a339.58 339.58 0 0 1-0.964 104.527c-5.784 35.069-16.967 68.801-33.236 100.258-18.334 35.446-11.762 78.157 16.36 106.286l69.656 69.651-55.994 55.991-69.654-69.652c-17.147-17.147-39.973-26.591-64.271-26.591-14.542 0-29.072 3.54-42.019 10.236-47.774 24.707-101.589 37.766-155.627 37.766-43.882 0-86.613-8.314-127.006-24.711-41.787-16.963-79.27-41.908-111.407-74.143-130.052-130.447-130.328-343.79-0.616-475.579 32.542-33.063 70.563-58.66 113.008-76.081 40.984-16.82 84.314-25.349 128.787-25.349m0-50c-100.487 0-201.094 38.798-277.43 116.357-148.962 151.346-148.559 396.1 0.842 545.955 75.486 75.715 174.597 113.552 273.821 113.552 61.338 0 122.713-14.454 178.596-43.354a41.424 41.424 0 0 1 19.051-4.648c10.611 0 21.062 4.092 28.916 11.946l73.651 73.649c8.639 8.639 19.969 12.957 31.312 12.957 11.396 0 22.806-4.358 31.515-13.069l63.764-63.761c17.378-17.383 17.428-45.51 0.112-62.831l-73.653-73.648c-12.642-12.645-15.544-32.025-7.303-47.958 75.572-146.12 52.384-329.853-69.769-452.006-75.44-75.439-174.375-113.141-273.425-113.141z" fill="#1A1A1A" p-id="2649"></path><path d="M508.601 290.203c109.343 0 197.981 88.639 197.981 197.981 0 109.343-88.638 197.983-197.981 197.983s-197.982-88.64-197.982-197.983c-0.001-109.341 88.639-197.981 197.982-197.981z" fill="#FFCD36" p-id="2650"></path></svg>