<?xml version="1.0" standalone="no"?><!DOCTYPE svg PUBLIC "-//W3C//DTD SVG 1.1//EN" "http://www.w3.org/Graphics/SVG/1.1/DTD/svg11.dtd"><svg t="1521599706474" class="icon" style="" viewBox="0 0 1024 1024" version="1.1" xmlns="http://www.w3.org/2000/svg" p-id="1916" xmlns:xlink="http://www.w3.org/1999/xlink" width="200" height="200"><defs><style type="text/css"></style></defs><path d="M724.030068 473.39475c-21.319561 0-38.60525 17.285688-38.60525 38.60525 0 21.319561 17.285688 38.604226 38.60525 38.604226l119.515001 0c21.319561 0 38.604226-17.285688 38.604226-38.604226 0-21.319561-17.285688-38.60525-38.604226-38.60525L724.030068 473.39475z" p-id="1917" fill="#35bf05"></path><path d="M650.345881 336.619644c0 21.319561 17.285688 38.60525 38.60525 38.60525l119.527281 0c21.319561 0 38.604226-17.285688 38.604226-38.60525 0-21.319561-17.285688-38.604226-38.604226-38.604226L688.951131 298.015418C667.63157 298.015418 650.345881 315.300083 650.345881 336.619644z" p-id="1918" fill="#35bf05"></path><path d="M747.410568 637.081787c-21.319561 0-38.604226 17.285688-38.604226 38.60525s17.285688 38.604226 38.604226 38.604226l119.53342 0c21.319561 0 38.604226-17.285688 38.604226-38.604226s-17.285688-38.60525-38.604226-38.60525L747.410568 637.081787z" p-id="1919" fill="#35bf05"></path><path d="M934.352237 856.916611c0-21.319561-17.285688-38.60525-38.60525-38.60525L249.269203 818.311361c-45.440935 0-82.411965-36.97103-82.411965-82.418105L166.857239 288.119023c0-45.453215 36.97103-82.430384 82.411965-82.430384l516.583388 0c21.319561 0 38.604226-17.285688 38.604226-38.604226 0-21.319561-17.285688-38.60525-38.604226-38.60525L249.269203 128.479163c-88.016613 0-159.621441 71.617108-159.621441 159.63986L89.647763 735.893256c0 88.016613 71.604828 159.627581 159.621441 159.627581l646.477784 0C917.066549 895.520837 934.352237 878.236172 934.352237 856.916611z" p-id="1920" fill="#35bf05"></path><path d="M331.052858 714.743564c7.53358 7.53972 17.417695 11.30958 27.294646 11.30958 9.876951 0 19.761066-3.76986 27.294646-11.30958l175.35068-175.35068c0.499373-0.496304 0.985444-1.004887 1.457188-1.527796 0.040932-0.045025 0.077771-0.092098 0.118704-0.137123 0.3776-0.421602 0.748037-0.850367 1.107217-1.289366 0.156566-0.191358 0.303922-0.38681 0.456395-0.580215 0.233314-0.295735 0.467651-0.590448 0.692778-0.89437 0.192382-0.258896 0.373507-0.522909 0.558725-0.785899 0.173962-0.246617 0.349971-0.49221 0.517793-0.74292 0.196475-0.293689 0.382717-0.591471 0.569982-0.88823 0.146333-0.232291 0.294712-0.461511 0.435928-0.696872 0.183172-0.305969 0.357134-0.615007 0.531096-0.924045 0.135076-0.240477 0.272199-0.478907 0.403183-0.722454 0.160659-0.299829 0.312108-0.602727 0.463558-0.905626 0.13303-0.264013 0.26606-0.527003 0.39295-0.795109 0.13303-0.281409 0.258896-0.565888 0.384763-0.850367 0.13303-0.298805 0.265036-0.596588 0.390903-0.898463 0.105401-0.255827 0.203638-0.512676 0.303922-0.77055 0.130983-0.337691 0.261966-0.675382 0.38374-1.017166 0.080841-0.227174 0.155543-0.456395 0.232291-0.685615 0.124843-0.373507 0.248663-0.74599 0.363274-1.124614 0.062422-0.206708 0.11768-0.414439 0.177032-0.62217 0.113587-0.400113 0.225127-0.800225 0.325411-1.205455 0.048095-0.195451 0.090051-0.390903 0.135076-0.586354 0.096191-0.414439 0.191358-0.829901 0.273223-1.249457 0.039909-0.203638 0.072655-0.407276 0.109494-0.611937 0.073678-0.410346 0.147356-0.820692 0.208754-1.235131 0.034792-0.237407 0.060375-0.475837 0.091074-0.714268 0.048095-0.38067 0.100284-0.760317 0.137123-1.144056 0.031722-0.323365 0.050142-0.64673 0.073678-0.970094 0.021489-0.302899 0.050142-0.603751 0.065492-0.908696 0.062422-1.27197 0.062422-2.545986 0-3.817955-0.01535-0.303922-0.042979-0.604774-0.065492-0.906649-0.023536-0.324388-0.041956-0.647753-0.073678-0.971118-0.036839-0.38374-0.089028-0.762363-0.137123-1.143033-0.030699-0.23843-0.056282-0.477884-0.091074-0.715291-0.060375-0.414439-0.135076-0.823761-0.208754-1.234107-0.036839-0.203638-0.069585-0.408299-0.109494-0.611937-0.082888-0.419556-0.177032-0.835018-0.273223-1.249457-0.045025-0.195451-0.086981-0.391926-0.135076-0.587378-0.100284-0.405229-0.211824-0.805342-0.325411-1.205455-0.058328-0.207731-0.11461-0.415462-0.177032-0.62217-0.113587-0.3776-0.237407-0.751107-0.36225-1.12359-0.076748-0.229221-0.151449-0.458441-0.232291-0.686638-0.121773-0.341784-0.252757-0.679475-0.38374-1.017166-0.099261-0.25685-0.197498-0.514723-0.303922-0.769526-0.124843-0.302899-0.257873-0.600681-0.390903-0.899486-0.125867-0.284479-0.25071-0.568958-0.384763-0.850367-0.12689-0.267083-0.25992-0.530073-0.39295-0.794086-0.152473-0.302899-0.303922-0.606821-0.464581-0.906649-0.12996-0.242524-0.267083-0.480954-0.402159-0.720408-0.173962-0.310062-0.347924-0.6191-0.532119-0.925069-0.141216-0.234337-0.289596-0.464581-0.434905-0.695848-0.188288-0.297782-0.37453-0.596588-0.571005-0.8913-0.167822-0.25071-0.342808-0.494257-0.51677-0.740874-0.185218-0.26299-0.367367-0.528026-0.560772-0.787946-0.225127-0.303922-0.460488-0.599657-0.694825-0.89744-0.151449-0.192382-0.297782-0.38681-0.453325-0.577145-0.361227-0.441045-0.733711-0.87288-1.11438-1.297552-0.037862-0.042979-0.073678-0.086981-0.11154-0.128937-0.880043-0.975211-1.810229-1.904373-2.784416-2.785439-0.065492-0.059352-0.13303-0.113587-0.198521-0.171915-0.401136-0.357134-0.806365-0.709151-1.221828-1.049912-0.216941-0.178055-0.440022-0.345877-0.660032-0.518816-0.26913-0.210801-0.535189-0.423649-0.809435-0.627287-0.285502-0.212848-0.577145-0.413416-0.867764-0.617054-0.218988-0.153496-0.435928-0.310062-0.659009-0.459464-0.319272-0.213871-0.642636-0.416486-0.966001-0.6191-0.205685-0.128937-0.409322-0.260943-0.618077-0.38681-0.329505-0.198521-0.663102-0.385786-0.9967-0.573051-0.215918-0.121773-0.430812-0.24457-0.648776-0.36225-0.322341-0.172939-0.647753-0.335644-0.973164-0.49835-0.242524-0.12075-0.483001-0.243547-0.727571-0.360204-0.301875-0.143263-0.606821-0.277316-0.910743-0.412392-0.279363-0.12382-0.557702-0.24764-0.841158-0.36532-0.273223-0.112564-0.547469-0.217964-0.822738-0.324388-0.321318-0.124843-0.641613-0.248663-0.967024-0.36532-0.242524-0.085958-0.48607-0.165776-0.730641-0.246617-0.360204-0.12075-0.719384-0.239454-1.083681-0.349971-0.217964-0.065492-0.437975-0.124843-0.656963-0.186242-0.38988-0.110517-0.779759-0.218988-1.173732-0.317225-0.203638-0.050142-0.408299-0.094144-0.61296-0.141216-0.407276-0.094144-0.814552-0.187265-1.226944-0.268106-0.208754-0.040932-0.418532-0.074701-0.62831-0.112564-0.405229-0.072655-0.810459-0.146333-1.220804-0.205685-0.239454-0.034792-0.480954-0.061398-0.721431-0.092098-0.378623-0.048095-0.757247-0.099261-1.13894-0.1361-0.321318-0.031722-0.642636-0.050142-0.963954-0.073678-0.304945-0.022513-0.608867-0.051165-0.915859-0.065492-0.621147-0.030699-1.242294-0.046049-1.864464-0.047072-0.014326 0-0.028653-0.001023-0.042979-0.001023L378.8607 473.393727l109.551068-109.543905c15.080463-15.080463 15.080463-39.522132 0.00614-54.595432-15.0733-15.080463-39.522132-15.0733-54.595432-0.00614L258.361279 484.699214c-0.170892 0.170892-0.329505 0.348947-0.497327 0.522909-0.271176 0.281409-0.544399 0.559748-0.807389 0.849344-0.25071 0.276293-0.488117 0.559748-0.728594 0.841158-0.167822 0.196475-0.340761 0.387833-0.50449 0.588401-0.26606 0.323365-0.518816 0.653893-0.772596 0.983397-0.12689 0.164752-0.258896 0.327458-0.382717 0.494257-0.261966 0.352017-0.511653 0.710175-0.760317 1.069355-0.107447 0.154519-0.217964 0.306992-0.322341 0.463558-0.24457 0.364297-0.476861 0.732687-0.707105 1.103124-0.101307 0.162706-0.205685 0.324388-0.304945 0.488117-0.216941 0.361227-0.423649 0.726547-0.62831 1.092891-0.104377 0.186242-0.210801 0.370437-0.312108 0.558725-0.185218 0.344854-0.360204 0.693802-0.534166 1.043772-0.110517 0.221034-0.222057 0.440022-0.328481 0.664126-0.151449 0.318248-0.292666 0.64059-0.434905 0.961908-0.116657 0.264013-0.234337 0.527003-0.344854 0.794086-0.118704 0.286526-0.229221 0.574075-0.339738 0.862647-0.119727 0.308015-0.23843 0.61603-0.350994 0.929162-0.091074 0.254803-0.173962 0.511653-0.25992 0.76748-0.115634 0.347924-0.231267 0.695848-0.337691 1.047866-0.069585 0.231267-0.132006 0.464581-0.197498 0.696872-0.106424 0.375553-0.210801 0.75213-0.305969 1.1328-0.055259 0.221034-0.102331 0.442068-0.153496 0.664126-0.090051 0.390903-0.179079 0.781806-0.257873 1.176802-0.045025 0.229221-0.081864 0.459464-0.122797 0.689708-0.068562 0.384763-0.138146 0.768503-0.195451 1.156336-0.039909 0.272199-0.069585 0.544399-0.104377 0.816598-0.042979 0.346901-0.091074 0.692778-0.124843 1.042749-0.036839 0.3776-0.060375 0.756223-0.085958 1.133823-0.017396 0.248663-0.040932 0.494257-0.053212 0.743944-0.063445 1.283226-0.063445 2.568499 0 3.851725 0.011256 0.223081 0.032746 0.443092 0.048095 0.665149 0.027629 0.406253 0.052189 0.812505 0.093121 1.218758 0.031722 0.320295 0.074701 0.635473 0.11461 0.953721 0.037862 0.303922 0.070608 0.607844 0.115634 0.910743 0.052189 0.357134 0.11768 0.710175 0.179079 1.063215 0.046049 0.26299 0.089028 0.525979 0.141216 0.787946 0.071631 0.361227 0.153496 0.719384 0.23536 1.077541 0.058328 0.25685 0.113587 0.5137 0.177032 0.768503 0.085958 0.344854 0.182149 0.685615 0.277316 1.026376 0.074701 0.26913 0.148379 0.539282 0.229221 0.807389 0.095167 0.314155 0.198521 0.62524 0.301875 0.935302 0.097214 0.294712 0.194428 0.589424 0.298805 0.88209 0.098237 0.273223 0.202615 0.542352 0.306992 0.812505 0.125867 0.327458 0.251733 0.655939 0.38681 0.980327 0.094144 0.226151 0.194428 0.450255 0.292666 0.674359 0.158612 0.36225 0.319272 0.723477 0.48914 1.081635 0.086981 0.183172 0.179079 0.36225 0.26913 0.544399 0.192382 0.388856 0.387833 0.775666 0.593518 1.159406 0.079818 0.149403 0.164752 0.295735 0.246617 0.443092 0.224104 0.404206 0.452301 0.806365 0.692778 1.204431 0.075725 0.125867 0.155543 0.248663 0.233314 0.373507 0.252757 0.407276 0.508583 0.813528 0.777713 1.213641 0.078795 0.11768 0.162706 0.232291 0.243547 0.348947 0.272199 0.396019 0.548492 0.789992 0.837064 1.177825 0.095167 0.127913 0.196475 0.251733 0.292666 0.378623 0.281409 0.367367 0.562818 0.733711 0.859577 1.092891 0.130983 0.158612 0.26913 0.312108 0.402159 0.468674 0.272199 0.320295 0.542352 0.64059 0.825808 0.953721 0.221034 0.243547 0.452301 0.476861 0.679475 0.715291 0.205685 0.214894 0.403183 0.434905 0.613984 0.64673 0.178055 0.178055 0.363274 0.343831 0.544399 0.517793 0.274246 0.264013 0.545422 0.530073 0.826831 0.785899 0.281409 0.254803 0.569982 0.496304 0.856507 0.741897 0.190335 0.162706 0.3776 0.331551 0.571005 0.490164 0.328481 0.270153 0.664126 0.528026 0.99977 0.785899 0.159636 0.122797 0.315178 0.249687 0.476861 0.369414 0.357134 0.26606 0.721431 0.51984 1.085728 0.771573 0.148379 0.103354 0.294712 0.209778 0.445138 0.310062 0.370437 0.248663 0.74599 0.485047 1.122567 0.720408 0.155543 0.097214 0.310062 0.197498 0.467651 0.292666 0.36839 0.222057 0.741897 0.432859 1.115404 0.641613 0.178055 0.099261 0.354064 0.201591 0.534166 0.297782 0.354064 0.190335 0.712221 0.370437 1.070378 0.548492 0.211824 0.105401 0.421602 0.212848 0.635473 0.314155 0.327458 0.155543 0.657986 0.301875 0.989537 0.447185 0.254803 0.112564 0.508583 0.226151 0.766456 0.333598 0.294712 0.121773 0.592494 0.236384 0.889253 0.350994 0.299829 0.115634 0.599657 0.232291 0.902556 0.340761 0.261966 0.093121 0.525979 0.180102 0.789992 0.267083 0.341784 0.113587 0.682545 0.227174 1.028423 0.331551 0.234337 0.070608 0.469698 0.134053 0.705058 0.200568 0.37453 0.105401 0.74906 0.209778 1.127683 0.303922 0.217964 0.054235 0.437975 0.101307 0.656963 0.151449 0.393973 0.091074 0.788969 0.181125 1.188058 0.25992 0.220011 0.042979 0.440022 0.078795 0.661056 0.11768 0.394996 0.070608 0.789992 0.14224 1.189082 0.200568 0.251733 0.036839 0.503467 0.063445 0.7552 0.096191 0.36839 0.047072 0.735757 0.096191 1.107217 0.13303 0.331551 0.032746 0.663102 0.051165 0.994654 0.075725 0.295735 0.021489 0.589424 0.049119 0.886183 0.063445 0.636496 0.031722 1.272993 0.048095 1.910513 0.048095l154.946978 0L331.052858 660.154271C315.972395 675.227572 315.972395 699.670264 331.052858 714.743564z" p-id="1921" fill="#35bf05"></path></svg>