<?xml version="1.0" standalone="no"?><!DOCTYPE svg PUBLIC "-//W3C//DTD SVG 1.1//EN" "http://www.w3.org/Graphics/SVG/1.1/DTD/svg11.dtd"><svg t="1520612336744" class="icon" style="" viewBox="0 0 1024 1024" version="1.1" xmlns="http://www.w3.org/2000/svg" p-id="1427" xmlns:xlink="http://www.w3.org/1999/xlink" width="200" height="200"><defs><style type="text/css"></style></defs><path d="M318.16 909.54a34.56 34.56 0 0 1-34.52-35.8l5.5-148.42-145.21 31.2a34.5 34.5 0 0 1-32.84-56.87l99.61-110.16L79.43 520a34.5 34.5 0 0 1 11.4-64.67L237.95 435 182 297.42a34.5 34.5 0 0 1 50.31-42.21l125.78 79 45.61-141.37a34.41 34.41 0 0 1 32.84-23.91 34.4 34.4 0 0 1 32.83 23.91L515 334.18l125.78-79a34.5 34.5 0 0 1 50.31 42.21L635.13 435l147.12 20.36a34.5 34.5 0 0 1 11.4 64.64l-131.28 69.49L762 699.65a34.5 34.5 0 0 1-32.83 56.87l-145.23-31.19 5.5 148.42a34.5 34.5 0 0 1-61.71 22.46L436.54 779l-91.19 117.21a34.4 34.4 0 0 1-27.19 13.33zM295 684a34.53 34.53 0 0 1 34.39 35.79l-5.15 138.41 85.06-109.36a34.5 34.5 0 0 1 54.46 0l85.07 109.36-5.13-138.45a34.5 34.5 0 0 1 41.72-35l135.45 29.09L628 611.07a34.5 34.5 0 0 1 9.46-53.64l122.46-64.78-137.23-19a34.5 34.5 0 0 1-27.23-47.17l52.17-128.34-117.38 73.68a34.5 34.5 0 0 1-51.18-18.63l-42.53-131.85L394 353.19a34.5 34.5 0 0 1-51.18 18.63l-117.33-73.67 52.17 128.35a34.5 34.5 0 0 1-27.23 47.17l-137.23 19 122.46 64.78a34.5 34.5 0 0 1 9.46 53.64L152.2 713.83l135.45-29.09A34.9 34.9 0 0 1 295 684z m136.3-478.88z" fill="#FF8ACA" p-id="1428"></path><path d="M266 601.54q0.82-3.22 2-8.13t2.33-10.67q1.2-5.76 2.44-12t2.23-12.22q1-5.9 1.78-11t1-8.78a27.68 27.68 0 0 0 0-3.05 16.08 16.08 0 0 1 0.1-3.16 8.58 8.58 0 0 1 1-3 5.87 5.87 0 0 1 2.68-2.37 8.28 8.28 0 0 1 4.25-1 10.44 10.44 0 0 1 4.19 1.34 3 3 0 0 1 1 1.51 29.19 29.19 0 0 1 0.93 2.88q0.45 1.65 0.82 3.47t0.72 3.12a54.22 54.22 0 0 0 2.92 7.89q2.09 4.73 5.18 10.4t7 12q3.88 6.35 8.17 12.69t8.78 12.39q4.49 6 8.89 11.18 1.85-7.14 3.23-13.59T340 578.8q1.13-6.21 2.16-12.35t2.06-12.73q0.55-3.36 1.17-7.51t1.17-8.37q0.55-4.22 0.93-8.17t0.45-6.83v-2.34q0-1.17 0.1-2.23a7.92 7.92 0 0 1 0.48-2.06 4.53 4.53 0 0 1 1.2-1.75 9.48 9.48 0 0 1 4-2.4 16.74 16.74 0 0 1 3.77-0.41 2.28 2.28 0 0 1 1.78 1.1 11.73 11.73 0 0 1 1.44 2.61 20.78 20.78 0 0 1 1 3.12 17.54 17.54 0 0 1 0.45 2.57 12.91 12.91 0 0 1-0.27 2.85q-0.34 2-0.86 4.22t-1.03 4.46q-0.55 2.2-0.89 3.43-1.58 6.24-3.19 13.76T352.79 565q-1.48 7.69-2.78 15t-2.26 13.24q-1 5.9-1.48 9.78a34.09 34.09 0 0 0-0.45 4.63q0.07 1 0.1 2.33t0 2.57V615a16.77 16.77 0 0 0 0.07 1.75 6.59 6.59 0 0 1-0.31 2.85 6.46 6.46 0 0 1-1.17 2 6.38 6.38 0 0 1-1.61 1.34 10.65 10.65 0 0 1-1.65 0.79 17.44 17.44 0 0 1-2.06 0.48 13.2 13.2 0 0 1-2.3 0.21 12.58 12.58 0 0 1-2.13-0.17 2.44 2.44 0 0 1-1.48-0.72 40.13 40.13 0 0 1-4.36-4.77 12.53 12.53 0 0 1-2.3-4.49 6.21 6.21 0 0 0-0.69-1.68q-0.55-1-1.2-2t-1.27-1.85q-0.62-0.86-1-1.34-4.46-5.76-8.78-11.67T305 583.15q-4.36-6.66-8.82-14.27T287 552.21q-1.92 6.86-3.43 14.62t-2.74 15.23q-1.24 7.48-2.2 14.17t-1.65 11.43a23.43 23.43 0 0 0-0.21 3.4v4.08q0 2.06-0.14 3.88a10 10 0 0 1-0.55 2.85 11.7 11.7 0 0 1-1.06 1.78 16.56 16.56 0 0 1-1.65 2 10.15 10.15 0 0 1-2 1.61 4 4 0 0 1-2.09 0.65 6.57 6.57 0 0 1-3.12-0.62 4.21 4.21 0 0 1-1.75-1.82 9.79 9.79 0 0 1-0.89-3q-0.27-1.78-0.48-4.12a16 16 0 0 1 0.17-2.85q0.24-2 0.69-4.32t1-4.91q0.51-2.53 1.1-4.73z" fill="#EFBFE5" p-id="1429"></path><path d="M269.25 637.89a16.35 16.35 0 0 1-7.91-1.83 14.27 14.27 0 0 1-5.86-6 19.75 19.75 0 0 1-1.89-6c-0.22-1.4-0.4-3-0.56-4.76v-0.1a24.34 24.34 0 0 1 0.22-4.84c0.19-1.51 0.45-3.18 0.79-5s0.67-3.42 1-5.17 0.82-3.57 1.28-5.2c0.52-2 1.15-4.65 1.87-7.79s1.5-6.69 2.29-10.46 1.61-7.87 2.41-11.93 1.56-8.12 2.23-12 1.25-7.42 1.74-10.78c0.45-3.1 0.77-5.77 0.94-7.93v-1.82a26.11 26.11 0 0 1 0.17-5.12 18.57 18.57 0 0 1 2.07-6.36 15.62 15.62 0 0 1 7-6.57 18.13 18.13 0 0 1 9.43-2.06 20.32 20.32 0 0 1 8.27 2.57l0.2 0.11a12.54 12.54 0 0 1 5.29 6.55 38.58 38.58 0 0 1 1.26 3.89c0.35 1.29 0.67 2.65 1 4 0.21 1 0.42 1.91 0.6 2.6a44 44 0 0 0 2.39 6.4c1.28 2.89 2.9 6.14 4.81 9.65s4.24 7.53 6.72 11.58 5.15 8.22 7.92 12.31q2.12 3.14 4.31 6.23 0.51-2.59 1-5.1c0.74-4.08 1.46-8.19 2.14-12.21s1.35-8.21 2-12.62c0.37-2.26 0.75-4.72 1.15-7.44s0.78-5.43 1.14-8.19 0.65-5.32 0.89-7.83c0.22-2.33 0.36-4.35 0.4-6v-2.17c0-1.08 0.05-2.16 0.15-3.19a18 18 0 0 1 1.08-4.65 14.44 14.44 0 0 1 3.79-5.57 19 19 0 0 1 8.49-4.77 26.8 26.8 0 0 1 6-0.67 12.24 12.24 0 0 1 9.78 5.1 21.77 21.77 0 0 1 2.7 4.82 31 31 0 0 1 1.48 4.63 26.58 26.58 0 0 1 0.69 4.14 21.3 21.3 0 0 1-0.4 5.29c-0.26 1.49-0.58 3.07-1 4.71s-0.73 3.13-1.11 4.67-0.69 2.69-0.93 3.56c-1 4-2 8.48-3.08 13.3s-2.08 10-3 15-1.89 10-2.75 14.89-1.61 9.24-2.24 13.1-1.1 7-1.43 9.49c-0.25 1.85-0.33 2.71-0.36 3.05q0.06 1 0.1 2.31v6.21a16.28 16.28 0 0 1-8 15.69 20.57 20.57 0 0 1-3.23 1.53l-0.51 0.17a27.59 27.59 0 0 1-3.18 0.69 23.23 23.23 0 0 1-7.85 0 12.42 12.42 0 0 1-6.86-3.5 50 50 0 0 1-5.25-5.79 22.73 22.73 0 0 1-3.91-7.63c-0.22-0.38-0.44-0.75-0.68-1.11-0.35-0.53-0.69-1-1-1.5-0.2-0.28-0.37-0.51-0.51-0.67l-0.31-0.38c-3-3.91-6-7.9-8.94-11.88s-6-8.44-9-13c-1.78-2.72-3.59-5.58-5.41-8.56q-0.31 1.82-0.61 3.62c-0.81 4.91-1.54 9.61-2.16 14s-1.19 8.28-1.65 11.44a13.62 13.62 0 0 0-0.1 2v4.08c0 1.62-0.06 3.18-0.17 4.63a19.51 19.51 0 0 1-1.23 5.8l-0.19 0.44a21.27 21.27 0 0 1-2 3.37 26.61 26.61 0 0 1-2.64 3.19 20.21 20.21 0 0 1-4 3.2 13.88 13.88 0 0 1-7.28 2.14z m86.57-30.31z m0-0.84v0.46c-0.01-0.2-0.02-0.34-0.03-0.46zM457.47 531.14a4.42 4.42 0 0 1-1 0.07q-1.1 0-2.54-0.1t-2.2-0.1a14.06 14.06 0 0 0-2.68 0.24q-1.24 0.24-2.54 0.55t-2.88 0.62a29.37 29.37 0 0 1-3.71 0.45 41.57 41.57 0 0 0-4.32 0.55 41.73 41.73 0 0 1-4.25 0.55q-1.17 0.07-3.12 0.07t-4.32 0.07q-2.37 0.07-4.94 0.21t-4.87 0.34q-2.3 0.21-4.15 0.51a10.37 10.37 0 0 0-2.81 0.79 4.53 4.53 0 0 0-2 1.61 8.51 8.51 0 0 0-1.1 2.3 13.53 13.53 0 0 0-0.51 2.47q-0.14 1.24-0.21 2.2-0.48 3.23-1.24 6.42t-1.51 6.42q-0.76 3.23-1.34 6.48a48.72 48.72 0 0 0-0.72 6.62 7.22 7.22 0 0 0 1 0.07h1.24q2.68 0 6.48-0.34t7.65-0.79q3.84-0.45 7.21-1t5.15-1l5.59-1.27q2.3-0.51 4-0.82t3.05-0.45a26 26 0 0 1 2.64-0.14q0.68 0 2.13 0.07a11.62 11.62 0 0 1 2.88 0.51 6.86 6.86 0 0 1 2.5 1.37 3.32 3.32 0 0 1 1.06 2.64 6.94 6.94 0 0 1-1.85 5 8.49 8.49 0 0 1-4.67 2.5q-0.28 0.07-1.89 0.27l-3.71 0.48-4.25 0.55-3.6 0.48q-2.33 0.34-5.59 0.75t-6.86 0.82q-3.6 0.41-7.21 0.89t-6.59 1q-3 0.55-5 1.13a4.4 4.4 0 0 0-2.47 1.27 8.52 8.52 0 0 0-0.86 2.3q-0.45 1.68-0.89 3.95t-0.89 4.91q-0.45 2.64-0.76 5.11t-0.51 4.53q-0.21 2.06-0.21 3.23v0.75q0.34 2.33 1.48 3a7.18 7.18 0 0 0 2.92 0.89 11.39 11.39 0 0 0 1.27 0.07h1.41q1.92 0 3.88-0.14a28.94 28.94 0 0 0 3.67-0.48q2.68-0.55 6.38-1.2l7.69-1.34 7.82-1.37q3.84-0.68 6.86-1.3t5.59-1.13l4.7-0.89q2.06-0.38 3.4-0.58a15 15 0 0 1 1.75-0.21 34.91 34.91 0 0 1 3.88 0.72 7.81 7.81 0 0 1 3.47 1.68 4.7 4.7 0 0 1 1.2 2.09 9.38 9.38 0 0 1 0.45 2.85 7.13 7.13 0 0 1-0.27 2 2.88 2.88 0 0 1-1 1.48 18.16 18.16 0 0 1-4.6 2.37 33.91 33.91 0 0 1-5.59 1.44 53.08 53.08 0 0 1-6.28 0.69q-3.29 0.17-6.72 0.17-2.06 0-5.18 0.27t-6.48 0.69q-3.36 0.41-6.55 0.93t-5.32 1a40.13 40.13 0 0 1-7.65 0.82q-4.7 0.14-11.15 0.75-0.55 0.07-1.1 0.1t-1.17 0q-1.51 0-3.05-0.14t-2.71-0.27q-1.37-0.07-2.4-0.21a5 5 0 0 1-1.82-0.58 3.68 3.68 0 0 1-1.34-1.37 8.58 8.58 0 0 1-0.89-2.64 20.18 20.18 0 0 1-0.31-2.23q-0.1-1.2-0.24-2.37v-0.27a6.12 6.12 0 0 1 0.34-1.65q0.34-1.1 0.89-2.78t1.17-4q0.62-2.37 1.23-5.46 0.69-3.77 1.37-7.86t1.3-8.1q0.62-4 1.1-7.79t0.82-6.93q0.34-2.74 1.06-6.66t1.48-8.37a77.69 77.69 0 0 0 1.24-8.89q0.34-4.36 0.34-8.68a1.46 1.46 0 0 0-0.24-0.69 8.47 8.47 0 0 0-0.58-0.86q-0.34-0.45-0.65-0.89a2.19 2.19 0 0 1-0.38-0.79 22.66 22.66 0 0 0-0.93-2.57 5.55 5.55 0 0 1-0.45-2.3v-0.69a2.38 2.38 0 0 1 0.14-0.75 1.93 1.93 0 0 1 0.62-1.1 6.19 6.19 0 0 1 1.34-1 8.5 8.5 0 0 1 1.68-0.72 5.65 5.65 0 0 1 1.65-0.27h0.21q1.37 0.14 2.13 0.17t1.34 0h1.24q0.66 0 1.89 0.17h0.27q1 0 3.84-0.24l6.72-0.58q3.84-0.34 8.27-0.82t8.47-1q4.32-0.48 8.27-1.1t7.07-1.17l5.15-0.89a23.47 23.47 0 0 1 2.44-0.34 8.72 8.72 0 0 1 1.06-0.07h1q5 0 6.79 1.37a2.79 2.79 0 0 1 1 1 6.58 6.58 0 0 1 0.55 1.3 7.31 7.31 0 0 1 0.27 1.41 13.43 13.43 0 0 0 0.21 1.41 0.29 0.29 0 0 0 0 0.14 0.32 0.32 0 0 1 0 0.14 3.33 3.33 0 0 1-0.48 1.61 8.84 8.84 0 0 1-1.2 1.65 9.57 9.57 0 0 1-1.54 1.37 4.19 4.19 0 0 1-1.32 0.87z" fill="#EFBFE5" p-id="1430"></path><path d="M392.08 634.74c-1.3 0-2.62-0.06-3.94-0.18q-1.49-0.13-2.66-0.27c-1.06-0.06-2-0.15-2.88-0.26a15 15 0 0 1-5.41-1.79 13.57 13.57 0 0 1-5-5 18.13 18.13 0 0 1-2.09-5.77 30.47 30.47 0 0 1-0.47-3.33c-0.06-0.7-0.13-1.38-0.21-2.06l-0.07-0.58v-0.86a15.32 15.32 0 0 1 0.8-4.64c0.23-0.75 0.54-1.72 0.93-2.89 0.3-0.92 0.64-2.09 1-3.47s0.72-3 1.09-4.8q0.67-3.67 1.33-7.64t1.28-8c0.4-2.59 0.75-5.12 1.06-7.53s0.58-4.7 0.8-6.75v-0.16c0.25-2 0.63-4.39 1.15-7.23q0.71-3.85 1.45-8.23v-0.26a68 68 0 0 0 1.08-7.74c0.13-1.71 0.23-3.44 0.27-5.15a12 12 0 0 1-1.45-3.26 12 12 0 0 0-0.42-1.2 15.44 15.44 0 0 1-1.32-6.38v-0.69a12.18 12.18 0 0 1 0.42-3.14 12 12 0 0 1 3.28-5.79 16.11 16.11 0 0 1 3.47-2.62 18.53 18.53 0 0 1 3.66-1.57 15.63 15.63 0 0 1 4.6-0.72h1.21c0.68 0.07 1.21 0.12 1.59 0.13h2.62c0.62 0 1.12 0.08 1.84 0.15 0.33 0 1.13-0.06 2.82-0.2l6.66-0.58c2.49-0.22 5.21-0.49 8.08-0.8s5.62-0.64 8.21-1h0.25c2.69-0.3 5.32-0.65 7.83-1s4.9-0.79 6.88-1.13l5.21-0.9c1.6-0.27 2.54-0.41 3.31-0.46s1.26-0.1 1.86-0.1h1c5.46 0 9.44 1 12.45 3.12a12.82 12.82 0 0 1 4.11 4.41 16.6 16.6 0 0 1 1.4 3.31 17.29 17.29 0 0 1 0.65 3.3v0.19c0.08 0.32 0.14 0.65 0.19 1v0.3a10.29 10.29 0 0 1 0.07 1.17 13.19 13.19 0 0 1-1.75 6.49 18.86 18.86 0 0 1-2.55 3.52 19.65 19.65 0 0 1-3.14 2.79 14 14 0 0 1-4.7 2.24 13.51 13.51 0 0 1-3.54 0.39c-1 0-2 0-3.25-0.13-1.05-0.08-1.44-0.08-1.49-0.08a4.09 4.09 0 0 0-0.77 0.06q-1 0.2-2.14 0.46c-1 0.24-2.11 0.48-3.28 0.7a38.82 38.82 0 0 1-5 0.61 32 32 0 0 0-3.22 0.42 51.94 51.94 0 0 1-5.28 0.68h-0.11c-1.76 0.11-4.44 0.06-7.76 0.15q-2.24 0.06-4.69 0.2c-1.59 0.08-3.11 0.19-4.52 0.32l-1.62 0.17v0.45l-0.08 0.78c-0.36 2.42-0.83 4.86-1.39 7.24q-0.75 3.18-1.5 6.39l-0.05 0.22 3.5-0.39c2.41-0.28 4.68-0.59 6.74-0.93 2.51-0.41 3.84-0.68 4.52-0.84l5.66-1.28c1.71-0.38 3.16-0.68 4.43-0.91s2.65-0.43 3.79-0.55a35.81 35.81 0 0 1 3.67-0.19c0.56 0 1.42 0 2.59 0.08a21.82 21.82 0 0 1 5.37 1 16.84 16.84 0 0 1 6.11 3.38 13.27 13.27 0 0 1 4.5 10.19 16.88 16.88 0 0 1-4.59 11.85 18.55 18.55 0 0 1-9.82 5.4c-0.58 0.13-1.29 0.23-2.73 0.42l-3.68 0.48-4.3 0.55-3.44 0.46c-1.56 0.23-3.49 0.49-5.75 0.78s-4.54 0.56-7 0.84c-2.26 0.26-4.62 0.55-7 0.87-2.23 0.3-4.28 0.62-6.1 1l-1.16 0.22-0.1 0.52c-0.28 1.4-0.56 3-0.84 4.64s-0.5 3.18-0.69 4.68l-0.14 1.12a18.79 18.79 0 0 0 2.14-0.29c1.81-0.37 4-0.78 6.61-1.24l7.72-1.34 7.76-1.36c2.44-0.43 4.66-0.86 6.62-1.26s3.88-0.8 5.69-1.15l4.81-0.91q2.23-0.41 3.68-0.63a21 21 0 0 1 3.27-0.32h0.6l0.6 0.07a45 45 0 0 1 5 0.92 17.71 17.71 0 0 1 7.82 4 14.56 14.56 0 0 1 4.07 6.52 19.43 19.43 0 0 1 0.92 5.88 17.16 17.16 0 0 1-0.68 4.85 12.91 12.91 0 0 1-4.3 6.46l-0.39 0.3a28.25 28.25 0 0 1-7.11 3.69 44 44 0 0 1-7.25 1.87 63.07 63.07 0 0 1-7.46 0.82c-2.34 0.12-4.78 0.19-7.24 0.19-1.07 0-2.52 0.08-4.3 0.24-2 0.17-4 0.39-6.14 0.65s-4.19 0.55-6.18 0.87-3.51 0.61-4.7 0.88a49.25 49.25 0 0 1-9.56 1.07c-2.87 0.08-6.36 0.32-10.37 0.7q-0.75 0.09-1.5 0.14c-0.61-0.05-1.2-0.03-1.83-0.03z m6.33-105.42z m-0.4-1.77zM610.09 517.69a73.55 73.55 0 0 1-0.89 9.92q-0.89 6.21-2.54 14.1t-3.36 14.55q-1.78 6.73-3.5 11.67-3.29 10-6.38 17.29-1.51 3.71-3.4 8t-4.15 9.3q-2.26 5-4 9.06t-3.09 7.21a4.59 4.59 0 0 1-2.54 2.2 8.3 8.3 0 0 1-3.09 0.89q-3.29 0-6-3.23a39.15 39.15 0 0 1-5.28-8.58q-1.3-2.61-3.4-7.41t-5.11-11.87q-3-7.07-5.56-12.83t-4.8-10.38q-2.2 3.23-8 14.2-2.88 5.56-5.7 10.88t-5.56 10.53q-5.49 10.43-10.09 17.91t-6 7.48a7.18 7.18 0 0 1-5.66-2.81 25.77 25.77 0 0 1-4.08-7.14q-0.89-2.2-1.82-5.22t-2-6.93q-1-3.91-1.58-6t-0.69-2.47q-2.61-10-5.42-22.1t-5.76-26.56q-0.21-1-0.82-3.16t-1.58-5.76q-2-7.21-2-10.16a5.38 5.38 0 0 1 1.65-3.64 4.68 4.68 0 0 1 3.29-1.72q1.58 0 4.12 4a35.27 35.27 0 0 1 4.19 9.33q0.55 1.85 1.3 4.87t1.82 7.45q1.06 4.43 2.44 10.29t3.16 13.42q1.71 7.55 3.12 13.45T503.9 598q1.13 4.43 2 7.51t1.58 4.94q5.21-8.78 9.06-15.34t6.38-10.94q2.54-4.46 4.36-7.93t3-6l3.23-7.24q2.06-4.63 5-11.43a5 5 0 0 1 0.86-1.27 7.91 7.91 0 0 1 2.85-2 4.26 4.26 0 0 1 1.65-0.34q2.47 0 6.11 8 1.78 4 4.7 10.77t7 16.47q8.17 19.42 10.7 22.71a166.59 166.59 0 0 0 11.25-22.92 233 233 0 0 0 8.37-24.88 229.16 229.16 0 0 0 5.28-23.54 171.33 171.33 0 0 0 2.2-20q0-0.89 1.72-2.61a4.74 4.74 0 0 1 3.09-1.72 4.52 4.52 0 0 1 4.46 2.54 10.12 10.12 0 0 1 1.34 4.91z" fill="#EFBFE5" p-id="1431"></path><path d="M507.64 638.58a17.23 17.23 0 0 1-13.31-6.37 35.8 35.8 0 0 1-5.73-9.89c-0.67-1.66-1.39-3.69-2.08-6-0.65-2.11-1.34-4.57-2.07-7.32s-1.22-4.66-1.59-6.09c-0.18-0.71-0.32-1.24-0.42-1.58l-0.1-0.25-0.16-0.61c-1.74-6.68-3.59-14.2-5.48-22.35s-3.84-17.12-5.81-26.76c0-0.21-0.21-0.88-0.67-2.52q-0.63-2.23-1.61-5.87c-1.61-5.82-2.33-9.77-2.33-12.75a15.17 15.17 0 0 1 4.3-10.42l0.13-0.14a14.35 14.35 0 0 1 10.51-4.79c7 0 11 6.14 12.51 8.54a45.43 45.43 0 0 1 5.37 11.9c0.41 1.39 0.88 3.12 1.43 5.32q0.76 3.06 1.84 7.53t2.45 10.35q1.37 5.86 3.15 13.39c1.08 4.74 2.08 9.06 3 12.95l3.31-5.7c1.6-2.82 3-5.39 4.16-7.57s2-4 2.73-5.49l3.2-7.17q2-4.6 5-11.35a15 15 0 0 1 2.57-3.94 17.93 17.93 0 0 1 6.45-4.59 14.25 14.25 0 0 1 5.5-1.12c8.89 0 13.15 9.32 15.2 13.8 1.24 2.76 2.8 6.34 4.79 11s4.3 10 7 16.5q0.93 2.22 1.75 4.13 0.89-2.05 1.73-4.14a224.13 224.13 0 0 0 8-23.77 220.18 220.18 0 0 0 5.06-22.5 162.69 162.69 0 0 0 2.07-18.68c0.13-4.33 2.7-7.4 4.64-9.34 3.09-3.08 6.5-4.64 10.16-4.64a14.56 14.56 0 0 1 13.34 7.94 20 20 0 0 1 2.42 9.47 82.32 82.32 0 0 1-1 11.34c-0.62 4.34-1.51 9.29-2.65 14.73s-2.25 10.43-3.49 15.07-2.48 8.8-3.69 12.3c-2.22 6.87-4.43 12.87-6.58 17.92-1 2.53-2.2 5.29-3.48 8.18s-2.67 6-4.19 9.39-2.83 6.3-4 9-2.16 5-3 7a14.28 14.28 0 0 1-7.7 7.5 17.35 17.35 0 0 1-7.17 1.77c-3.61 0-8.91-1.17-13.66-6.75a48.29 48.29 0 0 1-6.66-10.68c-0.94-1.89-2.11-4.44-3.57-7.79s-3.12-7.2-5.14-11.94L542 590c-1.29 2.48-2.59 4.95-3.88 7.38l-5.55 10.51c-3.75 7.12-7.25 13.34-10.42 18.49-4.15 6.87-7.9 12.2-14.51 12.2z m-25.11-37v0.1z" fill="#EFBFE5" p-id="1432"></path><path d="M738.1 602.09l-9-7.91 4-4.51a26.64 26.64 0 0 1 8.62-6.51l24.88-11.86 5.16 10.83L746.82 594a14.73 14.73 0 0 0-4.77 3.59z m67.9-36.31l-5.16-10.83 37.91-18.07 5.16 10.83z m72.21-34.43L873 520.52l38-18.07 5.16 10.83z m74.61-35.27l-8.89-8.08 4-4.45a14.44 14.44 0 0 0 3.66-9.74 15.21 15.21 0 0 0-3.55-9.87l-3.89-4.57 9.14-7.77 3.89 4.57a27.23 27.23 0 0 1 6.41 17.64 26.42 26.42 0 0 1-6.76 17.8z m-42.69-42.25l-41.33-7.49 2.14-11.81 41.33 7.47z m-78.72-14.26l-41.33-7.49 2.14-11.81 41.33 7.49z m-78.71-14.25l-32.93-6a27.7 27.7 0 0 1-3.15-0.77l-5.74-1.76 3.52-11.47 5.74 1.76a15.56 15.56 0 0 0 1.77 0.43l32.92 6z m-38-46.37l-10.92-5 17.42-38.21 10.92 5z m33.19-72.79l-10.92-5L754.36 263l10.92 5zM558.94 274v-12h6a14.59 14.59 0 0 0 7.26-2l9-5.13 6 10.42-9 5.13a26.82 26.82 0 0 1-13.26 3.58z m61.15-27.54l-6-10.42 36.47-20.83 6 10.42z m161-13.09l-10.92-5 17.42-38.21 10.92 5z m-91.49-26.58l-6-10.42 36.47-20.83L726 186z m69.4-39.67l-6-10.42 13-7.39a26.25 26.25 0 0 1 26-0.34l5.26 2.88-5.77 10.52-5.26-2.88a14.46 14.46 0 0 0-6.92-1.81 14.79 14.79 0 0 0-7.39 2z" fill="#FF8ACA" p-id="1433"></path></svg>