<?xml version="1.0" standalone="no"?><!DOCTYPE svg PUBLIC "-//W3C//DTD SVG 1.1//EN" "http://www.w3.org/Graphics/SVG/1.1/DTD/svg11.dtd"><svg t="1520090195920" class="icon" style="" viewBox="0 0 1024 1024" version="1.1" xmlns="http://www.w3.org/2000/svg" p-id="40757" xmlns:xlink="http://www.w3.org/1999/xlink" width="200" height="200"><defs><style type="text/css"></style></defs><path d="M512 512m-512 0a512 512 0 1 0 1024 0 512 512 0 1 0-1024 0Z" fill="#3AD0F9" p-id="40758"></path><path d="M208 776c-17.6 0-32-14.4-32-32s14.4-32 32-32 32 14.4 32 32-14.4 32-32 32z m0-48.8c-9.6 0-16.8 8-16.8 16.8 0 9.6 8 16.8 16.8 16.8 9.6 0 16.8-8 16.8-16.8 0-9.6-7.2-16.8-16.8-16.8zM744 864c-17.6 0-32-14.4-32-32s14.4-32 32-32 32 14.4 32 32-14.4 32-32 32z m0-48.8c-9.6 0-16.8 8-16.8 16.8 0 9.6 7.2 16.8 16.8 16.8 9.6 0 16.8-8 16.8-16.8 0-9.6-7.2-16.8-16.8-16.8zM402.4 171.2c0-3.2-3.2-6.4-8-7.2l-15.2-2.4c-4-0.8-8.8-4.8-8.8-8.8l-2.4-15.2c-0.8-4-4-8-7.2-8s-6.4 3.2-7.2 8l-1.6 15.2c-0.8 4-4.8 8.8-8.8 8.8l-15.2 2.4c-4 0.8-8 4-8 7.2s3.2 6.4 8 7.2l15.2 2.4c4 0.8 8.8 4.8 8.8 8.8l2.4 15.2c0.8 4 4 8 7.2 8s6.4-3.2 7.2-8l2.4-16.8c0.8-4 4.8-8 8.8-8.8l14.4-0.8c4-1.6 8-4 8-7.2zM834.4 203.2c0-3.2-3.2-6.4-8-7.2l-15.2-2.4c-4-0.8-8.8-4.8-8.8-8.8l-2.4-15.2c-0.8-4-4-8-7.2-8s-6.4 3.2-7.2 8l-1.6 15.2c-0.8 4-4.8 8.8-8.8 8.8l-15.2 2.4c-4 0.8-8 4-8 7.2s3.2 6.4 8 7.2l15.2 2.4c4 0.8 8.8 4.8 8.8 8.8l2.4 15.2c0.8 4 4 8 7.2 8s6.4-3.2 7.2-8l2.4-16.8c0.8-4 4.8-8 8.8-8.8l14.4-0.8c4-1.6 8-4 8-7.2zM912.8 658.4c0-3.2-3.2-6.4-8-7.2l-15.2-2.4c-4-0.8-8.8-4.8-8.8-8.8l-2.4-15.2c-0.8-4-4-8-7.2-8s-6.4 3.2-7.2 8l-2.4 15.2c-0.8 4-4.8 8.8-8.8 8.8l-15.2 2.4c-4 0.8-8 4-8 7.2s3.2 6.4 8 7.2l15.2 2.4c4 0.8 8.8 4.8 8.8 8.8l2.4 15.2c0.8 4 4 8 7.2 8s6.4-3.2 7.2-8l2.4-16.8c0.8-4 4.8-8 8.8-8.8l14.4-0.8c5.6-1.6 8.8-4 8.8-7.2z" fill="#FFFFFF" p-id="40759"></path><path d="M449.6 662.4c22.4 0 40 17.6 40 40v109.6c0 11.2 8.8 20 20 20h89.6c11.2 0 24.8-8.8 24.8-20V662.4H449.6z m0 0c22.4 0 40 17.6 40 40v109.6c0 11.2 8.8 20 20 20H600c11.2 0 24-8.8 24-20V662.4H449.6zM688.8 612v29.6c0 11.2-8.8 20-20 20H339.2c-11.2 0-20-8.8-20-20v-29.6h369.6z" fill="#324D5B" p-id="40760"></path><path d="M200 332.8h69.6c11.2 0 20 8.8 20 20v49.6c0 11.2-8.8 20-20 20H200c-11.2 0-20-8.8-20-20v-49.6c0-11.2 8.8-20 20-20z" fill="#2D4552" p-id="40761"></path><path d="M269.6 432H200c-14.4 0-24-12-24-29.6v-49.6c0-16 8.8-24.8 24-24.8h69.6c16.8 0 28 10.4 28 24.8v49.6c0 16-12.8 29.6-28 29.6zM200 344c-5.6 0-8 1.6-8 8.8v49.6c0 3.2 0.8 13.6 8 13.6h69.6c6.4 0 12-6.4 12-13.6v-49.6c0-8-8-8.8-12-8.8H200z" fill="#233E49" p-id="40762"></path><path d="M260 272.8h428.8c16.8 0 29.6 13.6 29.6 29.6v309.6H260c-16.8 0-29.6-13.6-29.6-29.6V303.2c-0.8-16.8 12.8-30.4 29.6-30.4z" fill="#415E6D" p-id="40763"></path><path d="M640 512.8c13.6 0 24 10.4 24 24 0 12.8-10.4 24-24 24s-24-10.4-24-24 10.4-24 24-24z" fill="#92C438" p-id="40764"></path><path d="M560 512.8c13.6 0 24 10.4 24 24 0 12.8-10.4 24-24 24s-24-10.4-24-24 10.4-24 24-24z" fill="#FBD000" p-id="40765"></path><path d="M634.4 323.2c19.2 0 35.2 16 35.2 35.2 0 19.2-16 35.2-35.2 35.2s-35.2-16-35.2-35.2c0-20 15.2-35.2 35.2-35.2z" fill="#EAEAEA" p-id="40766"></path><path d="M719.2 383.2h49.6V520h-49.6V383.2z" fill="#2D4552" p-id="40767"></path><path d="M818.4 352.8h9.6c16.8 0 27.2 13.6 27.2 29.6v140c0 16.8-11.2 29.6-27.2 29.6h-9.6c-16.8 0-49.6-29.6-49.6-29.6V383.2s33.6-30.4 49.6-30.4z" fill="#3F5E6D" p-id="40768"></path><path d="M320 616.8h369.6v20H320v-20z" fill="#2D4552" p-id="40769"></path><path d="M229.6 552.8h244.8c8 0 15.2-6.4 15.2-15.2 0-8-6.4-15.2-15.2-15.2H229.6v30.4z" fill="#EAEAEA" p-id="40770"></path><path d="M720 616H260C240 616 224 598.4 224 576V303.2c0-21.6 16-39.2 36-39.2h428.8c20.8 0 39.2 18.4 39.2 39.2V608c0 4.8-3.2 8-8 8zM260 280c-12.8 0-20 12-20 23.2V576c0 12 7.2 24 20 24H712V303.2c0-12-11.2-23.2-23.2-23.2H260z" fill="#233E49" p-id="40771"></path><path d="M668.8 672H339.2c-12.8 0-27.2-3.2-27.2-29.6v-29.6c0-4.8 3.2-8 8-8h369.6c4.8 0 7.2 3.2 7.2 8v29.6c-0.8 16-12.8 29.6-28 29.6zM328 616v26.4c0 13.6 3.2 13.6 12 13.6h329.6c6.4 0 12-6.4 12-13.6V616H328z" fill="#233E49" p-id="40772"></path><path d="M599.2 840H509.6c-16 0-29.6-17.6-29.6-32V702.4c0-17.6-13.6-32-30.4-32-4.8 0-8-3.2-8-8s3.2-5.6 8-5.6H616c4.8 0 8 1.6 8 5.6v149.6c0 16.8-10.4 28-24.8 28zM484.8 670.4c7.2 8.8 11.2 19.2 11.2 32V808c0 7.2 7.2 16 13.6 16h89.6c8 0 8.8-9.6 8.8-12V670.4H484.8zM828.8 560h-9.6c-16.8 0-44-24-52.8-32.8H720c-4.8 0-8-3.2-8-8v-136c0-4.8 3.2-8 8-8h46.4c9.6-8.8 36-31.2 52.8-31.2h9.6c20 0 35.2 16 35.2 38.4v140c0 21.6-15.2 37.6-35.2 37.6z m-101.6-48.8h41.6c2.4 0 4 0.8 5.6 2.4 12.8 12 35.2 30.4 44 30.4h9.6c13.6 0 19.2-11.2 19.2-21.6V382.4c0-10.4-6.4-21.6-19.2-21.6h-9.6c-9.6 0-31.2 16.8-44.8 28.8-1.6 1.6-3.2 2.4-5.6 2.4h-41.6v119.2zM636 400c-24 0-44-20-44-44s20-44 44-44 44 20 44 44-20 44-44 44z m0-72c-15.2 0-27.2 12-27.2 28s12 28 27.2 28 28-12 28-28-12.8-28-28-28z" fill="#233E49" p-id="40773"></path><path d="M636 360c-6.4 0-12-3.2-12-8v-23.2c0-4 5.6-8 12-8s12 3.2 12 8V352c0 4.8-5.6 8-12 8zM640 568c-17.6 0-32-14.4-32-32s14.4-32 32-32 32 14.4 32 32-14.4 32-32 32z m0-48c-8.8 0-16.8 7.2-16.8 16s7.2 16 16.8 16 16.8-7.2 16.8-16-8-16-16.8-16zM560 568c-17.6 0-32-14.4-32-32s14.4-32 32-32 32 14.4 32 32-14.4 32-32 32z m0-48.8c-8.8 0-16.8 7.2-16.8 16.8s7.2 16.8 16.8 16.8 16.8-7.2 16.8-16.8-8-16.8-16.8-16.8zM472.8 560H232c-4 0.8-8-3.2-8-7.2V520c0-4.8 3.2-8 8-8h240.8c12.8 0 23.2 13.6 23.2 25.6 0 12.8-10.4 23.2-23.2 22.4zM240 544.8h233.6c4 0 7.2-3.2 7.2-7.2s-4-9.6-7.2-9.6H240v16.8z" fill="#233E49" p-id="40774"></path><path d="M576 312h-64c-4 0-8-3.2-8-8s3.2-8 8-8h64c4.8 0 8 4 8 8 0 4.8-3.2 8-8 8zM264 488c-4.8 0-8-3.2-8-8V323.2c0-8.8 0-27.2 24.8-27.2h184c4.8 0 8 3.2 8 8 0 4-3.2 8-8 8h-184c-8.8 0-8.8 0.8-8.8 11.2V480c0 4.8-3.2 8-8 8zM587.2 728h-69.6c-4.8 0-8-3.2-8-8s3.2-8 8-8h69.6c4.8 0 8 3.2 8 8s-3.2 8-8 8zM587.2 760h-69.6c-4.8 0-8-3.2-8-8s3.2-8 8-8h69.6c4.8 0 8 3.2 8 8s-3.2 8-8 8zM587.2 792h-69.6c-4.8 0-8-3.2-8-8s3.2-8 8-8h69.6c4.8 0 8 3.2 8 8s-3.2 8-8 8zM832 512c-4.8 0-8-3.2-8-8V392c0-4 3.2-8 8-8s8 3.2 8 8v112c0 4.8-3.2 8-8 8z" fill="#FFFFFF" p-id="40775"></path><path d="M600 152c-17.6 0-32-14.4-32-32s14.4-32 32-32 32 14.4 32 32-14.4 32-32 32z m0-48.8c-9.6 0-16.8 8-16.8 16.8 0 9.6 8 16.8 16.8 16.8 9.6 0 16.8-8 16.8-16.8 0-9.6-7.2-16.8-16.8-16.8z" fill="#FFFFFF" p-id="40776"></path></svg>