<?xml version="1.0" standalone="no"?><!DOCTYPE svg PUBLIC "-//W3C//DTD SVG 1.1//EN" "http://www.w3.org/Graphics/SVG/1.1/DTD/svg11.dtd"><svg t="1523709283645" class="icon" style="" viewBox="0 0 1024 1024" version="1.1" xmlns="http://www.w3.org/2000/svg" p-id="1946" xmlns:xlink="http://www.w3.org/1999/xlink" width="200" height="200"><defs><style type="text/css"></style></defs><path d="M1023.965183 320.003584c0 0 0 91.95856 0 126.99956 0 42.54686-8.5319 70.637003-30.96756 96.994552l0 351.997184c0 70.696394-61.21423 128.00512-134.179791 128.00512L165.186261 1024c-72.967608 0-132.121567-57.30463-132.121567-128.003072l-0.966648-351.999232C12.283804 519.329733 0.034814 482.101487 0.034814 448.00256c0-18.235246 0.237566-50.083439 0.800762-63.995392L0.034814 319.999488 186.204717 0l651.590563 0L1023.965183 320.003584M96.220412 895.998976c0 35.340005 32.478972 64.001536 68.9638 64.001536l693.631571 0c36.48278 0 71.02612-28.661531 71.02612-64.001536l0-63.99744L96.220412 832.001536 96.220412 895.998976zM96.220412 768l833.621491 0 0-194.587115c-8.193982 1.51346-25.216822 2.592747-34.598635 2.592747-60.651035 0-114.484332-34.367213-143.54522-82.386285-24.846137 47.578755-73.934257 82.386285-121.353269 82.386285-47.804034 0-100.402397-30.021392-118.344781-70.903241-17.942384 41.883313-71.658947 70.903241-120.464444 70.903241-46.171791 0-94.567691-31.971072-120.470588-77.569427-23.066439 46.902921-77.620627 77.569427-112.024704 77.569427-16.848761 0-47.791746 1.849329-62.819849-3.469284L96.220412 768zM62.156301 448.000512c0 44.181151 49.700466 65.003 97.883377 65.003 47.464068 0 96.9454-32.823033 96.9454-65.003l30.326541 0c0 41.27711 56.376893 63.99744 105.755826 63.99744 47.373957 0 103.417029-31.721218 103.417029-63.99744l31.029 0c0 31.280902 55.103047 63.99744 102.477004 63.99744 49.376885 0 106.75729-31.721218 106.75729-63.99744l30.265102 0c0 32.831225 76.316061 64.05888 127.812609 64.085503 44.629659 0.022528 66.625003-19.898209 67.079655-64.085503l0.004096 0 0-63.993344L62.090766 384.007168 62.156301 448.000512zM962.965991 320.001536l-1.060856-0.002048L809.492146 64.00768 214.614345 64.00768 65.385971 319.999488l897.582067 0.004096L962.968039 320.001536z" p-id="1947"></path></svg>