<?xml version="1.0" standalone="no"?><!DOCTYPE svg PUBLIC "-//W3C//DTD SVG 1.1//EN" "http://www.w3.org/Graphics/SVG/1.1/DTD/svg11.dtd"><svg t="1520612471367" class="icon" style="" viewBox="0 0 1024 1024" version="1.1" xmlns="http://www.w3.org/2000/svg" p-id="1951" xmlns:xlink="http://www.w3.org/1999/xlink" width="200" height="200"><defs><style type="text/css"></style></defs><path d="M1011.76832 544.0768l-164.16256-435.42016h-176.91648v33.52576h135.02976l110.72 397.6448H678.5024L509.39392 696.2176 329.8816 539.82208H94.5408l110.6944-397.6448H342.8864v-33.52576H168.58112L7.28064 550.28224h0.90624a15.6672 15.6672 0 0 0-0.90624 5.22752v446.83264a15.64672 15.64672 0 0 0 15.60576 15.68256h978.2272a15.64672 15.64672 0 0 0 15.61088-15.68256v-446.83264a15.68256 15.68256 0 0 0-4.95616-11.43296zM430.22848 301.76768H339.99872l171.56608 202.97728 166.79936-202.97728h-90.23488V81.92h-157.9008v219.84768z m-0.0256-248.05376h157.9008V25.52832h-157.9008v28.1856zM137.84576 944.78848l-27.27936-36.0704 252.48768-190.96064 109.12256 144.29184 284.16-186.56256-54.54848-72.14592 158.37696 21.98016-21.98016 158.37696-54.56384-72.13568-320.2304 213.83168-109.12256-144.2816-216.4224 163.67616z" fill="#5b5509" p-id="1952"></path></svg>