<?xml version="1.0" standalone="no"?><!DOCTYPE svg PUBLIC "-//W3C//DTD SVG 1.1//EN" "http://www.w3.org/Graphics/SVG/1.1/DTD/svg11.dtd"><svg t="1522764734643" class="icon" style="" viewBox="0 0 1024 1024" version="1.1" xmlns="http://www.w3.org/2000/svg" p-id="4195" xmlns:xlink="http://www.w3.org/1999/xlink" width="200" height="200"><defs><style type="text/css"></style></defs><path d="M320 217.6C320 256 307.2 288 300.8 288 288 288 281.6 256 275.2 217.6L96 217.6c0 0 0 0 0 0l0 652.8c0 0 0 0 0 0l825.6 0c0 0 0 0 0 0L921.6 217.6c0 0 0 0 0 0l-192 0c0 38.4-12.8 70.4-19.2 70.4-12.8 0-19.2-32-19.2-70.4L320 217.6zM64 217.6c0-19.2 12.8-32 32-32l179.2 0c0-38.4 12.8-70.4 19.2-70.4C307.2 115.2 320 147.2 320 185.6l371.2 0c0-38.4 12.8-70.4 19.2-70.4 12.8 0 19.2 32 19.2 70.4l192 0c19.2 0 32 12.8 32 32l0 652.8c0 19.2-12.8 32-32 32L96 902.4C76.8 908.8 64 896 64 876.8L64 217.6zM441.6 665.6c6.4 6.4 19.2 6.4 25.6 0l211.2-211.2c6.4-6.4 6.4-19.2 0-25.6-6.4-6.4-19.2-6.4-25.6 0L454.4 627.2 371.2 544c-6.4-6.4-19.2-6.4-25.6 0-6.4 6.4-6.4 19.2 0 25.6L441.6 665.6z" p-id="4196"></path></svg>