<?xml version="1.0" standalone="no"?><!DOCTYPE svg PUBLIC "-//W3C//DTD SVG 1.1//EN" "http://www.w3.org/Graphics/SVG/1.1/DTD/svg11.dtd"><svg t="1521563986914" class="icon" style="" viewBox="0 0 1024 1024" version="1.1" xmlns="http://www.w3.org/2000/svg" p-id="78567" xmlns:xlink="http://www.w3.org/1999/xlink" width="200" height="200"><defs><style type="text/css"></style></defs><path d="M869.48649 723.708769c24.985874-51.96218 39.409346-109.974499 39.409346-171.482362 0-218.959924-177.525333-396.489353-396.502664-396.489354s-396.505735 177.528405-396.505735 396.489354c0 61.507863 14.423473 119.520182 39.412417 171.482362H869.48649z" fill="#FFFFFF" p-id="78568"></path><path d="M845.84293 556.67826c0 184.167277-149.286576 333.452829-333.449758 333.452829-184.167277 0-333.452829-149.286576-333.452829-333.452829 0-184.163182 149.286576-333.449758 333.452829-333.449758 184.164206 0 333.449758 149.285552 333.449758 333.449758z" fill="#F4CE73" p-id="78569"></path><path d="M927.871502 518.533412c0-233.746876-185.970339-423.135969-415.512118-423.135969-229.410722 0-415.447614 189.389092-415.447614 423.135969 0 82.502632 23.330251 159.419969 63.482938 224.511431 0.131057 0.918425 0.131057 1.773369 0.262114 2.694866 9.791415 55.330763 44.355736 95.679012 77.146688 89.898156 0.397268-0.067576 0.591806-0.494537 0.921497-0.591806 33.776953 60.686707 84.838114 96.977299 134.451501 88.171885 3.744349-0.65631 5.454237-2.301694 6.241605-4.66687l35.684452-6.372662c28.256163-4.99656 47.249236-31.987201 42.252675-60.246436l-54.277185-307.970372c-4.99656-28.191659-32.07116-47.117155-60.262818-42.188171l-35.748956 6.637849c-1.574736-1.907498-3.808853-3.155615-7.425217-2.496232-35.943494 6.308157-65.450846 34.496744-83.260307 79.185243-6.046043 15.375686-9.922473 32.427472-12.680819 50.104852-0.393172 0-0.854944-0.393172-1.315693-0.326619-17.939495 3.152543-31.411778 19.780441-38.57488 43.043115-11.957957-36.866015-18.726863-76.100277-18.726862-117.070024 0-206.608796 164.484106-374.114387 367.276881-374.114388 202.927928 0 367.344457 167.505591 367.344457 374.114388 0 40.940055-6.76993 80.171245-18.663382 117.003471-7.163102-23.228886-20.701937-39.822996-38.642456-42.975539-0.719791-0.131057-1.443678 0.42696-2.166541 0.525254-2.759371-17.744957-6.637849-34.860224-12.748396-50.303486-17.808437-44.688499-47.315789-72.877086-83.195802-79.185244-3.677796-0.659382-5.847409 0.588734-7.489721 2.496233l-35.684452-6.637849c-28.256163-4.928984-55.266258 13.996512-60.259747 42.188171l-54.28128 307.970372c-4.993489 28.259235 13.933032 55.249876 42.188171 60.246436l35.684451 6.372662c0.787368 2.365175 2.496232 4.010559 6.308158 4.666869 49.745469 8.805414 100.937687-27.650023 134.71464-88.599868 0.525253 0.228326 0.918425 0.918425 1.51023 1.019789 32.790951 5.780857 67.422849-34.567392 77.213241-89.898155 0.198634-0.921497 0.198634-1.807158 0.329691-2.728654 40.088182-65.057674 63.350857-141.976035 63.350856-224.478667z" fill="#27323A" p-id="78570"></path><path d="M294.647575 526.023133c3.54981 20.305694 63.741981 361.857456 66.962101 379.978179-41.794999 1.773369-84.440847-34.419953-112.632505-89.686211 4.07404-22.044251 1.577807-58.352249-3.287696-85.557906-4.861408-27.963332-15.312205-63.974403-27.007023-82.899899 2.297599-20.372246 6.440239-39.822996 13.273649-57.170685 14.064089-35.287184 36.539396-56.581951 62.691474-64.663478zM662.318652 906.002336c3.220119-18.121746 63.415361-359.673509 66.965172-379.978179 26.153103 8.081527 48.62841 29.376294 62.688403 64.663478 6.96754 17.67738 11.173661 37.55509 13.471259 58.385013-11.432704 19.255187-21.55381 54.347833-26.351736 81.685571-4.73035 26.647639-7.227607 62.133457-3.482234 84.309789-28.190635 55.955333-71.166173 92.774249-113.290864 90.934328z" fill="#79CCBF" p-id="78571"></path></svg>