<?xml version="1.0" standalone="no"?><!DOCTYPE svg PUBLIC "-//W3C//DTD SVG 1.1//EN" "http://www.w3.org/Graphics/SVG/1.1/DTD/svg11.dtd"><svg t="1524100226396" class="icon" style="" viewBox="0 0 1024 1024" version="1.1" xmlns="http://www.w3.org/2000/svg" p-id="2147" data-spm-anchor-id="a313x.7781069.0.i8" xmlns:xlink="http://www.w3.org/1999/xlink" width="200" height="200"><defs><style type="text/css"></style></defs><path d="M435.563 635.332l295.268-295.268c9.273-9.273 24.25-9.24 33.508 0.019 9.24 9.239 9.266 24.26 0.019 33.508L459.01 678.938c-6.14 6.14-14.78 8.2-22.605 6.204-7.752 2.237-16.46 0.458-22.808-5.463L248.643 525.857c-9.595-8.947-10.115-23.983-1.204-33.54 8.929-9.575 23.935-10.094 33.54-1.137l154.584 144.152z m73.403 322.844c246.577 0 446.466-199.89 446.466-446.467S755.542 65.243 508.966 65.243 62.499 265.133 62.499 511.709s199.89 446.467 446.467 446.467z" p-id="2148" data-spm-anchor-id="a313x.7781069.0.i2" class="selected" fill="#58a238"></path></svg>