<?xml version="1.0" standalone="no"?><!DOCTYPE svg PUBLIC "-//W3C//DTD SVG 1.1//EN" "http://www.w3.org/Graphics/SVG/1.1/DTD/svg11.dtd"><svg t="1520097071576" class="icon" style="" viewBox="0 0 1026 1024" version="1.1" xmlns="http://www.w3.org/2000/svg" p-id="48706" xmlns:xlink="http://www.w3.org/1999/xlink" width="200.390625" height="200"><defs><style type="text/css"></style></defs><path d="M354.76704 136.608c0 63.104-50.656 114.208-113.216 114.208-62.464 0-113.184-51.104-113.184-114.208 0-63.136 50.688-114.24 113.184-114.24 62.528-0.032 113.216 51.072 113.216 114.24m332.864 505.248c-95.2 0-172.352 77.952-172.352 174.112 0 96.096 77.184 173.984 172.352 173.984 95.264 0 172.448-77.888 172.448-173.984 0-96.192-77.184-174.112-172.448-174.112m0 254.144c-43.84 0-79.328-35.904-79.328-80.032 0-44.288 35.488-80.192 79.328-80.192 43.872 0 79.392 35.904 79.392 80.192A79.712 79.712 0 0 1 687.63104 896m47.072-525.792c-6.112-27.072-239.424-279.744-298.24-241.056-42.24 27.808-6.464 71.904-6.464 71.904 78.752 19.36 231.264 198.944 231.264 198.944l-242.88 94.016c-28.8 18.432-82.976 18.432-82.976 116.128v138.144c0 42.72 52.672 91.008 94.976 91.008h40.736c-0.704 0-1.056-18.656-1.056-26.144 0-119.808 96.192-218.976 214.848-218.976 118.72 0 214.976 100.128 214.976 220 0 7.392-0.416 25.12-1.12 25.12h127.456V254.624l-291.52 115.584m-334.4 238.464c-46.464-91.2 142.336-96.224 142.336-96.224l-142.336 96.224m48.704-216.928s-41.312-28.512-114.592 4.64c-96.672 43.584-80.032-124.416-179.52-158.432 0 0-100.448 0-143.776 169.952 0 0-34.048 110.432 17.152 255.616v250.496s51.136 80.128 127.936 0V659.84s-1.088-158.496 57.312-217.44c0 0 13.088 55.296 112.544 51.616 0.032 0 220.288-31.296 122.944-102.272m0 0" p-id="48707" fill="#d81e06"></path></svg>