<?xml version="1.0" standalone="no"?><!DOCTYPE svg PUBLIC "-//W3C//DTD SVG 1.1//EN" "http://www.w3.org/Graphics/SVG/1.1/DTD/svg11.dtd"><svg t="1520090463608" class="icon" style="" viewBox="0 0 1024 1024" version="1.1" xmlns="http://www.w3.org/2000/svg" p-id="41870" xmlns:xlink="http://www.w3.org/1999/xlink" width="200" height="200"><defs><style type="text/css"></style></defs><path d="M564.8 752h-8a16 16 0 0 0-9.6 8 14.4 14.4 0 0 0-1.6 11.2v33.6l-3.2 8h-105.6a19.2 19.2 0 0 1-4.8-12.8v-43.2a16 16 0 0 0-11.2-16l-33.6-11.2-32-16a16 16 0 0 0-19.2 1.6l-30.4 28.8a11.2 11.2 0 0 1-14.4 0l-68.8-65.6a8 8 0 0 1-3.2-6.4 9.6 9.6 0 0 1 3.2-6.4l30.4-28.8a16 16 0 0 0 1.6-20.8 196.8 196.8 0 0 1-16-28.8 297.6 297.6 0 0 1-11.2-32 16 16 0 0 0-16-11.2h-40a9.6 9.6 0 0 1-11.2-9.6v-92.8a9.6 9.6 0 0 1 11.2-9.6h49.6a16 16 0 0 0 16-11.2 320 320 0 0 1 11.2-33.6 230.4 230.4 0 0 1 14.4-32 16 16 0 0 0-1.6-19.2l-28.8-28.8a11.2 11.2 0 0 1 0-16l65.6-67.2 6.4-3.2 6.4 3.2 28.8 28.8a16 16 0 0 0 19.2 3.2l30.4-16 32-11.2a16 16 0 0 0 11.2-16v-41.6a11.2 11.2 0 0 1 9.6-11.2h91.2a11.2 11.2 0 0 1 9.6 11.2v49.6a16 16 0 0 0 12.8 16l33.6 11.2 32 14.4a16 16 0 0 0 19.2-1.6l30.4-28.8a11.2 11.2 0 0 1 14.4 0l67.2 64a9.6 9.6 0 0 1 0 14.4l-28.8 28.8a16 16 0 0 0-3.2 19.2l16 30.4a243.2 243.2 0 0 1 11.2 32 16 16 0 0 0 16 11.2h41.6a11.2 11.2 0 0 1 11.2 8v94.4a9.6 9.6 0 0 1-11.2 9.6h-30.4c-4.8-1.6-14.4-3.2-20.8 12.8a14.4 14.4 0 0 0 1.6 12.8 16 16 0 0 0 11.2 11.2 14.4 14.4 0 0 0 14.4-3.2h25.6a41.6 41.6 0 0 0 41.6-43.2v-92.8a41.6 41.6 0 0 0-43.2-41.6h-28.8l-9.6-24-11.2-24 20.8-19.2a41.6 41.6 0 0 0 0-60.8l-68.8-64a43.2 43.2 0 0 0-59.2 0l-22.4 20.8-25.6-11.2L576 208v-36.8A43.2 43.2 0 0 0 534.4 128h-92.8a41.6 41.6 0 0 0-41.6 43.2v30.4l-24 9.6-22.4 11.2-20.8-20.8a41.6 41.6 0 0 0-59.2 0L208 268.8a43.2 43.2 0 0 0 0 59.2l20.8 20.8-11.2 25.6L208 400h-36.8A41.6 41.6 0 0 0 128 441.6v92.8a41.6 41.6 0 0 0 43.2 41.6h30.4l9.6 24 11.2 22.4-20.8 19.2a41.6 41.6 0 0 0-12.8 30.4 40 40 0 0 0 12.8 28.8l67.2 67.2a43.2 43.2 0 0 0 59.2 0l20.8-20.8 25.6 11.2 25.6 9.6v32a51.2 51.2 0 0 0 16 41.6 32 32 0 0 0 19.2 6.4h100.8a25.6 25.6 0 0 0 19.2-3.2 52.8 52.8 0 0 0 20.8-32v-35.2a16 16 0 0 0-11.2-25.6z" fill="#0084FF" p-id="41871"></path><path d="M488 368a136 136 0 1 0 136 136 136 136 0 0 0-136-136z m0 240a104 104 0 1 1 104-104 104 104 0 0 1-104 104zM752 608a144 144 0 1 0 144 144 144 144 0 0 0-144-144z m0 256a112 112 0 1 1 112-112 112 112 0 0 1-112 112z" fill="#0084FF" p-id="41872"></path><path d="M832 736h-64v-48a16 16 0 0 0-32 0v48h-48a16 16 0 0 0 0 32h48v64a16 16 0 0 0 32 0v-64h64a16 16 0 0 0 0-32z" fill="#0084FF" p-id="41873"></path></svg>