<?xml version="1.0" standalone="no"?><!DOCTYPE svg PUBLIC "-//W3C//DTD SVG 1.1//EN" "http://www.w3.org/Graphics/SVG/1.1/DTD/svg11.dtd"><svg t="1521796130942" class="icon" style="" viewBox="0 0 1024 1024" version="1.1" xmlns="http://www.w3.org/2000/svg" p-id="1947" xmlns:xlink="http://www.w3.org/1999/xlink" width="200" height="200"><defs><style type="text/css"></style></defs><path d="M457.1 511.8c-4.9 0-9.6-1.9-13.2-5.5-4.6-4.6-6.5-11.3-4.9-17.7l25.4-101.8c0.8-3.3 2.5-6.3 4.9-8.7l254.3-254.4c7-7 19.4-7 26.4 0l76.3 76.3c7.3 7.3 7.3 19.1 0 26.4L572 480.9c-2.4 2.4-5.4 4.1-8.7 4.9l-101.8 25.4c-1.4 0.4-2.9 0.6-4.4 0.6z m101.7-44.1h0.2-0.2z m-59.4-66.8l-16.7 66.6 66.6-16.7 237.5-237.5-49.9-49.9-237.5 237.5z" fill="#231815" p-id="1948"></path><path d="M813.2 232c-4.8 0-9.5-1.8-13.2-5.5-7.3-7.3-7.3-19.1 0-26.4l38.2-38.1c6.7-6.7 10.3-15.6 10.3-25s-3.7-18.3-10.4-25c-6.7-6.7-15.5-10.4-25-10.4-9.4 0-18.3 3.7-25 10.4L750 150.2c-7.3 7.3-19.1 7.3-26.4 0-7.3-7.3-7.3-19.1 0-26.4l38.2-38.1c13.7-13.7 31.9-21.3 51.3-21.3s37.6 7.6 51.3 21.3c13.7 13.7 21.3 31.9 21.3 51.3s-7.6 37.6-21.3 51.3l-38.2 38.1c-3.5 3.8-8.3 5.6-13 5.6z" fill="#231815" p-id="1949"></path><path d="M867.2 959.2H158.8c-10.3 0-18.6-8.3-18.6-18.6V83.1c0-10.3 8.3-18.6 18.6-18.6h521.9c10.3 0 18.6 8.3 18.6 18.6s-8.3 18.6-18.6 18.6H177.5v820.2h671V269.5c0-10.3 8.3-18.6 18.6-18.6s18.6 8.3 18.6 18.6v671c0.1 10.3-8.2 18.7-18.5 18.7z" fill="#231815" p-id="1950"></path><path d="M587.6 288.1H270.7c-10.3 0-18.6-8.3-18.6-18.6s8.3-18.6 18.6-18.6h316.9c10.3 0 18.6 8.3 18.6 18.6s-8.3 18.6-18.6 18.6zM475.7 400h-205c-10.3 0-18.6-8.3-18.6-18.6s8.3-18.6 18.6-18.6h205c10.3 0 18.6 8.3 18.6 18.6 0.1 10.2-8.3 18.6-18.6 18.6zM382.5 511.8H270.7c-10.3 0-18.6-8.3-18.6-18.6s8.3-18.6 18.6-18.6h111.8c10.3 0 18.6 8.3 18.6 18.6 0.1 10.3-8.3 18.6-18.6 18.6z" fill="#231815" p-id="1951"></path><path d="M561.8 940.5H382.5s-80-379.5 484.6-447.4v277.3s-294.6-41.7-305.3 170.1z" fill="#0D4FF7" p-id="1952"></path><path d="M561.8 959.2H382.5c-8.8 0-16.4-6.2-18.2-14.8-1.2-5.5-27.3-135.8 62.4-261C507.9 570 655.3 499.8 864.9 474.6c5.3-0.7 10.6 1 14.6 4.6 4 3.5 6.3 8.6 6.3 13.9v277.3c0 5.4-2.3 10.5-6.4 14.1-4.1 3.5-9.5 5.2-14.8 4.4-1.5-0.2-153.3-20.6-234.2 46.3-31.3 25.8-47.6 60.6-49.9 106.3-0.6 9.9-8.8 17.7-18.7 17.7z m-163-37.3h146c6.1-47.8 26.9-86.6 61.9-115.5 74.8-61.8 193.6-60.2 241.9-56.5V514.4c-187.3 25.8-318.8 89.7-391.1 190.2-63.8 88.4-62.2 181.8-58.7 217.3z" fill="#231815" p-id="1953"></path></svg>