<?xml version="1.0" standalone="no"?><!DOCTYPE svg PUBLIC "-//W3C//DTD SVG 1.1//EN" "http://www.w3.org/Graphics/SVG/1.1/DTD/svg11.dtd"><svg t="1521608005822" class="icon" style="" viewBox="0 0 1024 1024" version="1.1" xmlns="http://www.w3.org/2000/svg" p-id="2083" xmlns:xlink="http://www.w3.org/1999/xlink" width="200" height="200"><defs><style type="text/css"></style></defs><path d="M340.8 451.2c0 94.552 76.649 171.2 171.2 171.2s171.2-76.649 171.2-171.2c0-94.552-76.649-171.2-171.2-171.2-94.552 0-171.2 76.649-171.2 171.2z" p-id="2084" fill="#d81e06"></path><path d="M512 660.8c-144 0-272 68.8-353.6 176 88 96 214.4 155.2 353.6 155.2 139.2 0 265.6-59.2 353.6-155.2-81.6-107.2-209.6-176-353.6-176z" p-id="2085" fill="#d81e06"></path><path d="M512 32c-265.6 0-480 214.4-480 480 0 112 38.4 214.4 100.8 294.4 67.2-86.4 163.2-148.8 275.2-172.8-64-36.8-105.6-104-105.6-182.4 0-115.2 94.4-209.6 209.6-209.6 115.2 0 209.6 94.4 209.6 209.6 0 78.4-43.2 145.6-105.6 182.4 110.4 24 206.4 86.4 275.2 172.8 62.4-80 100.8-182.4 100.8-294.4 0-265.6-214.4-480-480-480z" p-id="2086" fill="#d81e06"></path></svg>