<?xml version="1.0" standalone="no"?><!DOCTYPE svg PUBLIC "-//W3C//DTD SVG 1.1//EN" "http://www.w3.org/Graphics/SVG/1.1/DTD/svg11.dtd"><svg t="1521546478667" class="icon" style="" viewBox="0 0 1024 1024" version="1.1" xmlns="http://www.w3.org/2000/svg" p-id="1927" xmlns:xlink="http://www.w3.org/1999/xlink" width="200" height="200"><defs><style type="text/css"></style></defs><path d="M315.500524 1023.843185h-274.425728a39.203675 39.203675 0 0 1-39.203675-39.203675V40.066156a39.203675 39.203675 0 0 1 39.203675-39.203675h595.347014c10.428178 0 20.385911 4.15559 27.756202 11.447473l152.737519 152.737519a39.203675 39.203675 0 0 1 11.447473 27.756202v169.908729a39.203675 39.203675 0 0 1-78.40735 0v-153.678407L620.113081 79.269832H80.278472v866.166003h235.222052a39.203675 39.203675 0 0 1 0 78.40735zM868.193939 832.137213a39.203675 39.203675 0 0 0-27.756203 66.88147l110.867994 110.867994a39.046861 39.046861 0 0 0 55.512405 0 39.203675 39.203675 0 0 0 0-55.433997l-110.867994-110.867994a39.36049 39.36049 0 0 0-27.756202-11.447473z" fill="#1296db" p-id="1928"></path><path d="M359.957491 399.093415h-156.814701a39.203675 39.203675 0 0 0 0 78.407351h156.814701a39.203675 39.203675 0 0 0 0-78.407351zM516.772193 242.278714h-313.629403a39.203675 39.203675 0 0 0 0 78.40735h313.629403a39.203675 39.203675 0 0 0 0-78.40735zM359.957491 555.908116h-156.814701a39.203675 39.203675 0 0 0 0 78.407351h156.814701a39.203675 39.203675 0 0 0 0-78.407351zM706.674796 548.851455c86.483308 0 156.814701 70.331394 156.814702 156.814701s-70.331394 156.814701-156.814702 156.814702-156.814701-70.331394-156.814701-156.814702 70.331394-156.814701 156.814701-156.814701m0-78.407351a235.222052 235.222052 0 1 0 0 470.444104 235.222052 235.222052 0 0 0 0-470.444104z" fill="#1296db" p-id="1929"></path></svg>