<?xml version="1.0" standalone="no"?><!DOCTYPE svg PUBLIC "-//W3C//DTD SVG 1.1//EN" "http://www.w3.org/Graphics/SVG/1.1/DTD/svg11.dtd"><svg t="1520473729444" class="icon" style="" viewBox="0 0 1024 1024" version="1.1" xmlns="http://www.w3.org/2000/svg" p-id="2083" xmlns:xlink="http://www.w3.org/1999/xlink" width="200" height="200"><defs><style type="text/css"></style></defs><path d="M735.5 959h-447C165.3 959 65 858.7 65 735.5v-447C65 165.3 165.3 65 288.5 65h447C858.7 65 959 165.3 959 288.5v447C959 858.7 858.7 959 735.5 959z m-447-812.7c-78.4 0-142.2 63.8-142.2 142.2v447c0 78.4 63.8 142.2 142.2 142.2h447c78.4 0 142.2-63.8 142.2-142.2v-447c0-78.4-63.8-142.2-142.2-142.2h-447z" p-id="2084" fill="#d81e06"></path><path d="M685.6 664.5V428.7c0-49.9-40.5-90.5-90.4-90.5H359.6c12.5-35.1 45.6-60.3 84.9-60.3h211c49.9 0 90.4 40.5 90.4 90.5v211.1c0 39.4-25.3 72.5-60.3 85z m-15.7-220v211.1c0 50-40.5 90.5-90.4 90.5h-211c-49.9 0-90.4-40.5-90.4-90.5V444.5c0-50 40.5-90.5 90.4-90.5h211c49.9 0 90.4 40.5 90.4 90.5zM338.4 655.6c0 16.7 13.5 30.2 30.1 30.2h211c16.6 0 30.1-13.5 30.1-30.2v-181H338.4v181z m30.1-271.4c-16.6 0-30.1 13.5-30.1 30.1 0 16.7 13.5 30.2 30.1 30.2 16.7 0 30.1-13.5 30.1-30.2 0.1-16.6-13.4-30.1-30.1-30.1z" p-id="2085" fill="#d81e06"></path></svg>