<?xml version="1.0" standalone="no"?><!DOCTYPE svg PUBLIC "-//W3C//DTD SVG 1.1//EN" "http://www.w3.org/Graphics/SVG/1.1/DTD/svg11.dtd"><svg t="1520612898723" class="icon" style="" viewBox="0 0 1024 1024" version="1.1" xmlns="http://www.w3.org/2000/svg" p-id="3309" xmlns:xlink="http://www.w3.org/1999/xlink" width="200" height="200"><defs><style type="text/css"></style></defs><path d="M131 217.3v529.9c0 96.6 47.8 125.4 47.8 125.4 26.4 26.3 69.2 26.3 95.6 0 26.4-26.3 69.2-26.3 95.6 0 26.4 26.3 69.2 26.3 95.6 0 26.4-26.3 69.2-26.3 95.6 0 26.4 26.3 69.2 26.3 95.6 0 26.4-26.3 69.2-26.3 95.6 0 26.4 26.3 69.2 26.3 95.6 0 0 0 47.8-32.7 47.8-125.4s-0.2-529.9-0.2-529.9c0-49.4-40.3-89.4-89.9-89.4h-585c-49.4 0-89.7 40-89.7 89.4z" fill="#37AFFA" p-id="3310"></path><path d="M895.8 293v-75.7c0-49.4-40.3-89.4-89.9-89.4h-43.3c56.6 43.3 102.5 99.9 133.2 165.1zM219.1 127.9c-48.8 0.9-88.2 40.6-88.2 89.4v0.2c25.1-33.8 54.8-64 88.2-89.6zM896 673.3c-35.8 76.2-92.4 140.6-162.6 186 6.9 3.2 13.4 7.7 19.1 13.4 26.4 26.3 69.2 26.3 95.6 0 0 0 47.8-32.7 47.8-125.4 0.1-15.9 0.1-41.9 0.1-74zM131 749.1c0.6 95.1 47.8 123.5 47.8 123.5 25.9 25.8 67.6 26.2 94.1 1.4-55.7-31.1-104.1-73.8-141.9-124.9z" fill="#37AFFA" p-id="3311"></path><path d="M278.8 127.9H219.1c-33.4 25.6-63.1 55.8-88.2 89.6v63.3C165 217.1 216.4 164 278.8 127.9zM896 673.3c0-106.5-0.1-280.9-0.1-380.3-30.7-65.2-76.7-121.8-133.3-165.1h-97.7c115.4 66.8 193 191.5 193 334.4 0 213.2-172.8 386.1-386.1 386.1-147.6 0-275.9-82.8-340.8-204.6v105.4c37.8 51.1 86.2 93.8 141.9 125 0.5-0.5 1-0.9 1.5-1.4 26.4-26.3 69.2-26.3 95.6 0 26.4 26.3 69.2 26.3 95.6 0 26.4-26.3 69.2-26.3 95.6 0 26.4 26.3 69.2 26.3 95.6 0 20.7-20.6 51.4-25 76.5-13.4 70.3-45.5 126.9-109.9 162.7-186.1z" fill="#41B6FB" p-id="3312"></path><path d="M471.8 848.3c213.2 0 386.1-172.8 386.1-386.1 0-142.9-77.6-267.7-193-334.4H538.2c137.9 37.5 239.3 163.6 239.3 313.4 0 179.4-145.4 324.8-324.8 324.8-164.3 0-300.2-122.2-321.7-280.7v158.5c65 121.7 193.2 204.5 340.8 204.5zM367.3 127.9h-88.5C216.4 164 165 217.1 131 280.8v116.4c17.6-130 112.2-235.6 236.3-269.3z" fill="#4CBCFC" p-id="3313"></path><path d="M452.8 766c179.4 0 324.8-145.4 324.8-324.8 0-149.8-101.4-275.9-239.3-313.4h-171C243.2 161.6 148.6 267.2 131 397.2v88.1C152.5 643.8 288.4 766 452.8 766z m-19.1-609.2c145.5 0 263.5 118 263.5 263.5s-118 263.5-263.5 263.5-263.5-118-263.5-263.5 118-263.5 263.5-263.5z" fill="#56C3FD" p-id="3314"></path><path d="M433.7 683.7c145.5 0 263.5-118 263.5-263.5s-118-263.5-263.5-263.5-263.5 118-263.5 263.5 118 263.5 263.5 263.5z m-19-486.7c111.6 0 202.2 90.5 202.2 202.2s-90.5 202.2-202.2 202.2-202.2-90.5-202.2-202.2S303 197 414.7 197z" fill="#60C9FD" p-id="3315"></path><path d="M414.7 601.4c111.6 0 202.2-90.5 202.2-202.2S526.3 197 414.7 197s-202.2 90.5-202.2 202.2S303 601.4 414.7 601.4z m-19.1-364.1c77.8 0 140.9 63.1 140.9 140.9S473.4 519 395.6 519s-140.8-63-140.8-140.8 63-140.9 140.8-140.9z" fill="#6BCFFE" p-id="3316"></path><path d="M395.6 378.2m-140.9 0a140.9 140.9 0 1 0 281.8 0 140.9 140.9 0 1 0-281.8 0Z" fill="#75D6FF" p-id="3317"></path><path d="M805.9 145.9c39.6 0 71.9 32 71.9 71.4 0 4.4 0.2 438.3 0.2 529.9 0 42.5-11 70.4-20.2 86.2-9.4 16.2-18.8 23.6-19.9 24.3l-1.1 0.7-1.3 1.3c-9.4 9.3-21.8 14.5-35.1 14.5s-25.7-5.1-35.1-14.5c-16.2-16.1-37.7-24.9-60.5-24.9-22.9 0-44.3 8.9-60.5 24.9-9.4 9.3-21.8 14.5-35.1 14.5s-25.7-5.1-35.1-14.5c-16.2-16.1-37.7-24.9-60.5-24.9-22.9 0-44.3 8.9-60.5 24.9-9.4 9.3-21.8 14.5-35.1 14.5s-25.7-5.1-35.1-14.5c-16.2-16.1-37.7-24.9-60.5-24.9s-44.3 8.9-60.5 24.9c-9.4 9.3-21.8 14.5-35.1 14.5s-25.7-5.1-35.1-14.5l-1.3-1.5-2-1.1c-1.1-0.8-10.3-7.4-19.3-22.8-9.1-15.5-19.9-43.1-19.9-87.3V217.3c0-39.4 32.3-71.5 71.9-71.5h584.8m0-17.9h-585c-49.7 0-89.9 40.1-89.9 89.5v529.9c0 96.6 47.8 125.4 47.8 125.4 13.2 13.1 30.5 19.7 47.8 19.7s34.6-6.6 47.8-19.7c13.2-13.1 30.5-19.7 47.8-19.7s34.6 6.6 47.8 19.7 30.5 19.7 47.8 19.7 34.6-6.6 47.8-19.7c13.2-13.1 30.5-19.7 47.8-19.7s34.6 6.6 47.8 19.7c13.2 13.1 30.5 19.7 47.8 19.7s34.6-6.6 47.8-19.7c13.2-13.1 30.5-19.7 47.8-19.7s34.6 6.6 47.8 19.7c13.2 13.1 30.5 19.7 47.8 19.7s34.6-6.6 47.8-19.7c0 0 47.8-32.7 47.8-125.4s-0.2-529.9-0.2-529.9c0.2-49.5-40.1-89.5-89.7-89.5z" fill="#37AFFA" p-id="3318"></path><path d="M756.9 244.9H270.1c-19.2 0-34.8 15.6-34.8 34.8v69.5c0 19.2 15.6 34.8 34.8 34.8h486.8c19.2 0 34.8-15.6 34.8-34.8v-69.5c0-19.2-15.6-34.8-34.8-34.8zM478.7 436.2H270.1c-19.2 0-34.8 15.6-34.8 34.8 0 19.2 15.6 34.8 34.8 34.8h208.6c19.2 0 34.8-15.6 34.8-34.8 0-19.2-15.6-34.8-34.8-34.8z m0 121.7H270.1c-19.2 0-34.8 15.6-34.8 34.8s15.6 34.8 34.8 34.8h208.6c19.2 0 34.8-15.6 34.8-34.8 0-19.2-15.6-34.8-34.8-34.8z" fill="#B9E8FF" p-id="3319"></path><path d="M193.6 279.7c-9.9 0-18-8.1-18-18v-9.9c0-45.9 37.4-83.3 83.3-83.3H275c9.9 0 18 8.1 18 18s-8.1 18-18 18h-16.2c-26.1 0-47.3 21.2-47.3 47.3v9.9c0.1 9.9-8 18-17.9 18zM193.6 349.3c-9.9 0-18-8.1-18-18v-10.5c0-9.9 8.1-18 18-18s18 8.1 18 18v10.5c0 9.9-8.1 18-18 18z" fill="#FFFFFF" p-id="3320"></path></svg>